Aleo-Regular.ufo
<glyph name="exclam" format="2">
	<advance width="295"/>
	<unicode hex="0021"/>
	<note>
		exclam
	</note>
	<outline>
		<contour>
			<point x="107" y="717" type="line"/>
			<point x="107" y="431" type="line" smooth="yes"/>
			<point x="107" y="369"/>
			<point x="111" y="317"/>
			<point x="119" y="250" type="curve"/>
			<point x="179" y="250" type="line"/>
			<point x="187" y="317"/>
			<point x="191" y="369"/>
			<point x="191" y="431" type="curve" smooth="yes"/>
			<point x="191" y="717" type="line"/>
			<point x="107" y="717" type="line"/>
		</contour>
		<contour>
			<point x="85" y="55" type="curve"/>
			<point x="85" y="55" type="line"/>
			<point x="85" y="20"/>
			<point x="113" y="-8"/>
			<point x="147" y="-8" type="curve" smooth="yes"/>
			<point x="182" y="-8"/>
			<point x="210" y="20"/>
			<point x="210" y="55" type="curve" smooth="yes"/>
			<point x="210" y="90"/>
			<point x="182" y="118"/>
			<point x="147" y="118" type="curve" smooth="yes"/>
			<point x="113" y="118"/>
			<point x="85" y="90"/>
		</contour>
	</outline>
</glyph>
<glyph name="quotedbl" format="2">
	<advance width="382"/>
	<unicode hex="0022"/>
	<note>
		quotedbl
	</note>
	<outline>
		<contour>
			<point x="69" y="717" type="line"/>
			<point x="69" y="572" type="line"/>
			<point x="77" y="494" type="line"/>
			<point x="81" y="473"/>
			<point x="91" y="461"/>
			<point x="108" y="461" type="curve" smooth="yes"/>
			<point x="128" y="461"/>
			<point x="136" y="473"/>
			<point x="139" y="494" type="curve" smooth="yes"/>
			<point x="147" y="572" type="line"/>
			<point x="147" y="717" type="line"/>
			<point x="69" y="717" type="line"/>
		</contour>
		<contour>
			<point x="236" y="717" type="line"/>
			<point x="236" y="572" type="line"/>
			<point x="244" y="494" type="line"/>
			<point x="248" y="473"/>
			<point x="257" y="461"/>
			<point x="274" y="461" type="curve" smooth="yes"/>
			<point x="295" y="461"/>
			<point x="304" y="473"/>
			<point x="305" y="494" type="curve" smooth="yes"/>
			<point x="313" y="572" type="line"/>
			<point x="313" y="717" type="line"/>
			<point x="236" y="717" type="line"/>
		</contour>
	</outline>
</glyph>
<glyph name="numbersign" format="1">
  <advance width="601"/>
  <unicode hex="0023"/>
  <note>
    numbersign
  </note>
  <outline>
    <contour>
      <point x="363" y="-2" type="line"/>
      <point x="407" y="212" type="line"/>
      <point x="525" y="212" type="line"/>
      <point x="529" y="240" type="line"/>
      <point x="529" y="242"/>
      <point x="530" y="244"/>
      <point x="530" y="246" type="curve" smooth="yes"/>
      <point x="530" y="251" type="line" smooth="yes"/>
      <point x="530" y="261"/>
      <point x="527" y="267"/>
      <point x="523" y="271" type="curve" smooth="yes"/>
      <point x="519" y="275"/>
      <point x="513" y="277"/>
      <point x="505" y="277" type="curve" smooth="yes"/>
      <point x="415" y="277" type="line"/>
      <point x="448" y="440" type="line"/>
      <point x="517" y="440" type="line" smooth="yes"/>
      <point x="529" y="440"/>
      <point x="539" y="442"/>
      <point x="545" y="446" type="curve" smooth="yes"/>
      <point x="551" y="450"/>
      <point x="555" y="458"/>
      <point x="557" y="468" type="curve"/>
      <point x="563" y="505" type="line"/>
      <point x="457" y="505" type="line"/>
      <point x="493" y="682" type="line"/>
      <point x="493" y="684"/>
      <point x="494" y="686"/>
      <point x="494" y="688" type="curve" smooth="yes"/>
      <point x="494" y="696"/>
      <point x="491" y="703"/>
      <point x="485" y="708" type="curve" smooth="yes"/>
      <point x="479" y="713"/>
      <point x="473" y="716"/>
      <point x="465" y="716" type="curve" smooth="yes"/>
      <point x="425" y="716" type="line"/>
      <point x="383" y="504" type="line"/>
      <point x="259" y="504" type="line"/>
      <point x="301" y="716" type="line"/>
      <point x="261" y="716" type="line" smooth="yes"/>
      <point x="251" y="716"/>
      <point x="243" y="713"/>
      <point x="236" y="707" type="curve" smooth="yes"/>
      <point x="229" y="701"/>
      <point x="225" y="694"/>
      <point x="223" y="684" type="curve" smooth="yes"/>
      <point x="187" y="504" type="line"/>
      <point x="107" y="504" type="line" smooth="yes"/>
      <point x="94" y="504"/>
      <point x="85" y="502"/>
      <point x="79" y="498" type="curve" smooth="yes"/>
      <point x="73" y="494"/>
      <point x="69" y="486"/>
      <point x="67" y="476" type="curve" smooth="yes"/>
      <point x="61" y="440" type="line"/>
      <point x="177" y="440" type="line"/>
      <point x="145" y="276" type="line"/>
      <point x="43" y="276" type="line"/>
      <point x="39" y="248" type="line"/>
      <point x="39" y="246"/>
      <point x="37" y="244"/>
      <point x="37" y="242" type="curve" smooth="yes"/>
      <point x="37" y="236" type="line" smooth="yes"/>
      <point x="37" y="226"/>
      <point x="40" y="220"/>
      <point x="44" y="216" type="curve" smooth="yes"/>
      <point x="48" y="212"/>
      <point x="54" y="210"/>
      <point x="62" y="210" type="curve" smooth="yes"/>
      <point x="135" y="210" type="line"/>
      <point x="93" y="-1" type="line"/>
      <point x="132" y="-1" type="line" smooth="yes"/>
      <point x="142" y="-1"/>
      <point x="149" y="1"/>
      <point x="157" y="6" type="curve" smooth="yes"/>
      <point x="165" y="11"/>
      <point x="171" y="20"/>
      <point x="173" y="32" type="curve" smooth="yes"/>
      <point x="208" y="210" type="line"/>
      <point x="331" y="210" type="line"/>
      <point x="296" y="37" type="line"/>
      <point x="296" y="35"/>
      <point x="295" y="34"/>
      <point x="295" y="33" type="curve" smooth="yes"/>
      <point x="295" y="29" type="line" smooth="yes"/>
      <point x="295" y="20"/>
      <point x="297" y="13"/>
      <point x="303" y="7" type="curve" smooth="yes"/>
      <point x="309" y="1"/>
      <point x="315" y="-2"/>
      <point x="323" y="-2" type="curve" smooth="yes"/>
    </contour>
    <contour>
      <point x="341" y="276" type="line"/>
      <point x="217" y="276" type="line"/>
      <point x="250" y="438" type="line"/>
      <point x="373" y="438" type="line"/>
    </contour>
  </outline>
</glyph>
<glyph name="dollar" format="2">
	<advance width="545"/>
	<unicode hex="0024"/>
	<note>
		dollar
	</note>
	<outline>
		<contour>
			<point x="222" y="-119" type="line"/>
			<point x="255" y="-119" type="line" smooth="yes"/>
			<point x="268" y="-119"/>
			<point x="279" y="-108"/>
			<point x="280" y="-95" type="curve" smooth="yes"/>
			<point x="342" y="820" type="line"/>
			<point x="309" y="820" type="line" smooth="yes"/>
			<point x="294" y="820"/>
			<point x="285" y="808"/>
			<point x="284" y="795" type="curve" smooth="yes"/>
		</contour>
		<component base="S"/>
	</outline>
</glyph>
<glyph name="percent" format="1">
  <advance width="791"/>
  <unicode hex="0025"/>
  <note>
    percent
  </note>
  <outline>
    <contour>
      <point x="356" y="544" type="curve" smooth="yes"/>
      <point x="356" y="572"/>
      <point x="352" y="598"/>
      <point x="344" y="620" type="curve" smooth="yes"/>
      <point x="336" y="642"/>
      <point x="326" y="661"/>
      <point x="312" y="677" type="curve" smooth="yes"/>
      <point x="298" y="693"/>
      <point x="281" y="704"/>
      <point x="261" y="712" type="curve" smooth="yes"/>
      <point x="241" y="720"/>
      <point x="220" y="724"/>
      <point x="198" y="724" type="curve" smooth="yes"/>
      <point x="176" y="724"/>
      <point x="155" y="720"/>
      <point x="136" y="712" type="curve" smooth="yes"/>
      <point x="117" y="704"/>
      <point x="99" y="693"/>
      <point x="85" y="677" type="curve" smooth="yes"/>
      <point x="71" y="661"/>
      <point x="60" y="642"/>
      <point x="52" y="620" type="curve" smooth="yes"/>
      <point x="44" y="598"/>
      <point x="40" y="572"/>
      <point x="40" y="544" type="curve" smooth="yes"/>
      <point x="40" y="516"/>
      <point x="44" y="490"/>
      <point x="52" y="468" type="curve" smooth="yes"/>
      <point x="60" y="446"/>
      <point x="71" y="428"/>
      <point x="85" y="413" type="curve" smooth="yes"/>
      <point x="99" y="398"/>
      <point x="116" y="386"/>
      <point x="135" y="378" type="curve" smooth="yes"/>
      <point x="154" y="370"/>
      <point x="176" y="366"/>
      <point x="198" y="366" type="curve" smooth="yes"/>
      <point x="219" y="366"/>
      <point x="238" y="370"/>
      <point x="258" y="378" type="curve" smooth="yes"/>
      <point x="278" y="386"/>
      <point x="295" y="398"/>
      <point x="309" y="413" type="curve" smooth="yes"/>
      <point x="323" y="428"/>
      <point x="336" y="446"/>
      <point x="344" y="468" type="curve" smooth="yes"/>
      <point x="352" y="490"/>
      <point x="356" y="516"/>
    </contour>
    <contour>
      <point x="286" y="544" type="curve"/>
      <point x="287" y="544" type="line"/>
      <point x="287" y="522"/>
      <point x="284" y="503"/>
      <point x="280" y="488" type="curve" smooth="yes"/>
      <point x="276" y="473"/>
      <point x="269" y="462"/>
      <point x="261" y="452" type="curve" smooth="yes"/>
      <point x="253" y="442"/>
      <point x="243" y="435"/>
      <point x="232" y="431" type="curve" smooth="yes"/>
      <point x="221" y="427"/>
      <point x="210" y="425"/>
      <point x="198" y="425" type="curve" smooth="yes"/>
      <point x="186" y="425"/>
      <point x="173" y="427"/>
      <point x="162" y="431" type="curve" smooth="yes"/>
      <point x="151" y="435"/>
      <point x="142" y="442"/>
      <point x="134" y="452" type="curve" smooth="yes"/>
      <point x="126" y="462"/>
      <point x="119" y="473"/>
      <point x="115" y="488" type="curve" smooth="yes"/>
      <point x="111" y="503"/>
      <point x="108" y="522"/>
      <point x="108" y="544" type="curve" smooth="yes"/>
      <point x="108" y="566"/>
      <point x="110" y="584"/>
      <point x="114" y="600" type="curve" smooth="yes"/>
      <point x="118" y="616"/>
      <point x="125" y="628"/>
      <point x="133" y="638" type="curve" smooth="yes"/>
      <point x="141" y="648"/>
      <point x="151" y="655"/>
      <point x="162" y="659" type="curve" smooth="yes"/>
      <point x="173" y="663"/>
      <point x="184" y="666"/>
      <point x="196" y="666" type="curve" smooth="yes"/>
      <point x="208" y="666"/>
      <point x="221" y="663"/>
      <point x="232" y="659" type="curve" smooth="yes"/>
      <point x="243" y="655"/>
      <point x="252" y="648"/>
      <point x="260" y="638" type="curve" smooth="yes"/>
      <point x="268" y="628"/>
      <point x="275" y="616"/>
      <point x="279" y="600" type="curve" smooth="yes"/>
      <point x="283" y="584"/>
      <point x="286" y="566"/>
    </contour>
    <contour>
      <point x="606" y="699" type="curve"/>
      <point x="606" y="698" type="line"/>
      <point x="85" y="0" type="line"/>
      <point x="151" y="0" type="line" smooth="yes"/>
      <point x="157" y="0"/>
      <point x="164" y="2"/>
      <point x="168" y="4" type="curve" smooth="yes"/>
      <point x="172" y="6"/>
      <point x="176" y="10"/>
      <point x="180" y="14" type="curve"/>
      <point x="703" y="716" type="line"/>
      <point x="639" y="716" type="line" smooth="yes"/>
      <point x="631" y="716"/>
      <point x="625" y="715"/>
      <point x="620" y="712" type="curve" smooth="yes"/>
      <point x="615" y="709"/>
      <point x="610" y="705"/>
    </contour>
    <contour>
      <point x="749" y="170" type="curve"/>
      <point x="751" y="170" type="line"/>
      <point x="751" y="198"/>
      <point x="747" y="224"/>
      <point x="739" y="246" type="curve" smooth="yes"/>
      <point x="731" y="268"/>
      <point x="720" y="287"/>
      <point x="706" y="303" type="curve" smooth="yes"/>
      <point x="692" y="319"/>
      <point x="674" y="330"/>
      <point x="654" y="338" type="curve" smooth="yes"/>
      <point x="634" y="346"/>
      <point x="614" y="350"/>
      <point x="592" y="350" type="curve" smooth="yes"/>
      <point x="570" y="350"/>
      <point x="548" y="346"/>
      <point x="529" y="338" type="curve" smooth="yes"/>
      <point x="510" y="330"/>
      <point x="492" y="319"/>
      <point x="478" y="303" type="curve" smooth="yes"/>
      <point x="464" y="287"/>
      <point x="453" y="268"/>
      <point x="445" y="246" type="curve" smooth="yes"/>
      <point x="437" y="224"/>
      <point x="433" y="198"/>
      <point x="433" y="170" type="curve" smooth="yes"/>
      <point x="433" y="142"/>
      <point x="437" y="116"/>
      <point x="445" y="94" type="curve" smooth="yes"/>
      <point x="453" y="72"/>
      <point x="464" y="54"/>
      <point x="478" y="39" type="curve" smooth="yes"/>
      <point x="492" y="24"/>
      <point x="509" y="12"/>
      <point x="528" y="4" type="curve" smooth="yes"/>
      <point x="547" y="-4"/>
      <point x="569" y="-8"/>
      <point x="591" y="-8" type="curve" smooth="yes"/>
      <point x="612" y="-8"/>
      <point x="632" y="-4"/>
      <point x="651" y="4" type="curve" smooth="yes"/>
      <point x="670" y="12"/>
      <point x="688" y="24"/>
      <point x="702" y="39" type="curve" smooth="yes"/>
      <point x="716" y="54"/>
      <point x="728" y="72"/>
      <point x="736" y="94" type="curve" smooth="yes"/>
      <point x="744" y="116"/>
      <point x="749" y="142"/>
    </contour>
    <contour>
      <point x="679" y="168" type="curve"/>
      <point x="680" y="170" type="line"/>
      <point x="680" y="148"/>
      <point x="677" y="129"/>
      <point x="673" y="114" type="curve" smooth="yes"/>
      <point x="669" y="99"/>
      <point x="662" y="88"/>
      <point x="654" y="78" type="curve" smooth="yes"/>
      <point x="646" y="68"/>
      <point x="637" y="61"/>
      <point x="626" y="57" type="curve" smooth="yes"/>
      <point x="615" y="53"/>
      <point x="602" y="51"/>
      <point x="590" y="51" type="curve" smooth="yes"/>
      <point x="578" y="51"/>
      <point x="567" y="53"/>
      <point x="556" y="57" type="curve" smooth="yes"/>
      <point x="545" y="61"/>
      <point x="535" y="68"/>
      <point x="527" y="78" type="curve" smooth="yes"/>
      <point x="519" y="88"/>
      <point x="512" y="99"/>
      <point x="508" y="114" type="curve" smooth="yes"/>
      <point x="504" y="129"/>
      <point x="501" y="147"/>
      <point x="501" y="169" type="curve" smooth="yes"/>
      <point x="501" y="191"/>
      <point x="504" y="209"/>
      <point x="508" y="225" type="curve" smooth="yes"/>
      <point x="512" y="241"/>
      <point x="518" y="252"/>
      <point x="526" y="262" type="curve" smooth="yes"/>
      <point x="534" y="272"/>
      <point x="543" y="280"/>
      <point x="554" y="284" type="curve" smooth="yes"/>
      <point x="565" y="288"/>
      <point x="578" y="290"/>
      <point x="590" y="290" type="curve" smooth="yes"/>
      <point x="602" y="290"/>
      <point x="613" y="288"/>
      <point x="624" y="284" type="curve" smooth="yes"/>
      <point x="635" y="280"/>
      <point x="645" y="272"/>
      <point x="653" y="262" type="curve" smooth="yes"/>
      <point x="661" y="252"/>
      <point x="668" y="241"/>
      <point x="672" y="225" type="curve" smooth="yes"/>
      <point x="676" y="209"/>
      <point x="679" y="190"/>
    </contour>
  </outline>
</glyph>
<glyph name="ampersand" format="2">
	<advance width="706"/>
	<unicode hex="0026"/>
	<note>
		ampersand
	</note>
	<outline>
		<contour>
			<point x="249" y="-8" type="curve" smooth="yes"/>
			<point x="346" y="-8"/>
			<point x="429" y="30"/>
			<point x="492" y="91" type="curve"/>
			<point x="564" y="18" type="line" smooth="yes"/>
			<point x="579" y="3"/>
			<point x="588" y="0"/>
			<point x="607" y="0" type="curve" smooth="yes"/>
			<point x="693" y="0" type="line"/>
			<point x="543" y="152" type="line"/>
			<point x="587" y="217"/>
			<point x="611" y="293"/>
			<point x="612" y="369" type="curve"/>
			<point x="557" y="369" type="line" smooth="yes"/>
			<point x="545" y="369"/>
			<point x="538" y="361"/>
			<point x="537" y="349" type="curve" smooth="yes"/>
			<point x="532" y="300"/>
			<point x="517" y="249"/>
			<point x="492" y="205" type="curve"/>
			<point x="286" y="414" type="line" smooth="yes"/>
			<point x="241" y="459"/>
			<point x="214" y="504"/>
			<point x="214" y="550" type="curve" smooth="yes"/>
			<point x="214" y="611"/>
			<point x="259" y="655"/>
			<point x="323" y="655" type="curve" smooth="yes"/>
			<point x="378" y="655"/>
			<point x="415" y="616"/>
			<point x="424" y="576" type="curve" smooth="yes"/>
			<point x="428" y="564"/>
			<point x="436" y="558"/>
			<point x="445" y="560" type="curve" smooth="yes"/>
			<point x="505" y="572" type="line"/>
			<point x="499" y="655"/>
			<point x="423" y="725"/>
			<point x="323" y="725" type="curve"/>
			<point x="207" y="725"/>
			<point x="131" y="650"/>
			<point x="131" y="549" type="curve" smooth="yes"/>
			<point x="131" y="497"/>
			<point x="150" y="450"/>
			<point x="190" y="399" type="curve"/>
			<point x="101" y="360"/>
			<point x="34" y="285"/>
			<point x="34" y="191" type="curve" smooth="yes"/>
			<point x="34" y="71"/>
			<point x="138" y="-8"/>
		</contour>
		<contour>
			<point x="264" y="65" type="curve" smooth="yes"/>
			<point x="191" y="65"/>
			<point x="125" y="115"/>
			<point x="125" y="198" type="curve"/>
			<point x="125" y="198" type="line"/>
			<point x="125" y="261"/>
			<point x="160" y="316"/>
			<point x="231" y="353" type="curve"/>
			<point x="443" y="140" type="line"/>
			<point x="398" y="95"/>
			<point x="339" y="65"/>
		</contour>
	</outline>
</glyph>
<glyph name="quotesingle" format="2">
	<advance width="216"/>
	<unicode hex="0027"/>
	<note>
		quotesingle
	</note>
	<outline>
		<contour>
			<point x="108" y="461" type="curve" smooth="yes"/>
			<point x="128" y="461"/>
			<point x="136" y="473"/>
			<point x="139" y="494" type="curve" smooth="yes"/>
			<point x="147" y="572" type="line"/>
			<point x="147" y="717" type="line"/>
			<point x="69" y="717" type="line"/>
			<point x="69" y="572" type="line"/>
			<point x="77" y="494" type="line"/>
			<point x="81" y="473"/>
			<point x="91" y="461"/>
		</contour>
	</outline>
</glyph>
<glyph name="parenleft" format="1">
  <advance width="267"/>
  <unicode hex="0028"/>
  <note>
    parenleft
  </note>
  <outline>
    <contour>
      <point x="122" y="314" type="curve"/>
      <point x="123" y="314" type="line"/>
      <point x="123" y="386"/>
      <point x="132" y="455"/>
      <point x="150" y="523" type="curve" smooth="yes"/>
      <point x="168" y="591"/>
      <point x="195" y="655"/>
      <point x="230" y="715" type="curve"/>
      <point x="234" y="721"/>
      <point x="234" y="727"/>
      <point x="234" y="732" type="curve" smooth="yes"/>
      <point x="234" y="736"/>
      <point x="233" y="741"/>
      <point x="231" y="744" type="curve" smooth="yes"/>
      <point x="229" y="747"/>
      <point x="226" y="750"/>
      <point x="222" y="752" type="curve"/>
      <point x="182" y="776" type="line"/>
      <point x="157" y="738"/>
      <point x="136" y="700"/>
      <point x="118" y="662" type="curve" smooth="yes"/>
      <point x="100" y="624"/>
      <point x="87" y="586"/>
      <point x="76" y="548" type="curve" smooth="yes"/>
      <point x="65" y="510"/>
      <point x="57" y="472"/>
      <point x="52" y="434" type="curve" smooth="yes"/>
      <point x="47" y="396"/>
      <point x="44" y="355"/>
      <point x="44" y="315" type="curve" smooth="yes"/>
      <point x="44" y="275"/>
      <point x="47" y="234"/>
      <point x="52" y="196" type="curve" smooth="yes"/>
      <point x="57" y="158"/>
      <point x="65" y="120"/>
      <point x="76" y="82" type="curve" smooth="yes"/>
      <point x="87" y="44"/>
      <point x="100" y="6"/>
      <point x="118" y="-32" type="curve" smooth="yes"/>
      <point x="136" y="-70"/>
      <point x="157" y="-108"/>
      <point x="182" y="-146" type="curve"/>
      <point x="222" y="-122" type="line"/>
      <point x="226" y="-120"/>
      <point x="228" y="-117"/>
      <point x="230" y="-114" type="curve" smooth="yes"/>
      <point x="232" y="-111"/>
      <point x="234" y="-106"/>
      <point x="234" y="-102" type="curve" smooth="yes"/>
      <point x="234" y="-100"/>
      <point x="233" y="-97"/>
      <point x="233" y="-95" type="curve" smooth="yes"/>
      <point x="233" y="-93"/>
      <point x="231" y="-90"/>
      <point x="229" y="-86" type="curve"/>
      <point x="195" y="-25"/>
      <point x="168" y="39"/>
      <point x="150" y="106" type="curve" smooth="yes"/>
      <point x="132" y="173"/>
      <point x="122" y="242"/>
    </contour>
  </outline>
</glyph>
<glyph name="parenright" format="1">
  <advance width="266"/>
  <unicode hex="0029"/>
  <note>
    parenright
  </note>
  <outline>
    <contour>
      <point x="144" y="314" type="curve" smooth="yes"/>
      <point x="144" y="242"/>
      <point x="135" y="173"/>
      <point x="117" y="106" type="curve" smooth="yes"/>
      <point x="99" y="39"/>
      <point x="72" y="-25"/>
      <point x="38" y="-86" type="curve"/>
      <point x="36" y="-90"/>
      <point x="34" y="-92"/>
      <point x="34" y="-94" type="curve" smooth="yes"/>
      <point x="34" y="-96"/>
      <point x="32" y="-100"/>
      <point x="32" y="-102" type="curve" smooth="yes"/>
      <point x="32" y="-106"/>
      <point x="34" y="-111"/>
      <point x="36" y="-114" type="curve" smooth="yes"/>
      <point x="38" y="-117"/>
      <point x="41" y="-120"/>
      <point x="45" y="-122" type="curve"/>
      <point x="84" y="-146" type="line"/>
      <point x="109" y="-108"/>
      <point x="130" y="-70"/>
      <point x="148" y="-32" type="curve" smooth="yes"/>
      <point x="166" y="6"/>
      <point x="179" y="44"/>
      <point x="190" y="82" type="curve" smooth="yes"/>
      <point x="201" y="120"/>
      <point x="209" y="158"/>
      <point x="214" y="196" type="curve" smooth="yes"/>
      <point x="219" y="234"/>
      <point x="222" y="275"/>
      <point x="222" y="315" type="curve" smooth="yes"/>
      <point x="222" y="355"/>
      <point x="219" y="396"/>
      <point x="214" y="434" type="curve" smooth="yes"/>
      <point x="209" y="472"/>
      <point x="201" y="510"/>
      <point x="190" y="548" type="curve" smooth="yes"/>
      <point x="179" y="586"/>
      <point x="166" y="623"/>
      <point x="148" y="661" type="curve" smooth="yes"/>
      <point x="130" y="699"/>
      <point x="109" y="737"/>
      <point x="84" y="775" type="curve"/>
      <point x="44" y="750" type="line"/>
      <point x="40" y="748"/>
      <point x="38" y="745"/>
      <point x="36" y="742" type="curve" smooth="yes"/>
      <point x="34" y="739"/>
      <point x="32" y="735"/>
      <point x="32" y="731" type="curve" smooth="yes"/>
      <point x="32" y="726"/>
      <point x="33" y="720"/>
      <point x="37" y="714" type="curve"/>
      <point x="72" y="654"/>
      <point x="98" y="590"/>
      <point x="116" y="522" type="curve" smooth="yes"/>
      <point x="134" y="454"/>
      <point x="144" y="386"/>
    </contour>
  </outline>
</glyph>
<glyph name="asterisk" format="1">
  <advance width="426"/>
  <unicode hex="002A"/>
  <note>
    asterisk
  </note>
  <outline>
    <contour>
      <point x="190" y="530" type="curve" smooth="yes"/>
      <point x="192" y="432" type="line"/>
      <point x="236" y="432" type="line"/>
      <point x="236" y="530" type="line" smooth="yes"/>
      <point x="236" y="543"/>
      <point x="234" y="555"/>
      <point x="228" y="566" type="curve"/>
      <point x="232" y="560"/>
      <point x="236" y="557"/>
      <point x="240" y="553" type="curve" smooth="yes"/>
      <point x="244" y="549"/>
      <point x="250" y="546"/>
      <point x="256" y="542" type="curve"/>
      <point x="342" y="492" type="line"/>
      <point x="364" y="530" type="line"/>
      <point x="278" y="580" type="line"/>
      <point x="272" y="584"/>
      <point x="267" y="586"/>
      <point x="261" y="588" type="curve" smooth="yes"/>
      <point x="255" y="590"/>
      <point x="250" y="592"/>
      <point x="244" y="592" type="curve"/>
      <point x="250" y="592"/>
      <point x="254" y="594"/>
      <point x="260" y="596" type="curve" smooth="yes"/>
      <point x="266" y="598"/>
      <point x="271" y="600"/>
      <point x="277" y="604" type="curve"/>
      <point x="363" y="654" type="line"/>
      <point x="341" y="692" type="line"/>
      <point x="255" y="642" type="line"/>
      <point x="249" y="638"/>
      <point x="244" y="636"/>
      <point x="240" y="632" type="curve" smooth="yes"/>
      <point x="236" y="628"/>
      <point x="232" y="624"/>
      <point x="228" y="619" type="curve"/>
      <point x="232" y="629"/>
      <point x="235" y="641"/>
      <point x="235" y="655" type="curve" smooth="yes"/>
      <point x="235" y="754" type="line"/>
      <point x="191" y="754" type="line"/>
      <point x="191" y="654" type="line" smooth="yes"/>
      <point x="191" y="648"/>
      <point x="191" y="642"/>
      <point x="192" y="636" type="curve" smooth="yes"/>
      <point x="193" y="630"/>
      <point x="195" y="624"/>
      <point x="198" y="618" type="curve"/>
      <point x="190" y="628"/>
      <point x="182" y="637"/>
      <point x="170" y="643" type="curve"/>
      <point x="84" y="693" type="line"/>
      <point x="62" y="656" type="line"/>
      <point x="148" y="605" type="line"/>
      <point x="154" y="601"/>
      <point x="160" y="598"/>
      <point x="166" y="596" type="curve" smooth="yes"/>
      <point x="172" y="594"/>
      <point x="178" y="592"/>
      <point x="184" y="592" type="curve"/>
      <point x="172" y="591"/>
      <point x="160" y="587"/>
      <point x="148" y="580" type="curve" smooth="yes"/>
      <point x="62" y="530" type="line"/>
      <point x="84" y="492" type="line"/>
      <point x="170" y="542" type="line" smooth="yes"/>
      <point x="181" y="548"/>
      <point x="190" y="556"/>
      <point x="196" y="564" type="curve"/>
      <point x="194" y="558"/>
      <point x="193" y="554"/>
      <point x="192" y="548" type="curve" smooth="yes"/>
      <point x="191" y="542"/>
      <point x="190" y="536"/>
    </contour>
  </outline>
</glyph>
<glyph name="plus" format="1">
  <advance width="582"/>
  <unicode hex="002B"/>
  <note>
    plus
  </note>
  <outline>
    <contour>
      <point x="327" y="370" type="line"/>
      <point x="327" y="583" type="line"/>
      <point x="254" y="583" type="line"/>
      <point x="254" y="370" type="line"/>
      <point x="52" y="370" type="line"/>
      <point x="52" y="302" type="line"/>
      <point x="254" y="302" type="line"/>
      <point x="254" y="87" type="line"/>
      <point x="327" y="87" type="line"/>
      <point x="327" y="302" type="line"/>
      <point x="530" y="302" type="line"/>
      <point x="530" y="370" type="line"/>
    </contour>
  </outline>
</glyph>
<glyph name="comma" format="2">
	<advance width="211"/>
	<unicode hex="002C"/>
	<note>
		comma
	</note>
	<outline>
		<contour>
			<point x="71" y="-136" type="line"/>
			<point x="128" y="-89"/>
			<point x="166" y="-14"/>
			<point x="166" y="47" type="curve" smooth="yes"/>
			<point x="166" y="88"/>
			<point x="144" y="118"/>
			<point x="104" y="118" type="curve" smooth="yes"/>
			<point x="71" y="118"/>
			<point x="45" y="93"/>
			<point x="45" y="62" type="curve" smooth="yes"/>
			<point x="45" y="26"/>
			<point x="70" y="0"/>
			<point x="103" y="0" type="curve" smooth="yes"/>
			<point x="105" y="0"/>
			<point x="108" y="0"/>
			<point x="110" y="0" type="curve"/>
			<point x="103" y="-39"/>
			<point x="72" y="-76"/>
			<point x="57" y="-94" type="curve" smooth="yes"/>
			<point x="52" y="-99"/>
			<point x="50" y="-103"/>
			<point x="50" y="-107" type="curve" smooth="yes"/>
			<point x="50" y="-112"/>
			<point x="52" y="-117"/>
			<point x="56" y="-121" type="curve" smooth="yes"/>
		</contour>
	</outline>
</glyph>
<glyph name="hyphen" format="1">
  <advance width="326"/>
  <unicode hex="002D"/>
  <note>
    hyphen
  </note>
  <outline>
    <contour>
      <point x="286" y="338" type="line"/>
      <point x="40" y="338" type="line"/>
      <point x="40" y="262" type="line"/>
      <point x="286" y="262" type="line"/>
    </contour>
  </outline>
</glyph>
<glyph name="period" format="2">
	<advance width="215"/>
	<unicode hex="002E"/>
	<note>
		period
	</note>
	<outline>
		<contour>
			<point x="107" y="-8" type="curve" smooth="yes"/>
			<point x="142" y="-8"/>
			<point x="170" y="20"/>
			<point x="170" y="55" type="curve" smooth="yes"/>
			<point x="170" y="90"/>
			<point x="142" y="118"/>
			<point x="107" y="118" type="curve" smooth="yes"/>
			<point x="73" y="118"/>
			<point x="45" y="90"/>
			<point x="45" y="55" type="curve" smooth="yes"/>
			<point x="45" y="20"/>
			<point x="73" y="-8"/>
		</contour>
	</outline>
</glyph>
<glyph name="slash" format="1">
  <advance width="441"/>
  <unicode hex="002F"/>
  <note>
    slash
  </note>
  <outline>
    <contour>
      <point x="113" y="-10" type="curve"/>
      <point x="114" y="-10" type="line"/>
      <point x="413" y="736" type="line"/>
      <point x="375" y="736" type="line" smooth="yes"/>
      <point x="364" y="736"/>
      <point x="355" y="734"/>
      <point x="347" y="728" type="curve" smooth="yes"/>
      <point x="339" y="722"/>
      <point x="332" y="714"/>
      <point x="328" y="704" type="curve" smooth="yes"/>
      <point x="27" y="-44" type="line"/>
      <point x="65" y="-44" type="line" smooth="yes"/>
      <point x="75" y="-44"/>
      <point x="84" y="-42"/>
      <point x="93" y="-36" type="curve" smooth="yes"/>
      <point x="102" y="-30"/>
      <point x="109" y="-22"/>
    </contour>
  </outline>
</glyph>
<glyph name="zero" format="1">
  <advance width="577"/>
  <unicode hex="0030"/>
  <note>
    zero
  </note>
  <outline>
    <contour>
      <point x="547" y="358" type="curve"/>
      <point x="548" y="358" type="line"/>
      <point x="548" y="420"/>
      <point x="541" y="475"/>
      <point x="527" y="521" type="curve" smooth="yes"/>
      <point x="513" y="567"/>
      <point x="496" y="605"/>
      <point x="472" y="635" type="curve" smooth="yes"/>
      <point x="448" y="665"/>
      <point x="421" y="688"/>
      <point x="389" y="702" type="curve" smooth="yes"/>
      <point x="357" y="716"/>
      <point x="323" y="724"/>
      <point x="287" y="724" type="curve" smooth="yes"/>
      <point x="251" y="724"/>
      <point x="217" y="716"/>
      <point x="185" y="702" type="curve" smooth="yes"/>
      <point x="153" y="688"/>
      <point x="126" y="665"/>
      <point x="102" y="635" type="curve" smooth="yes"/>
      <point x="78" y="605"/>
      <point x="61" y="567"/>
      <point x="47" y="521" type="curve" smooth="yes"/>
      <point x="33" y="475"/>
      <point x="27" y="420"/>
      <point x="27" y="358" type="curve" smooth="yes"/>
      <point x="27" y="296"/>
      <point x="33" y="241"/>
      <point x="47" y="195" type="curve" smooth="yes"/>
      <point x="61" y="149"/>
      <point x="78" y="111"/>
      <point x="102" y="81" type="curve" smooth="yes"/>
      <point x="126" y="51"/>
      <point x="153" y="28"/>
      <point x="185" y="14" type="curve" smooth="yes"/>
      <point x="217" y="0"/>
      <point x="251" y="-8"/>
      <point x="287" y="-8" type="curve" smooth="yes"/>
      <point x="323" y="-8"/>
      <point x="357" y="0"/>
      <point x="389" y="14" type="curve" smooth="yes"/>
      <point x="421" y="28"/>
      <point x="448" y="51"/>
      <point x="472" y="81" type="curve" smooth="yes"/>
      <point x="496" y="111"/>
      <point x="513" y="149"/>
      <point x="527" y="195" type="curve" smooth="yes"/>
      <point x="541" y="241"/>
      <point x="547" y="296"/>
    </contour>
    <contour>
      <point x="455" y="357" type="curve"/>
      <point x="455" y="358" type="line"/>
      <point x="455" y="304"/>
      <point x="450" y="257"/>
      <point x="441" y="220" type="curve" smooth="yes"/>
      <point x="432" y="183"/>
      <point x="421" y="153"/>
      <point x="405" y="131" type="curve" smooth="yes"/>
      <point x="389" y="109"/>
      <point x="371" y="92"/>
      <point x="351" y="82" type="curve" smooth="yes"/>
      <point x="331" y="72"/>
      <point x="309" y="67"/>
      <point x="287" y="67" type="curve" smooth="yes"/>
      <point x="265" y="67"/>
      <point x="243" y="72"/>
      <point x="223" y="82" type="curve" smooth="yes"/>
      <point x="203" y="92"/>
      <point x="185" y="108"/>
      <point x="169" y="130" type="curve" smooth="yes"/>
      <point x="153" y="152"/>
      <point x="142" y="183"/>
      <point x="133" y="220" type="curve" smooth="yes"/>
      <point x="124" y="257"/>
      <point x="119" y="304"/>
      <point x="119" y="358" type="curve" smooth="yes"/>
      <point x="119" y="412"/>
      <point x="124" y="458"/>
      <point x="133" y="495" type="curve" smooth="yes"/>
      <point x="142" y="532"/>
      <point x="153" y="562"/>
      <point x="169" y="584" type="curve" smooth="yes"/>
      <point x="185" y="606"/>
      <point x="203" y="623"/>
      <point x="223" y="633" type="curve" smooth="yes"/>
      <point x="243" y="643"/>
      <point x="265" y="648"/>
      <point x="287" y="648" type="curve" smooth="yes"/>
      <point x="309" y="648"/>
      <point x="330" y="643"/>
      <point x="350" y="633" type="curve" smooth="yes"/>
      <point x="370" y="623"/>
      <point x="388" y="606"/>
      <point x="404" y="584" type="curve" smooth="yes"/>
      <point x="420" y="562"/>
      <point x="432" y="531"/>
      <point x="441" y="494" type="curve" smooth="yes"/>
      <point x="450" y="457"/>
      <point x="455" y="411"/>
    </contour>
  </outline>
</glyph>
<glyph name="one" format="2">
	<advance width="601"/>
	<unicode hex="0031"/>
	<note>
		one
	</note>
	<outline>
		<contour>
			<point x="129" y="0" type="line"/>
			<point x="513" y="0" type="line"/>
			<point x="513" y="41" type="line" smooth="yes"/>
			<point x="513" y="52"/>
			<point x="507" y="58"/>
			<point x="496" y="59" type="curve" smooth="yes"/>
			<point x="372" y="68" type="line"/>
			<point x="372" y="718" type="line"/>
			<point x="299" y="718" type="line"/>
			<point x="86" y="534" type="line"/>
			<point x="114" y="495" type="line" smooth="yes"/>
			<point x="118" y="490"/>
			<point x="126" y="484"/>
			<point x="137" y="484" type="curve" smooth="yes"/>
			<point x="142" y="484"/>
			<point x="149" y="486"/>
			<point x="156" y="492" type="curve" smooth="yes"/>
			<point x="284" y="601" type="line"/>
			<point x="283" y="586"/>
			<point x="283" y="572"/>
			<point x="283" y="557" type="curve" smooth="yes"/>
			<point x="283" y="68" type="line"/>
			<point x="146" y="59" type="line" smooth="yes"/>
			<point x="135" y="58"/>
			<point x="129" y="52"/>
			<point x="129" y="41" type="curve" smooth="yes"/>
		</contour>
	</outline>
</glyph>
<glyph name="two" format="2">
	<advance width="600"/>
	<unicode hex="0032"/>
	<note>
		two
	</note>
	<outline>
		<contour>
			<point x="57" y="0" type="line"/>
			<point x="535" y="0" type="line"/>
			<point x="535" y="85" type="line"/>
			<point x="264" y="85" type="line" smooth="yes"/>
			<point x="239" y="85"/>
			<point x="211" y="80"/>
			<point x="184" y="73" type="curve"/>
			<point x="372" y="266" type="line" smooth="yes"/>
			<point x="450" y="346"/>
			<point x="521" y="420"/>
			<point x="521" y="525" type="curve" smooth="yes"/>
			<point x="521" y="649"/>
			<point x="428" y="725"/>
			<point x="306" y="725" type="curve" smooth="yes"/>
			<point x="181" y="725"/>
			<point x="90" y="651"/>
			<point x="72" y="523" type="curve"/>
			<point x="105" y="517"/>
			<point x="120" y="514"/>
			<point x="130" y="514" type="curve" smooth="yes"/>
			<point x="147" y="514"/>
			<point x="158" y="522"/>
			<point x="163" y="541" type="curve" smooth="yes"/>
			<point x="176" y="605"/>
			<point x="231" y="648"/>
			<point x="301" y="648" type="curve" smooth="yes"/>
			<point x="376" y="648"/>
			<point x="430" y="605"/>
			<point x="430" y="523" type="curve" smooth="yes"/>
			<point x="430" y="438"/>
			<point x="376" y="372"/>
			<point x="303" y="299" type="curve" smooth="yes"/>
			<point x="73" y="69" type="line" smooth="yes"/>
			<point x="62" y="58"/>
			<point x="57" y="43"/>
			<point x="57" y="31" type="curve" smooth="yes"/>
		</contour>
		<component base="SerifUpLeftLower" xOffset="535" yOffset="82"/>
	</outline>
</glyph>
<glyph name="three" format="1">
  <advance width="604"/>
  <unicode hex="0033"/>
  <note>
    three
  </note>
  <outline>
    <contour>
      <point x="311" y="724" type="curve" smooth="yes"/>
      <point x="308" y="724" type="line" smooth="yes"/>
      <point x="278" y="724"/>
      <point x="248" y="720"/>
      <point x="222" y="711" type="curve" smooth="yes"/>
      <point x="196" y="702"/>
      <point x="172" y="689"/>
      <point x="152" y="672" type="curve" smooth="yes"/>
      <point x="132" y="655"/>
      <point x="115" y="634"/>
      <point x="101" y="609" type="curve" smooth="yes"/>
      <point x="87" y="584"/>
      <point x="78" y="554"/>
      <point x="74" y="522" type="curve"/>
      <point x="120" y="514" type="line"/>
      <point x="127" y="514" type="line"/>
      <point x="132" y="514" type="line" smooth="yes"/>
      <point x="140" y="514"/>
      <point x="147" y="516"/>
      <point x="153" y="520" type="curve" smooth="yes"/>
      <point x="159" y="524"/>
      <point x="163" y="531"/>
      <point x="165" y="541" type="curve"/>
      <point x="169" y="557"/>
      <point x="175" y="571"/>
      <point x="183" y="584" type="curve" smooth="yes"/>
      <point x="191" y="597"/>
      <point x="201" y="608"/>
      <point x="213" y="618" type="curve" smooth="yes"/>
      <point x="225" y="628"/>
      <point x="238" y="634"/>
      <point x="254" y="640" type="curve" smooth="yes"/>
      <point x="270" y="646"/>
      <point x="286" y="648"/>
      <point x="304" y="648" type="curve" smooth="yes"/>
      <point x="322" y="648"/>
      <point x="338" y="645"/>
      <point x="354" y="640" type="curve" smooth="yes"/>
      <point x="370" y="635"/>
      <point x="382" y="628"/>
      <point x="394" y="618" type="curve" smooth="yes"/>
      <point x="406" y="608"/>
      <point x="416" y="596"/>
      <point x="422" y="580" type="curve" smooth="yes"/>
      <point x="428" y="564"/>
      <point x="431" y="546"/>
      <point x="431" y="526" type="curve" smooth="yes"/>
      <point x="431" y="508"/>
      <point x="428" y="491"/>
      <point x="422" y="475" type="curve" smooth="yes"/>
      <point x="416" y="459"/>
      <point x="406" y="447"/>
      <point x="392" y="436" type="curve" smooth="yes"/>
      <point x="378" y="425"/>
      <point x="362" y="416"/>
      <point x="340" y="410" type="curve" smooth="yes"/>
      <point x="318" y="404"/>
      <point x="292" y="399"/>
      <point x="262" y="399" type="curve"/>
      <point x="262" y="334" type="line"/>
      <point x="300" y="334"/>
      <point x="330" y="330"/>
      <point x="354" y="324" type="curve" smooth="yes"/>
      <point x="378" y="318"/>
      <point x="396" y="310"/>
      <point x="410" y="298" type="curve" smooth="yes"/>
      <point x="424" y="286"/>
      <point x="433" y="272"/>
      <point x="438" y="256" type="curve" smooth="yes"/>
      <point x="443" y="240"/>
      <point x="446" y="223"/>
      <point x="446" y="203" type="curve" smooth="yes"/>
      <point x="446" y="187"/>
      <point x="442" y="172"/>
      <point x="436" y="156" type="curve" smooth="yes"/>
      <point x="430" y="140"/>
      <point x="420" y="125"/>
      <point x="408" y="112" type="curve" smooth="yes"/>
      <point x="396" y="99"/>
      <point x="379" y="88"/>
      <point x="360" y="80" type="curve" smooth="yes"/>
      <point x="341" y="72"/>
      <point x="319" y="68"/>
      <point x="294" y="68" type="curve" smooth="yes"/>
      <point x="269" y="68"/>
      <point x="249" y="72"/>
      <point x="232" y="80" type="curve" smooth="yes"/>
      <point x="215" y="88"/>
      <point x="201" y="96"/>
      <point x="189" y="106" type="curve" smooth="yes"/>
      <point x="177" y="116"/>
      <point x="168" y="128"/>
      <point x="162" y="140" type="curve" smooth="yes"/>
      <point x="156" y="152"/>
      <point x="150" y="163"/>
      <point x="146" y="173" type="curve"/>
      <point x="146" y="175"/>
      <point x="144" y="176"/>
      <point x="144" y="178" type="curve" smooth="yes"/>
      <point x="144" y="180"/>
      <point x="142" y="180"/>
      <point x="142" y="182" type="curve"/>
      <point x="140" y="188"/>
      <point x="136" y="193"/>
      <point x="131" y="196" type="curve" smooth="yes"/>
      <point x="126" y="199"/>
      <point x="120" y="200"/>
      <point x="114" y="200" type="curve" smooth="yes"/>
      <point x="107" y="200"/>
      <point x="99" y="199"/>
      <point x="92" y="196" type="curve" smooth="yes"/>
      <point x="54" y="180" type="line"/>
      <point x="62" y="154"/>
      <point x="73" y="128"/>
      <point x="85" y="105" type="curve" smooth="yes"/>
      <point x="97" y="82"/>
      <point x="113" y="62"/>
      <point x="131" y="46" type="curve" smooth="yes"/>
      <point x="149" y="30"/>
      <point x="173" y="16"/>
      <point x="200" y="6" type="curve" smooth="yes"/>
      <point x="227" y="-4"/>
      <point x="259" y="-8"/>
      <point x="297" y="-8" type="curve" smooth="yes"/>
      <point x="330" y="-8"/>
      <point x="361" y="-3"/>
      <point x="390" y="7" type="curve" smooth="yes"/>
      <point x="419" y="17"/>
      <point x="444" y="32"/>
      <point x="466" y="50" type="curve" smooth="yes"/>
      <point x="488" y="68"/>
      <point x="504" y="91"/>
      <point x="516" y="117" type="curve" smooth="yes"/>
      <point x="528" y="143"/>
      <point x="535" y="173"/>
      <point x="535" y="206" type="curve" smooth="yes"/>
      <point x="535" y="250"/>
      <point x="524" y="286"/>
      <point x="500" y="315" type="curve" smooth="yes"/>
      <point x="476" y="344"/>
      <point x="440" y="365"/>
      <point x="394" y="377" type="curve"/>
      <point x="413" y="383"/>
      <point x="430" y="390"/>
      <point x="446" y="400" type="curve" smooth="yes"/>
      <point x="462" y="410"/>
      <point x="475" y="420"/>
      <point x="486" y="434" type="curve" smooth="yes"/>
      <point x="497" y="448"/>
      <point x="505" y="463"/>
      <point x="511" y="481" type="curve" smooth="yes"/>
      <point x="517" y="499"/>
      <point x="520" y="520"/>
      <point x="520" y="542" type="curve" smooth="yes"/>
      <point x="520" y="570"/>
      <point x="514" y="594"/>
      <point x="504" y="616" type="curve" smooth="yes"/>
      <point x="494" y="638"/>
      <point x="479" y="658"/>
      <point x="461" y="674" type="curve" smooth="yes"/>
      <point x="443" y="690"/>
      <point x="421" y="704"/>
      <point x="395" y="712" type="curve" smooth="yes"/>
      <point x="369" y="720"/>
      <point x="341" y="724"/>
    </contour>
  </outline>
</glyph>
<glyph name="five" format="2">
	<advance width="590"/>
	<unicode hex="0035"/>
	<note>
		five
	</note>
	<outline>
		<contour>
			<point x="498" y="717" type="line"/>
			<point x="159" y="717" type="line"/>
			<point x="101" y="382" type="line"/>
			<point x="157" y="365" type="line"/>
			<point x="198" y="378"/>
			<point x="237" y="384"/>
			<point x="273" y="384" type="curve" smooth="yes"/>
			<point x="376" y="384"/>
			<point x="430" y="329"/>
			<point x="430" y="238" type="curve" smooth="yes"/>
			<point x="430" y="136"/>
			<point x="367" y="69"/>
			<point x="267" y="69" type="curve" smooth="yes"/>
			<point x="218" y="69"/>
			<point x="137" y="119"/>
			<point x="114" y="119" type="curve" smooth="yes"/>
			<point x="104" y="119"/>
			<point x="96" y="115"/>
			<point x="90" y="106" type="curve" smooth="yes"/>
			<point x="63" y="68" type="line"/>
			<point x="109" y="27"/>
			<point x="185" y="-8"/>
			<point x="262" y="-8" type="curve" smooth="yes"/>
			<point x="409" y="-8"/>
			<point x="520" y="91"/>
			<point x="520" y="242" type="curve" smooth="yes"/>
			<point x="520" y="370"/>
			<point x="436" y="458"/>
			<point x="291" y="458" type="curve" smooth="yes"/>
			<point x="260" y="458"/>
			<point x="225" y="454"/>
			<point x="188" y="446" type="curve"/>
			<point x="221" y="634" type="line"/>
			<point x="446" y="634" type="line" smooth="yes"/>
			<point x="483" y="634"/>
			<point x="498" y="653"/>
			<point x="498" y="678" type="curve" smooth="yes"/>
			<point x="498" y="717" type="line"/>
		</contour>
	</outline>
</glyph>
<glyph name="six" format="2">
	<advance width="567"/>
	<unicode hex="0036"/>
	<note>
		six
	</note>
	<outline>
		<contour>
			<point x="281" y="-8" type="curve" smooth="yes"/>
			<point x="424" y="-8"/>
			<point x="527" y="91"/>
			<point x="527" y="226" type="curve" smooth="yes"/>
			<point x="527" y="358"/>
			<point x="434" y="439"/>
			<point x="315" y="439" type="curve" smooth="yes"/>
			<point x="267" y="439"/>
			<point x="225" y="426"/>
			<point x="192" y="402" type="curve"/>
			<point x="210" y="425"/>
			<point x="229" y="449"/>
			<point x="247" y="472" type="curve" smooth="yes"/>
			<point x="440" y="717" type="line"/>
			<point x="361" y="717" type="line" smooth="yes"/>
			<point x="340" y="717"/>
			<point x="322" y="707"/>
			<point x="313" y="695" type="curve" smooth="yes"/>
			<point x="132" y="451" type="line" smooth="yes"/>
			<point x="71" y="370"/>
			<point x="44" y="300"/>
			<point x="44" y="237" type="curve" smooth="yes"/>
			<point x="44" y="90"/>
			<point x="137" y="-8"/>
		</contour>
		<contour>
			<point x="280" y="66" type="curve" smooth="yes"/>
			<point x="186" y="66"/>
			<point x="130" y="130"/>
			<point x="130" y="221" type="curve" smooth="yes"/>
			<point x="130" y="305"/>
			<point x="194" y="371"/>
			<point x="286" y="371" type="curve" smooth="yes"/>
			<point x="377" y="371"/>
			<point x="438" y="312"/>
			<point x="438" y="219" type="curve" smooth="yes"/>
			<point x="438" y="129"/>
			<point x="373" y="66"/>
		</contour>
	</outline>
</glyph>
<glyph name="seven" format="2">
	<advance width="602"/>
	<unicode hex="0037"/>
	<note>
		seven
	</note>
	<outline>
		<contour>
			<point x="131" y="0" type="line"/>
			<point x="194" y="0" type="line" smooth="yes"/>
			<point x="221" y="0"/>
			<point x="235" y="15"/>
			<point x="243" y="32" type="curve" smooth="yes"/>
			<point x="540" y="630" type="line" smooth="yes"/>
			<point x="545" y="641"/>
			<point x="551" y="654"/>
			<point x="551" y="677" type="curve" smooth="yes"/>
			<point x="551" y="717" type="line"/>
			<point x="64" y="717" type="line"/>
			<point x="64" y="656" type="line" smooth="yes"/>
			<point x="64" y="645"/>
			<point x="75" y="634"/>
			<point x="86" y="634" type="curve" smooth="yes"/>
			<point x="460" y="634" type="line"/>
			<point x="449" y="622"/>
			<point x="441" y="608"/>
			<point x="432" y="591" type="curve" smooth="yes"/>
		</contour>
		<contour>
			<point x="64" y="609" type="line"/>
			<point x="101" y="609" type="line"/>
			<point x="101" y="673" type="line"/>
			<point x="64" y="673" type="line"/>
		</contour>
		<component base="SerifUpLeftCaps" xScale="-1" yScale="-1" xOffset="64" yOffset="634"/>
	</outline>
</glyph>
<glyph name="eight" format="2">
	<advance width="582"/>
	<unicode hex="0038"/>
	<note>
		eight
	</note>
	<outline>
		<contour>
			<point x="292" y="-8" type="curve"/>
			<point x="432" y="-8"/>
			<point x="533" y="70"/>
			<point x="533" y="196" type="curve" smooth="yes"/>
			<point x="533" y="288"/>
			<point x="483" y="349"/>
			<point x="394" y="374" type="curve"/>
			<point x="469" y="402"/>
			<point x="508" y="459"/>
			<point x="508" y="536" type="curve" smooth="yes"/>
			<point x="508" y="646"/>
			<point x="417" y="725"/>
			<point x="292" y="725" type="curve" smooth="yes"/>
			<point x="166" y="725"/>
			<point x="75" y="646"/>
			<point x="75" y="536" type="curve" smooth="yes"/>
			<point x="75" y="459"/>
			<point x="114" y="402"/>
			<point x="189" y="374" type="curve"/>
			<point x="100" y="349"/>
			<point x="50" y="288"/>
			<point x="50" y="196" type="curve" smooth="yes"/>
			<point x="50" y="70"/>
			<point x="151" y="-8"/>
		</contour>
		<contour>
			<point x="292" y="63" type="curve"/>
			<point x="201" y="63"/>
			<point x="142" y="116"/>
			<point x="142" y="198" type="curve" smooth="yes"/>
			<point x="142" y="291"/>
			<point x="209" y="336"/>
			<point x="292" y="336" type="curve" smooth="yes"/>
			<point x="376" y="336"/>
			<point x="441" y="291"/>
			<point x="441" y="198" type="curve" smooth="yes"/>
			<point x="441" y="117"/>
			<point x="384" y="63"/>
		</contour>
		<contour>
			<point x="292" y="407" type="curve"/>
			<point x="203" y="407"/>
			<point x="162" y="463"/>
			<point x="162" y="535" type="curve" smooth="yes"/>
			<point x="162" y="606"/>
			<point x="211" y="656"/>
			<point x="292" y="656" type="curve" smooth="yes"/>
			<point x="374" y="656"/>
			<point x="421" y="605"/>
			<point x="421" y="535" type="curve" smooth="yes"/>
			<point x="421" y="464"/>
			<point x="380" y="407"/>
		</contour>
	</outline>
</glyph>
<glyph name="nine" format="2">
	<advance width="549"/>
	<unicode hex="0039"/>
	<note>
		nine
	</note>
	<outline>
		<contour>
			<point x="119" y="0" type="line"/>
			<point x="201" y="0" type="line" smooth="yes"/>
			<point x="222" y="0"/>
			<point x="239" y="9"/>
			<point x="247" y="21" type="curve" smooth="yes"/>
			<point x="422" y="273" type="line" smooth="yes"/>
			<point x="472" y="347"/>
			<point x="505" y="410"/>
			<point x="505" y="493" type="curve" smooth="yes"/>
			<point x="505" y="631"/>
			<point x="416" y="725"/>
			<point x="277" y="725" type="curve" smooth="yes"/>
			<point x="141" y="725"/>
			<point x="40" y="627"/>
			<point x="40" y="500" type="curve" smooth="yes"/>
			<point x="40" y="373"/>
			<point x="130" y="294"/>
			<point x="241" y="294" type="curve" smooth="yes"/>
			<point x="292" y="294"/>
			<point x="339" y="310"/>
			<point x="376" y="339" type="curve"/>
			<point x="364" y="322"/>
			<point x="352" y="305"/>
			<point x="337" y="286" type="curve" smooth="yes"/>
		</contour>
		<contour>
			<point x="270" y="363" type="curve" smooth="yes"/>
			<point x="184" y="363"/>
			<point x="129" y="415"/>
			<point x="129" y="506" type="curve" smooth="yes"/>
			<point x="129" y="591"/>
			<point x="188" y="650"/>
			<point x="276" y="650" type="curve" smooth="yes"/>
			<point x="360" y="650"/>
			<point x="420" y="593"/>
			<point x="420" y="504" type="curve" smooth="yes"/>
			<point x="420" y="425"/>
			<point x="361" y="363"/>
		</contour>
	</outline>
</glyph>
<glyph name="colon" format="1">
  <advance width="212"/>
  <unicode hex="003A"/>
  <note>
    colon
  </note>
  <outline>
    <contour>
      <point x="45" y="54" type="curve"/>
      <point x="45" y="55" type="line"/>
      <point x="45" y="46"/>
      <point x="47" y="38"/>
      <point x="50" y="30" type="curve" smooth="yes"/>
      <point x="53" y="22"/>
      <point x="57" y="16"/>
      <point x="63" y="10" type="curve" smooth="yes"/>
      <point x="69" y="4"/>
      <point x="75" y="1"/>
      <point x="83" y="-2" type="curve" smooth="yes"/>
      <point x="91" y="-5"/>
      <point x="99" y="-7"/>
      <point x="107" y="-7" type="curve" smooth="yes"/>
      <point x="115" y="-7"/>
      <point x="123" y="-5"/>
      <point x="131" y="-2" type="curve" smooth="yes"/>
      <point x="139" y="1"/>
      <point x="144" y="4"/>
      <point x="150" y="10" type="curve" smooth="yes"/>
      <point x="156" y="16"/>
      <point x="160" y="22"/>
      <point x="163" y="30" type="curve" smooth="yes"/>
      <point x="166" y="38"/>
      <point x="167" y="45"/>
      <point x="167" y="54" type="curve" smooth="yes"/>
      <point x="167" y="62"/>
      <point x="166" y="70"/>
      <point x="163" y="78" type="curve" smooth="yes"/>
      <point x="160" y="86"/>
      <point x="156" y="92"/>
      <point x="150" y="98" type="curve" smooth="yes"/>
      <point x="144" y="104"/>
      <point x="139" y="108"/>
      <point x="131" y="112" type="curve" smooth="yes"/>
      <point x="123" y="116"/>
      <point x="115" y="116"/>
      <point x="107" y="116" type="curve" smooth="yes"/>
      <point x="99" y="116"/>
      <point x="91" y="116"/>
      <point x="83" y="112" type="curve" smooth="yes"/>
      <point x="75" y="108"/>
      <point x="69" y="104"/>
      <point x="63" y="98" type="curve" smooth="yes"/>
      <point x="57" y="92"/>
      <point x="53" y="86"/>
      <point x="50" y="78" type="curve" smooth="yes"/>
      <point x="47" y="70"/>
      <point x="45" y="62"/>
    </contour>
    <contour>
      <point x="45" y="429" type="curve"/>
      <point x="45" y="430" type="line"/>
      <point x="45" y="421"/>
      <point x="47" y="412"/>
      <point x="50" y="404" type="curve" smooth="yes"/>
      <point x="53" y="396"/>
      <point x="57" y="391"/>
      <point x="63" y="385" type="curve" smooth="yes"/>
      <point x="69" y="379"/>
      <point x="75" y="375"/>
      <point x="83" y="372" type="curve" smooth="yes"/>
      <point x="91" y="369"/>
      <point x="99" y="368"/>
      <point x="107" y="368" type="curve" smooth="yes"/>
      <point x="115" y="368"/>
      <point x="123" y="369"/>
      <point x="131" y="372" type="curve" smooth="yes"/>
      <point x="139" y="375"/>
      <point x="144" y="379"/>
      <point x="150" y="385" type="curve" smooth="yes"/>
      <point x="156" y="391"/>
      <point x="160" y="396"/>
      <point x="163" y="404" type="curve" smooth="yes"/>
      <point x="166" y="412"/>
      <point x="167" y="420"/>
      <point x="167" y="429" type="curve" smooth="yes"/>
      <point x="167" y="437"/>
      <point x="166" y="445"/>
      <point x="163" y="453" type="curve" smooth="yes"/>
      <point x="160" y="461"/>
      <point x="156" y="466"/>
      <point x="150" y="472" type="curve" smooth="yes"/>
      <point x="144" y="478"/>
      <point x="139" y="482"/>
      <point x="131" y="486" type="curve" smooth="yes"/>
      <point x="123" y="490"/>
      <point x="115" y="491"/>
      <point x="107" y="491" type="curve" smooth="yes"/>
      <point x="99" y="491"/>
      <point x="91" y="490"/>
      <point x="83" y="486" type="curve" smooth="yes"/>
      <point x="75" y="482"/>
      <point x="69" y="478"/>
      <point x="63" y="472" type="curve" smooth="yes"/>
      <point x="57" y="466"/>
      <point x="53" y="461"/>
      <point x="50" y="453" type="curve" smooth="yes"/>
      <point x="47" y="445"/>
      <point x="45" y="437"/>
    </contour>
  </outline>
</glyph>
<glyph name="semicolon" format="2">
	<advance width="215"/>
	<unicode hex="003B"/>
	<note>
		semicolon
	</note>
	<outline>
		<contour>
			<point x="107" y="368" type="curve" smooth="yes"/>
			<point x="142" y="368"/>
			<point x="170" y="394"/>
			<point x="170" y="430" type="curve" smooth="yes"/>
			<point x="170" y="465"/>
			<point x="142" y="493"/>
			<point x="107" y="493" type="curve" smooth="yes"/>
			<point x="73" y="493"/>
			<point x="45" y="465"/>
			<point x="45" y="430" type="curve" smooth="yes"/>
			<point x="45" y="394"/>
			<point x="73" y="368"/>
		</contour>
		<component base="comma" xOffset="1"/>
	</outline>
</glyph>
<glyph name="less" format="1">
  <advance width="477"/>
  <unicode hex="003C"/>
  <note>
    less
  </note>
  <outline>
    <contour>
      <point x="443" y="555" type="line"/>
      <point x="55" y="355" type="line"/>
      <point x="55" y="318" type="line"/>
      <point x="443" y="117" type="line"/>
      <point x="443" y="181" type="line" smooth="yes"/>
      <point x="443" y="187"/>
      <point x="441" y="192"/>
      <point x="439" y="196" type="curve" smooth="yes"/>
      <point x="437" y="200"/>
      <point x="431" y="204"/>
      <point x="425" y="208" type="curve"/>
      <point x="201" y="322" type="line"/>
      <point x="195" y="326"/>
      <point x="187" y="328"/>
      <point x="179" y="330" type="curve" smooth="yes"/>
      <point x="155" y="336" type="line"/>
      <point x="163" y="338"/>
      <point x="171" y="341"/>
      <point x="179" y="343" type="curve" smooth="yes"/>
      <point x="187" y="345"/>
      <point x="195" y="348"/>
      <point x="201" y="352" type="curve"/>
      <point x="425" y="466" type="line"/>
      <point x="431" y="470"/>
      <point x="437" y="473"/>
      <point x="439" y="477" type="curve" smooth="yes"/>
      <point x="441" y="481"/>
      <point x="443" y="486"/>
      <point x="443" y="492" type="curve" smooth="yes"/>
    </contour>
  </outline>
</glyph>
<glyph name="equal" format="1">
  <advance width="566"/>
  <unicode hex="003D"/>
  <note>
    equal
  </note>
  <outline>
    <contour>
      <point x="498" y="287" type="line"/>
      <point x="68" y="287" type="line"/>
      <point x="68" y="220" type="line"/>
      <point x="498" y="220" type="line"/>
    </contour>
    <contour>
      <point x="498" y="454" type="line"/>
      <point x="68" y="454" type="line"/>
      <point x="68" y="387" type="line"/>
      <point x="498" y="387" type="line"/>
    </contour>
  </outline>
</glyph>
<glyph name="question" format="1">
  <advance width="435"/>
  <unicode hex="003F"/>
  <note>
    question
  </note>
  <outline>
    <contour>
      <point x="33" y="654" type="curve"/>
      <point x="37" y="652" type="line"/>
      <point x="60" y="615" type="line"/>
      <point x="64" y="607"/>
      <point x="71" y="604"/>
      <point x="79" y="604" type="curve" smooth="yes"/>
      <point x="83" y="604"/>
      <point x="89" y="606"/>
      <point x="95" y="611" type="curve" smooth="yes"/>
      <point x="101" y="616"/>
      <point x="109" y="622"/>
      <point x="119" y="628" type="curve" smooth="yes"/>
      <point x="129" y="634"/>
      <point x="141" y="639"/>
      <point x="155" y="644" type="curve" smooth="yes"/>
      <point x="169" y="649"/>
      <point x="187" y="652"/>
      <point x="207" y="652" type="curve" smooth="yes"/>
      <point x="222" y="652"/>
      <point x="236" y="649"/>
      <point x="249" y="645" type="curve" smooth="yes"/>
      <point x="262" y="641"/>
      <point x="273" y="634"/>
      <point x="283" y="626" type="curve" smooth="yes"/>
      <point x="293" y="618"/>
      <point x="300" y="608"/>
      <point x="306" y="596" type="curve" smooth="yes"/>
      <point x="312" y="584"/>
      <point x="315" y="572"/>
      <point x="315" y="558" type="curve" smooth="yes"/>
      <point x="315" y="538"/>
      <point x="311" y="520"/>
      <point x="303" y="506" type="curve" smooth="yes"/>
      <point x="295" y="492"/>
      <point x="287" y="478"/>
      <point x="275" y="466" type="curve" smooth="yes"/>
      <point x="263" y="454"/>
      <point x="250" y="445"/>
      <point x="237" y="435" type="curve" smooth="yes"/>
      <point x="224" y="425"/>
      <point x="213" y="416"/>
      <point x="201" y="406" type="curve" smooth="yes"/>
      <point x="189" y="396"/>
      <point x="180" y="387"/>
      <point x="172" y="376" type="curve" smooth="yes"/>
      <point x="164" y="365"/>
      <point x="161" y="352"/>
      <point x="161" y="338" type="curve" smooth="yes"/>
      <point x="161" y="333" type="line"/>
      <point x="167" y="250" type="line"/>
      <point x="227" y="250" type="line"/>
      <point x="237" y="326" type="line"/>
      <point x="239" y="337"/>
      <point x="243" y="347"/>
      <point x="251" y="356" type="curve" smooth="yes"/>
      <point x="259" y="365"/>
      <point x="270" y="375"/>
      <point x="282" y="384" type="curve" smooth="yes"/>
      <point x="294" y="393"/>
      <point x="306" y="402"/>
      <point x="320" y="412" type="curve" smooth="yes"/>
      <point x="334" y="422"/>
      <point x="345" y="434"/>
      <point x="357" y="448" type="curve" smooth="yes"/>
      <point x="369" y="462"/>
      <point x="378" y="478"/>
      <point x="386" y="496" type="curve" smooth="yes"/>
      <point x="394" y="514"/>
      <point x="397" y="536"/>
      <point x="397" y="562" type="curve" smooth="yes"/>
      <point x="397" y="587"/>
      <point x="393" y="610"/>
      <point x="383" y="630" type="curve" smooth="yes"/>
      <point x="373" y="650"/>
      <point x="360" y="667"/>
      <point x="344" y="681" type="curve" smooth="yes"/>
      <point x="328" y="695"/>
      <point x="307" y="706"/>
      <point x="285" y="714" type="curve" smooth="yes"/>
      <point x="263" y="722"/>
      <point x="238" y="725"/>
      <point x="212" y="725" type="curve" smooth="yes"/>
      <point x="192" y="725"/>
      <point x="174" y="723"/>
      <point x="157" y="719" type="curve" smooth="yes"/>
      <point x="140" y="715"/>
      <point x="124" y="709"/>
      <point x="109" y="703" type="curve" smooth="yes"/>
      <point x="94" y="697"/>
      <point x="79" y="688"/>
      <point x="67" y="680" type="curve" smooth="yes"/>
      <point x="55" y="672"/>
      <point x="43" y="664"/>
    </contour>
    <contour>
      <point x="131" y="56" type="curve" smooth="yes"/>
      <point x="131" y="47"/>
      <point x="132" y="39"/>
      <point x="135" y="31" type="curve" smooth="yes"/>
      <point x="138" y="23"/>
      <point x="143" y="18"/>
      <point x="149" y="12" type="curve" smooth="yes"/>
      <point x="155" y="6"/>
      <point x="160" y="1"/>
      <point x="168" y="-2" type="curve" smooth="yes"/>
      <point x="176" y="-5"/>
      <point x="184" y="-6"/>
      <point x="192" y="-6" type="curve" smooth="yes"/>
      <point x="200" y="-6"/>
      <point x="208" y="-5"/>
      <point x="216" y="-2" type="curve" smooth="yes"/>
      <point x="224" y="1"/>
      <point x="229" y="6"/>
      <point x="235" y="12" type="curve" smooth="yes"/>
      <point x="241" y="18"/>
      <point x="246" y="23"/>
      <point x="249" y="31" type="curve" smooth="yes"/>
      <point x="252" y="39"/>
      <point x="253" y="47"/>
      <point x="253" y="56" type="curve" smooth="yes"/>
      <point x="253" y="64"/>
      <point x="252" y="72"/>
      <point x="249" y="80" type="curve" smooth="yes"/>
      <point x="246" y="88"/>
      <point x="241" y="93"/>
      <point x="235" y="99" type="curve" smooth="yes"/>
      <point x="229" y="105"/>
      <point x="224" y="108"/>
      <point x="216" y="112" type="curve" smooth="yes"/>
      <point x="208" y="116"/>
      <point x="200" y="118"/>
      <point x="192" y="118" type="curve" smooth="yes"/>
      <point x="184" y="118"/>
      <point x="176" y="116"/>
      <point x="168" y="112" type="curve" smooth="yes"/>
      <point x="160" y="108"/>
      <point x="155" y="105"/>
      <point x="149" y="99" type="curve" smooth="yes"/>
      <point x="143" y="93"/>
      <point x="138" y="88"/>
      <point x="135" y="80" type="curve" smooth="yes"/>
      <point x="132" y="72"/>
      <point x="131" y="64"/>
    </contour>
  </outline>
</glyph>
<glyph name="at" format="2">
	<advance width="799"/>
	<unicode hex="0040"/>
	<note>
		at
	</note>
	<outline>
		<contour>
			<point x="438" y="-120" type="curve" smooth="yes"/>
			<point x="553" y="-120"/>
			<point x="643" y="-91"/>
			<point x="714" y="-43" type="curve"/>
			<point x="702" y="-10" type="line" smooth="yes"/>
			<point x="699" y="-1"/>
			<point x="693" y="3"/>
			<point x="686" y="3" type="curve" smooth="yes"/>
			<point x="682" y="3"/>
			<point x="678" y="1"/>
			<point x="673" y="-2" type="curve" smooth="yes"/>
			<point x="616" y="-37"/>
			<point x="539" y="-61"/>
			<point x="438" y="-61" type="curve" smooth="yes"/>
			<point x="342" y="-61"/>
			<point x="258" y="-32"/>
			<point x="196" y="27" type="curve" smooth="yes"/>
			<point x="134" y="86"/>
			<point x="96" y="171"/>
			<point x="96" y="284" type="curve" smooth="yes"/>
			<point x="96" y="381"/>
			<point x="132" y="465"/>
			<point x="190" y="525" type="curve" smooth="yes"/>
			<point x="248" y="585"/>
			<point x="328" y="621"/>
			<point x="417" y="621" type="curve" smooth="yes"/>
			<point x="498" y="621"/>
			<point x="570" y="598"/>
			<point x="622" y="552" type="curve" smooth="yes"/>
			<point x="674" y="506"/>
			<point x="705" y="436"/>
			<point x="705" y="344" type="curve" smooth="yes"/>
			<point x="705" y="238"/>
			<point x="655" y="150"/>
			<point x="584" y="150" type="curve" smooth="yes"/>
			<point x="548" y="150"/>
			<point x="527" y="165"/>
			<point x="527" y="210" type="curve" smooth="yes"/>
			<point x="527" y="226"/>
			<point x="530" y="247"/>
			<point x="537" y="272" type="curve" smooth="yes"/>
			<point x="583" y="452" type="line"/>
			<point x="554" y="465"/>
			<point x="521" y="473"/>
			<point x="477" y="473" type="curve" smooth="yes"/>
			<point x="321" y="473"/>
			<point x="222" y="354"/>
			<point x="222" y="230" type="curve" smooth="yes"/>
			<point x="222" y="152"/>
			<point x="262" y="94"/>
			<point x="340" y="94" type="curve" smooth="yes"/>
			<point x="392" y="94"/>
			<point x="437" y="115"/>
			<point x="476" y="170" type="curve"/>
			<point x="485" y="118"/>
			<point x="519" y="93"/>
			<point x="571" y="93" type="curve" smooth="yes"/>
			<point x="688" y="93"/>
			<point x="769" y="206"/>
			<point x="769" y="344" type="curve" smooth="yes"/>
			<point x="769" y="439"/>
			<point x="736" y="527"/>
			<point x="662" y="592" type="curve" smooth="yes"/>
			<point x="596" y="650"/>
			<point x="507" y="680"/>
			<point x="417" y="680" type="curve" smooth="yes"/>
			<point x="318" y="680"/>
			<point x="215" y="639"/>
			<point x="143" y="564" type="curve" smooth="yes"/>
			<point x="71" y="488"/>
			<point x="30" y="388"/>
			<point x="30" y="284" type="curve" smooth="yes"/>
			<point x="30" y="157"/>
			<point x="75" y="56"/>
			<point x="148" y="-13" type="curve" smooth="yes"/>
			<point x="220" y="-82"/>
			<point x="322" y="-120"/>
		</contour>
		<contour>
			<point x="358" y="153" type="curve"/>
			<point x="314" y="153"/>
			<point x="292" y="185"/>
			<point x="292" y="233" type="curve" smooth="yes"/>
			<point x="292" y="326"/>
			<point x="366" y="416"/>
			<point x="463" y="416" type="curve" smooth="yes"/>
			<point x="478" y="416"/>
			<point x="492" y="414"/>
			<point x="505" y="411" type="curve"/>
			<point x="467" y="264" type="line" smooth="yes"/>
			<point x="448" y="186"/>
			<point x="406" y="153"/>
		</contour>
	</outline>
</glyph>
<glyph name="A" format="2">
	<advance width="756"/>
	<unicode hex="0041"/>
	<anchor x="636" y="2" name="ogonek"/>
	<anchor x="378" y="0" name="bottom"/>
	<anchor x="378" y="717" name="top"/>
	<note>
		A
	</note>
	<outline>
		<contour>
			<point x="42" y="0" type="line"/>
			<point x="117" y="0" type="line" smooth="yes"/>
			<point x="134" y="0"/>
			<point x="146" y="11"/>
			<point x="150" y="23" type="curve"/>
			<point x="357" y="557" type="line" smooth="yes"/>
			<point x="364" y="576"/>
			<point x="370" y="598"/>
			<point x="378" y="625" type="curve"/>
			<point x="385" y="598"/>
			<point x="392" y="576"/>
			<point x="399" y="558" type="curve" smooth="yes"/>
			<point x="606" y="23" type="line"/>
			<point x="611" y="10"/>
			<point x="622" y="0"/>
			<point x="639" y="0" type="curve" smooth="yes"/>
			<point x="714" y="0" type="line"/>
			<point x="427" y="717" type="line"/>
			<point x="329" y="717" type="line"/>
		</contour>
		<contour>
			<point x="116" y="0" type="line"/>
			<point x="169" y="0" type="line"/>
			<point x="169" y="62" type="line"/>
			<point x="116" y="62" type="line"/>
		</contour>
		<contour>
			<point x="205" y="212" type="line"/>
			<point x="554" y="212" type="line"/>
			<point x="527" y="282" type="line"/>
			<point x="232" y="282" type="line"/>
		</contour>
		<contour>
			<point x="590" y="0" type="line"/>
			<point x="643" y="0" type="line"/>
			<point x="643" y="62" type="line"/>
			<point x="590" y="62" type="line"/>
		</contour>
		<component base="SerifBottomLeft" xOffset="85"/>
		<component base="SerifBottomRight" xOffset="150"/>
		<component base="SerifBottomLeft" xOffset="606"/>
		<component base="SerifBottomRight" xOffset="671"/>
	</outline>
</glyph>
<glyph name="B" format="2">
	<advance width="640"/>
	<unicode hex="0042"/>
	<anchor x="320" y="737" name="top"/>
	<anchor x="320" y="0" name="bottom"/>
	<note>
		B
	</note>
	<outline>
		<contour>
			<point x="105" y="0" type="line"/>
			<point x="359" y="0" type="line" smooth="yes"/>
			<point x="512" y="0"/>
			<point x="610" y="78"/>
			<point x="610" y="204" type="curve" smooth="yes"/>
			<point x="610" y="293"/>
			<point x="556" y="348"/>
			<point x="452" y="369" type="curve"/>
			<point x="539" y="394"/>
			<point x="586" y="456"/>
			<point x="586" y="530" type="curve" smooth="yes"/>
			<point x="586" y="654"/>
			<point x="499" y="717"/>
			<point x="334" y="717" type="curve" smooth="yes"/>
			<point x="105" y="717" type="line"/>
		</contour>
		<contour>
			<point x="202" y="77" type="line"/>
			<point x="202" y="327" type="line"/>
			<point x="357" y="327" type="line" smooth="yes"/>
			<point x="462" y="327"/>
			<point x="515" y="280"/>
			<point x="515" y="207" type="curve" smooth="yes"/>
			<point x="515" y="125"/>
			<point x="461" y="77"/>
			<point x="357" y="77" type="curve" smooth="yes"/>
		</contour>
		<contour>
			<point x="202" y="396" type="line"/>
			<point x="202" y="640" type="line"/>
			<point x="334" y="640" type="line" smooth="yes"/>
			<point x="441" y="640"/>
			<point x="490" y="602"/>
			<point x="490" y="518" type="curve" smooth="yes"/>
			<point x="490" y="441"/>
			<point x="432" y="396"/>
			<point x="330" y="396" type="curve" smooth="yes"/>
		</contour>
		<component base="SerifBottomLeft" xOffset="105"/>
		<component base="SerifSpurLeft" xOffset="105" yOffset="717"/>
	</outline>
</glyph>
<glyph name="C" format="1">
  <advance width="682"/>
  <unicode hex="0043"/>
  <note>
    C
  </note>
  <outline>
    <contour>
      <point x="629" y="674" type="line"/>
      <point x="537" y="708"/>
      <point x="464" y="725"/>
      <point x="409" y="724" type="curve"/>
      <point x="299" y="724"/>
      <point x="209" y="690"/>
      <point x="143" y="622" type="curve" smooth="yes"/>
      <point x="77" y="554"/>
      <point x="43" y="466"/>
      <point x="43" y="358" type="curve" smooth="yes"/>
      <point x="43" y="149"/>
      <point x="172" y="-8"/>
      <point x="385" y="-8" type="curve" smooth="yes"/>
      <point x="495" y="-8"/>
      <point x="581" y="28"/>
      <point x="643" y="100" type="curve"/>
      <point x="605" y="142" type="line"/>
      <point x="598" y="149"/>
      <point x="587" y="152"/>
      <point x="573" y="140" type="curve"/>
      <point x="520" y="91"/>
      <point x="464" y="76"/>
      <point x="390" y="76" type="curve" smooth="yes"/>
      <point x="238" y="76"/>
      <point x="141" y="192"/>
      <point x="141" y="358" type="curve" smooth="yes"/>
      <point x="141" y="444"/>
      <point x="166" y="513"/>
      <point x="214" y="565" type="curve" smooth="yes"/>
      <point x="290" y="645"/>
      <point x="401" y="662"/>
      <point x="551" y="614" type="curve"/>
      <point x="559" y="524" type="line"/>
      <point x="561" y="512"/>
      <point x="569" y="506"/>
      <point x="581" y="506" type="curve" smooth="yes"/>
      <point x="629" y="506" type="line"/>
    </contour>
    <contour>
      <point x="339" y="0" type="move" name="bottom"/>
    </contour>
    <contour>
      <point x="389" y="716" type="move" name="top"/>
    </contour>
  </outline>
</glyph>
<glyph name="D" format="1">
  <advance width="783"/>
  <unicode hex="0044"/>
  <note>
    D
  </note>
  <outline>
    <contour>
      <point x="740" y="358" type="curve" smooth="yes"/>
      <point x="740" y="568"/>
      <point x="605" y="716"/>
      <point x="387" y="716" type="curve" smooth="yes"/>
      <point x="56" y="716" type="line"/>
      <point x="56" y="674" type="line" smooth="yes"/>
      <point x="56" y="664"/>
      <point x="62" y="657"/>
      <point x="72" y="655" type="curve"/>
      <point x="128" y="643" type="line"/>
      <point x="128" y="72" type="line"/>
      <point x="72" y="61" type="line" smooth="yes"/>
      <point x="62" y="59"/>
      <point x="56" y="52"/>
      <point x="56" y="42" type="curve" smooth="yes"/>
      <point x="56" y="0" type="line"/>
      <point x="387" y="0" type="line" smooth="yes"/>
      <point x="600" y="0"/>
      <point x="740" y="145"/>
    </contour>
    <contour>
      <point x="640" y="358" type="curve" smooth="yes"/>
      <point x="640" y="187"/>
      <point x="549" y="78"/>
      <point x="387" y="78" type="curve" smooth="yes"/>
      <point x="226" y="78" type="line"/>
      <point x="226" y="638" type="line"/>
      <point x="387" y="638" type="line" smooth="yes"/>
      <point x="551" y="638"/>
      <point x="640" y="525"/>
    </contour>
    <contour>
      <point x="394" y="0" type="move" name="bottom"/>
    </contour>
    <contour>
      <point x="394" y="358" type="move" name="center"/>
    </contour>
    <contour>
      <point x="394" y="716" type="move" name="top"/>
    </contour>
  </outline>
</glyph>
<glyph name="E" format="1">
  <advance width="615"/>
  <unicode hex="0045"/>
  <note>
    E
  </note>
  <outline>
    <contour>
      <point x="570" y="716" type="line"/>
      <point x="56" y="716" type="line"/>
      <point x="56" y="674" type="line" smooth="yes"/>
      <point x="56" y="664"/>
      <point x="61" y="657"/>
      <point x="71" y="655" type="curve"/>
      <point x="77" y="653"/>
      <point x="96" y="649"/>
      <point x="128" y="643" type="curve"/>
      <point x="128" y="72" type="line"/>
      <point x="71" y="61" type="line" smooth="yes"/>
      <point x="61" y="59"/>
      <point x="56" y="52"/>
      <point x="56" y="42" type="curve" smooth="yes"/>
      <point x="56" y="0" type="line"/>
      <point x="570" y="0" type="line"/>
      <point x="570" y="166" type="line"/>
      <point x="522" y="166" type="line" smooth="yes"/>
      <point x="510" y="166"/>
      <point x="502" y="162"/>
      <point x="500" y="150" type="curve"/>
      <point x="500" y="147"/>
      <point x="498" y="122"/>
      <point x="494" y="78" type="curve"/>
      <point x="226" y="78" type="line"/>
      <point x="226" y="323" type="line"/>
      <point x="490" y="323" type="line"/>
      <point x="490" y="399" type="line"/>
      <point x="226" y="399" type="line"/>
      <point x="226" y="637" type="line"/>
      <point x="494" y="637" type="line"/>
      <point x="498" y="589"/>
      <point x="501" y="563"/>
      <point x="501" y="560" type="curve"/>
      <point x="503" y="548"/>
      <point x="510" y="543"/>
      <point x="522" y="543" type="curve" smooth="yes"/>
      <point x="570" y="543" type="line"/>
    </contour>
    <contour>
      <point x="316" y="0" type="move" name="bottom"/>
    </contour>
    <contour>
      <point x="550" y="10" type="move" name="ogonek"/>
    </contour>
    <contour>
      <point x="316" y="716" type="move" name="top"/>
    </contour>
    <contour>
      <point x="42" y="716" type="move" name="topleft"/>
    </contour>
  </outline>
</glyph>
<glyph name="F" format="1">
  <advance width="637"/>
  <unicode hex="0046"/>
  <note>
    F
  </note>
  <outline>
    <contour>
      <point x="587" y="716" type="line"/>
      <point x="128" y="716" type="line"/>
      <point x="56" y="716" type="line"/>
      <point x="56" y="674" type="line" smooth="yes"/>
      <point x="56" y="664"/>
      <point x="61" y="657"/>
      <point x="71" y="655" type="curve"/>
      <point x="77" y="653"/>
      <point x="96" y="649"/>
      <point x="128" y="643" type="curve"/>
      <point x="128" y="72" type="line"/>
      <point x="71" y="61" type="line" smooth="yes"/>
      <point x="61" y="59"/>
      <point x="56" y="52"/>
      <point x="56" y="42" type="curve" smooth="yes"/>
      <point x="56" y="0" type="line"/>
      <point x="298" y="0" type="line"/>
      <point x="298" y="42" type="line" smooth="yes"/>
      <point x="298" y="52"/>
      <point x="292" y="59"/>
      <point x="282" y="61" type="curve" smooth="yes"/>
      <point x="252" y="67"/>
      <point x="234" y="70"/>
      <point x="226" y="72" type="curve"/>
      <point x="226" y="308" type="line"/>
      <point x="498" y="308" type="line"/>
      <point x="498" y="386" type="line"/>
      <point x="226" y="386" type="line"/>
      <point x="226" y="637" type="line"/>
      <point x="510" y="637" type="line"/>
      <point x="514" y="589"/>
      <point x="518" y="563"/>
      <point x="518" y="560" type="curve"/>
      <point x="520" y="548"/>
      <point x="526" y="543"/>
      <point x="538" y="543" type="curve" smooth="yes"/>
      <point x="587" y="543" type="line"/>
    </contour>
    <contour>
      <point x="314" y="0" type="move" name="bottom"/>
    </contour>
    <contour>
      <point x="314" y="716" type="move" name="top"/>
    </contour>
  </outline>
</glyph>
<glyph name="G" format="1">
  <advance width="744"/>
  <unicode hex="0047"/>
  <note>
    G
  </note>
  <outline>
    <contour>
      <point x="405" y="70" type="curve" smooth="yes"/>
      <point x="327" y="70"/>
      <point x="264" y="96"/>
      <point x="216" y="146" type="curve" smooth="yes"/>
      <point x="167" y="198"/>
      <point x="143" y="268"/>
      <point x="143" y="358" type="curve" smooth="yes"/>
      <point x="143" y="444"/>
      <point x="166" y="513"/>
      <point x="214" y="564" type="curve" smooth="yes"/>
      <point x="237" y="588"/>
      <point x="265" y="607"/>
      <point x="297" y="620" type="curve" smooth="yes"/>
      <point x="329" y="633"/>
      <point x="371" y="640"/>
      <point x="419" y="640" type="curve" smooth="yes"/>
      <point x="467" y="640"/>
      <point x="510" y="634"/>
      <point x="548" y="624" type="curve"/>
      <point x="558" y="622"/>
      <point x="569" y="618"/>
      <point x="585" y="613" type="curve"/>
      <point x="589" y="557"/>
      <point x="593" y="527"/>
      <point x="593" y="522" type="curve"/>
      <point x="595" y="510"/>
      <point x="602" y="506"/>
      <point x="614" y="506" type="curve" smooth="yes"/>
      <point x="662" y="506" type="line"/>
      <point x="662" y="672" type="line"/>
      <point x="571" y="706"/>
      <point x="487" y="724"/>
      <point x="409" y="724" type="curve" smooth="yes"/>
      <point x="297" y="724"/>
      <point x="208" y="690"/>
      <point x="141" y="622" type="curve" smooth="yes"/>
      <point x="75" y="556"/>
      <point x="43" y="468"/>
      <point x="43" y="358" type="curve" smooth="yes"/>
      <point x="43" y="250"/>
      <point x="76" y="161"/>
      <point x="142" y="93" type="curve" smooth="yes"/>
      <point x="208" y="25"/>
      <point x="293" y="-8"/>
      <point x="397" y="-8" type="curve" smooth="yes"/>
      <point x="507" y="-8"/>
      <point x="597" y="17"/>
      <point x="669" y="69" type="curve"/>
      <point x="669" y="344" type="line"/>
      <point x="449" y="344" type="line"/>
      <point x="449" y="289" type="line" smooth="yes"/>
      <point x="449" y="283"/>
      <point x="451" y="280"/>
      <point x="455" y="276" type="curve" smooth="yes"/>
      <point x="459" y="272"/>
      <point x="465" y="270"/>
      <point x="471" y="270" type="curve" smooth="yes"/>
      <point x="582" y="270" type="line"/>
      <point x="582" y="112" type="line"/>
      <point x="529" y="84"/>
      <point x="471" y="70"/>
    </contour>
    <contour>
      <point x="363" y="0" type="move" name="bottom"/>
    </contour>
    <contour>
      <point x="363" y="716" type="move" name="top"/>
    </contour>
  </outline>
</glyph>
<glyph name="H" format="2">
	<advance width="792"/>
	<unicode hex="0048"/>
	<anchor x="396" y="361" name="center"/>
	<anchor x="396" y="717" name="top"/>
	<anchor x="47" y="717" name="topleft"/>
	<anchor x="396" y="0" name="bottom"/>
	<note>
		H
	</note>
	<outline>
		<contour>
			<point x="105" y="0" type="line"/>
			<point x="203" y="0" type="line"/>
			<point x="203" y="326" type="line"/>
			<point x="589" y="326" type="line"/>
			<point x="589" y="0" type="line"/>
			<point x="687" y="0" type="line"/>
			<point x="687" y="717" type="line"/>
			<point x="589" y="717" type="line"/>
			<point x="589" y="397" type="line"/>
			<point x="203" y="397" type="line"/>
			<point x="203" y="717" type="line"/>
			<point x="105" y="717" type="line"/>
		</contour>
		<component base="SerifBottomLeft" xOffset="105"/>
		<component base="SerifBottomRight" xOffset="203"/>
		<component base="SerifSpurLeft" xOffset="105" yOffset="717"/>
		<component base="SerifSpurRight" xOffset="203" yOffset="717"/>
		<component base="SerifBottomLeft" xOffset="588"/>
		<component base="SerifBottomRight" xOffset="687"/>
		<component base="SerifSpurLeft" xOffset="588" yOffset="717"/>
		<component base="SerifSpurRight" xOffset="687" yOffset="717"/>
	</outline>
</glyph>
<glyph name="I" format="2">
	<advance width="308"/>
	<unicode hex="0049"/>
	<anchor x="148" y="2" name="ogonek"/>
	<anchor x="154" y="0" name="bottom"/>
	<anchor x="154" y="729" name="top"/>
	<note>
		I
	</note>
	<outline>
		<contour>
			<point x="105" y="0" type="line"/>
			<point x="202" y="0" type="line"/>
			<point x="202" y="717" type="line"/>
			<point x="105" y="717" type="line"/>
		</contour>
		<component base="SerifBottomLeft" xOffset="105"/>
		<component base="SerifBottomRight" xOffset="203"/>
		<component base="SerifSpurLeft" xOffset="105" yOffset="717"/>
		<component base="SerifSpurRight" xOffset="203" yOffset="717"/>
	</outline>
</glyph>
<glyph name="J" format="1">
  <advance width="423"/>
  <unicode hex="004A"/>
  <note>
    J
  </note>
  <outline>
    <contour>
      <point x="92" y="72" type="curve"/>
      <point x="92" y="73" type="line"/>
      <point x="76" y="73"/>
      <point x="62" y="75"/>
      <point x="52" y="78" type="curve" smooth="yes"/>
      <point x="42" y="81"/>
      <point x="34" y="82"/>
      <point x="28" y="82" type="curve" smooth="yes"/>
      <point x="22" y="82"/>
      <point x="16" y="80"/>
      <point x="12" y="76" type="curve" smooth="yes"/>
      <point x="8" y="72"/>
      <point x="4" y="48"/>
      <point x="1" y="6" type="curve"/>
      <point x="36" y="-4"/>
      <point x="71" y="-8"/>
      <point x="105" y="-8" type="curve" smooth="yes"/>
      <point x="139" y="-8"/>
      <point x="170" y="-2"/>
      <point x="198" y="10" type="curve" smooth="yes"/>
      <point x="284" y="46"/>
      <point x="328" y="125"/>
      <point x="328" y="248" type="curve" smooth="yes"/>
      <point x="328" y="644" type="line"/>
      <point x="384" y="655" type="line" smooth="yes"/>
      <point x="394" y="657"/>
      <point x="400" y="664"/>
      <point x="400" y="674" type="curve" smooth="yes"/>
      <point x="400" y="716" type="line"/>
      <point x="150" y="716" type="line"/>
      <point x="150" y="674" type="line" smooth="yes"/>
      <point x="150" y="664"/>
      <point x="154" y="657"/>
      <point x="164" y="655" type="curve"/>
      <point x="170" y="653"/>
      <point x="193" y="649"/>
      <point x="231" y="643" type="curve"/>
      <point x="231" y="245" type="line" smooth="yes"/>
      <point x="231" y="130"/>
      <point x="184" y="72"/>
    </contour>
    <contour>
      <point x="195" y="0" type="move" name="bottom"/>
    </contour>
    <contour>
      <point x="195" y="716" type="move" name="top"/>
    </contour>
  </outline>
</glyph>
<glyph name="K" format="1">
  <advance width="708"/>
  <unicode hex="004B"/>
  <note>
    K
  </note>
  <outline>
    <contour>
      <point x="692" y="60" type="curve"/>
      <point x="693" y="59" type="line"/>
      <point x="687" y="61"/>
      <point x="670" y="64"/>
      <point x="642" y="70" type="curve"/>
      <point x="415" y="340" type="line" smooth="yes"/>
      <point x="399" y="360"/>
      <point x="383" y="372"/>
      <point x="369" y="376" type="curve"/>
      <point x="381" y="382"/>
      <point x="394" y="392"/>
      <point x="408" y="408" type="curve" smooth="yes"/>
      <point x="621" y="649" type="line"/>
      <point x="647" y="655"/>
      <point x="661" y="659"/>
      <point x="667" y="661" type="curve"/>
      <point x="677" y="663"/>
      <point x="683" y="670"/>
      <point x="683" y="680" type="curve"/>
      <point x="681" y="718" type="line"/>
      <point x="455" y="718" type="line"/>
      <point x="455" y="678" type="line" smooth="yes"/>
      <point x="455" y="668"/>
      <point x="459" y="662"/>
      <point x="469" y="660" type="curve" smooth="yes"/>
      <point x="475" y="659"/>
      <point x="489" y="656"/>
      <point x="513" y="652" type="curve"/>
      <point x="313" y="424" type="line" smooth="yes"/>
      <point x="301" y="410"/>
      <point x="283" y="404"/>
      <point x="261" y="404" type="curve" smooth="yes"/>
      <point x="225" y="404" type="line"/>
      <point x="225" y="644" type="line"/>
      <point x="233" y="646"/>
      <point x="251" y="650"/>
      <point x="281" y="656" type="curve" smooth="yes"/>
      <point x="291" y="658"/>
      <point x="297" y="665"/>
      <point x="297" y="675" type="curve" smooth="yes"/>
      <point x="297" y="718" type="line"/>
      <point x="56" y="718" type="line"/>
      <point x="56" y="675" type="line" smooth="yes"/>
      <point x="56" y="665"/>
      <point x="61" y="658"/>
      <point x="71" y="656" type="curve"/>
      <point x="77" y="654"/>
      <point x="96" y="650"/>
      <point x="128" y="644" type="curve"/>
      <point x="128" y="74" type="line"/>
      <point x="71" y="62" type="line" smooth="yes"/>
      <point x="61" y="60"/>
      <point x="56" y="54"/>
      <point x="56" y="44" type="curve" smooth="yes"/>
      <point x="56" y="1" type="line"/>
      <point x="297" y="1" type="line"/>
      <point x="297" y="44" type="line" smooth="yes"/>
      <point x="297" y="54"/>
      <point x="291" y="60"/>
      <point x="281" y="62" type="curve" smooth="yes"/>
      <point x="254" y="68"/>
      <point x="236" y="72"/>
      <point x="225" y="74" type="curve"/>
      <point x="225" y="330" type="line"/>
      <point x="269" y="330" type="line" smooth="yes"/>
      <point x="277" y="330"/>
      <point x="285" y="330"/>
      <point x="294" y="328" type="curve" smooth="yes"/>
      <point x="303" y="326"/>
      <point x="313" y="318"/>
      <point x="325" y="306" type="curve"/>
      <point x="532" y="68" type="line"/>
      <point x="505" y="62"/>
      <point x="490" y="59"/>
      <point x="486" y="59" type="curve"/>
      <point x="476" y="57"/>
      <point x="472" y="52"/>
      <point x="472" y="42" type="curve" smooth="yes"/>
      <point x="472" y="2" type="line"/>
      <point x="707" y="2" type="line"/>
      <point x="707" y="42" type="line" smooth="yes"/>
      <point x="707" y="52"/>
      <point x="702" y="58"/>
    </contour>
    <contour>
      <point x="378" y="0" type="move" name="bottom"/>
    </contour>
    <contour>
      <point x="378" y="716" type="move" name="top"/>
    </contour>
  </outline>
</glyph>
<glyph name="L" format="2">
	<advance width="546"/>
	<unicode hex="004C"/>
	<anchor x="157" y="357" name="center"/>
	<anchor x="310" y="0" name="bottom"/>
	<anchor x="162" y="717" name="top"/>
	<note>
		L
	</note>
	<outline>
		<contour>
			<point x="105" y="0" type="line"/>
			<point x="536" y="0" type="line"/>
			<point x="536" y="82" type="line"/>
			<point x="203" y="82" type="line"/>
			<point x="203" y="717" type="line"/>
			<point x="105" y="717" type="line"/>
		</contour>
		<component base="SerifUpLeftCaps" xOffset="536" yOffset="82"/>
		<component base="SerifBottomLeft" xOffset="105"/>
		<component base="SerifSpurLeft" xOffset="105" yOffset="717"/>
		<component base="SerifSpurRight" xOffset="204" yOffset="717"/>
	</outline>
</glyph>
<glyph name="M" format="1">
  <advance width="1002"/>
  <unicode hex="004D"/>
  <note>
    M
  </note>
  <outline>
    <contour>
      <point x="211" y="576" type="curve"/>
      <point x="210" y="575" type="line"/>
      <point x="460" y="126" type="line" smooth="yes"/>
      <point x="468" y="111"/>
      <point x="481" y="103"/>
      <point x="496" y="103" type="curve" smooth="yes"/>
      <point x="510" y="103" type="line" smooth="yes"/>
      <point x="525" y="103"/>
      <point x="536" y="111"/>
      <point x="544" y="126" type="curve" smooth="yes"/>
      <point x="790" y="574" type="line"/>
      <point x="788" y="558"/>
      <point x="788" y="541"/>
      <point x="788" y="527" type="curve" smooth="yes"/>
      <point x="788" y="74" type="line"/>
      <point x="753" y="68"/>
      <point x="731" y="64"/>
      <point x="721" y="62" type="curve" smooth="yes"/>
      <point x="711" y="60"/>
      <point x="706" y="54"/>
      <point x="706" y="44" type="curve" smooth="yes"/>
      <point x="706" y="0" type="line"/>
      <point x="946" y="0" type="line"/>
      <point x="946" y="44" type="line" smooth="yes"/>
      <point x="946" y="54"/>
      <point x="940" y="60"/>
      <point x="930" y="62" type="curve"/>
      <point x="924" y="64"/>
      <point x="905" y="68"/>
      <point x="873" y="74" type="curve"/>
      <point x="873" y="644" type="line"/>
      <point x="930" y="656" type="line" smooth="yes"/>
      <point x="940" y="658"/>
      <point x="946" y="664"/>
      <point x="946" y="674" type="curve" smooth="yes"/>
      <point x="946" y="718" type="line"/>
      <point x="802" y="718" type="line" smooth="yes"/>
      <point x="794" y="718"/>
      <point x="786" y="717"/>
      <point x="782" y="715" type="curve" smooth="yes"/>
      <point x="778" y="713"/>
      <point x="772" y="710"/>
      <point x="768" y="702" type="curve"/>
      <point x="526" y="261" type="line"/>
      <point x="518" y="245"/>
      <point x="510" y="228"/>
      <point x="503" y="208" type="curve"/>
      <point x="494" y="232"/>
      <point x="486" y="250"/>
      <point x="480" y="260" type="curve" smooth="yes"/>
      <point x="233" y="702" type="line"/>
      <point x="229" y="710"/>
      <point x="224" y="713"/>
      <point x="220" y="715" type="curve" smooth="yes"/>
      <point x="216" y="717"/>
      <point x="208" y="718"/>
      <point x="200" y="718" type="curve" smooth="yes"/>
      <point x="56" y="718" type="line"/>
      <point x="56" y="674" type="line" smooth="yes"/>
      <point x="56" y="664"/>
      <point x="62" y="658"/>
      <point x="72" y="656" type="curve"/>
      <point x="78" y="654"/>
      <point x="96" y="650"/>
      <point x="128" y="644" type="curve"/>
      <point x="128" y="74" type="line"/>
      <point x="72" y="62" type="line" smooth="yes"/>
      <point x="62" y="60"/>
      <point x="56" y="54"/>
      <point x="56" y="44" type="curve" smooth="yes"/>
      <point x="56" y="0" type="line"/>
      <point x="295" y="0" type="line"/>
      <point x="295" y="44" type="line" smooth="yes"/>
      <point x="295" y="54"/>
      <point x="291" y="60"/>
      <point x="282" y="62" type="curve" smooth="yes"/>
      <point x="273" y="64"/>
      <point x="250" y="68"/>
      <point x="214" y="74" type="curve"/>
      <point x="214" y="528" type="line" smooth="yes"/>
      <point x="214" y="543"/>
      <point x="213" y="558"/>
    </contour>
    <contour>
      <point x="499" y="0" type="move" name="bottom"/>
    </contour>
    <contour>
      <point x="499" y="716" type="move" name="top"/>
    </contour>
  </outline>
</glyph>
<glyph name="N" format="1">
  <advance width="816"/>
  <unicode hex="004E"/>
  <note>
    N
  </note>
  <outline>
    <contour>
      <point x="626" y="158" type="curve"/>
      <point x="626" y="160" type="line"/>
      <point x="212" y="700" type="line"/>
      <point x="206" y="706"/>
      <point x="201" y="711"/>
      <point x="197" y="713" type="curve" smooth="yes"/>
      <point x="193" y="715"/>
      <point x="186" y="716"/>
      <point x="178" y="716" type="curve" smooth="yes"/>
      <point x="56" y="716" type="line"/>
      <point x="56" y="673" type="line" smooth="yes"/>
      <point x="56" y="663"/>
      <point x="61" y="656"/>
      <point x="71" y="654" type="curve"/>
      <point x="77" y="652"/>
      <point x="96" y="648"/>
      <point x="128" y="642" type="curve"/>
      <point x="128" y="72" type="line"/>
      <point x="71" y="60" type="line" smooth="yes"/>
      <point x="61" y="58"/>
      <point x="56" y="52"/>
      <point x="56" y="42" type="curve" smooth="yes"/>
      <point x="56" y="-1" type="line"/>
      <point x="294" y="-1" type="line"/>
      <point x="294" y="42" type="line" smooth="yes"/>
      <point x="294" y="52"/>
      <point x="290" y="58"/>
      <point x="280" y="60" type="curve" smooth="yes"/>
      <point x="275" y="61"/>
      <point x="253" y="66"/>
      <point x="213" y="72" type="curve"/>
      <point x="213" y="510" type="line" smooth="yes"/>
      <point x="213" y="524"/>
      <point x="213" y="539"/>
      <point x="211" y="556" type="curve"/>
      <point x="626" y="16" type="line"/>
      <point x="636" y="4"/>
      <point x="646" y="-1"/>
      <point x="660" y="-1" type="curve" smooth="yes"/>
      <point x="709" y="-1" type="line"/>
      <point x="709" y="642" type="line"/>
      <point x="766" y="654" type="line" smooth="yes"/>
      <point x="776" y="656"/>
      <point x="782" y="662"/>
      <point x="782" y="672" type="curve" smooth="yes"/>
      <point x="782" y="716" type="line"/>
      <point x="709" y="716" type="line"/>
      <point x="624" y="716" type="line"/>
      <point x="542" y="716" type="line"/>
      <point x="542" y="672" type="line" smooth="yes"/>
      <point x="542" y="662"/>
      <point x="548" y="656"/>
      <point x="558" y="654" type="curve" smooth="yes"/>
      <point x="564" y="653"/>
      <point x="585" y="648"/>
      <point x="624" y="642" type="curve"/>
      <point x="624" y="208" type="line" smooth="yes"/>
      <point x="624" y="190"/>
      <point x="624" y="172"/>
    </contour>
    <contour>
      <point x="410" y="0" type="move" name="bottom"/>
    </contour>
    <contour>
      <point x="410" y="716" type="move" name="top"/>
    </contour>
  </outline>
</glyph>
<glyph name="O" format="1">
  <advance width="793"/>
  <unicode hex="004F"/>
  <note>
    O
  </note>
  <outline>
    <contour>
      <point x="749" y="356" type="curve"/>
      <point x="750" y="358" type="line"/>
      <point x="750" y="412"/>
      <point x="742" y="461"/>
      <point x="725" y="506" type="curve" smooth="yes"/>
      <point x="708" y="551"/>
      <point x="684" y="590"/>
      <point x="653" y="622" type="curve" smooth="yes"/>
      <point x="622" y="654"/>
      <point x="585" y="679"/>
      <point x="541" y="697" type="curve" smooth="yes"/>
      <point x="497" y="715"/>
      <point x="449" y="724"/>
      <point x="397" y="724" type="curve" smooth="yes"/>
      <point x="345" y="724"/>
      <point x="297" y="715"/>
      <point x="253" y="697" type="curve" smooth="yes"/>
      <point x="209" y="679"/>
      <point x="172" y="653"/>
      <point x="141" y="621" type="curve" smooth="yes"/>
      <point x="110" y="589"/>
      <point x="86" y="550"/>
      <point x="69" y="505" type="curve" smooth="yes"/>
      <point x="52" y="460"/>
      <point x="43" y="411"/>
      <point x="43" y="357" type="curve" smooth="yes"/>
      <point x="43" y="303"/>
      <point x="52" y="254"/>
      <point x="69" y="209" type="curve" smooth="yes"/>
      <point x="86" y="164"/>
      <point x="110" y="125"/>
      <point x="141" y="93" type="curve" smooth="yes"/>
      <point x="172" y="61"/>
      <point x="209" y="36"/>
      <point x="253" y="18" type="curve" smooth="yes"/>
      <point x="297" y="0"/>
      <point x="345" y="-10"/>
      <point x="397" y="-10" type="curve" smooth="yes"/>
      <point x="449" y="-10"/>
      <point x="497" y="0"/>
      <point x="541" y="18" type="curve" smooth="yes"/>
      <point x="585" y="36"/>
      <point x="621" y="61"/>
      <point x="652" y="93" type="curve" smooth="yes"/>
      <point x="683" y="125"/>
      <point x="707" y="164"/>
      <point x="724" y="209" type="curve" smooth="yes"/>
      <point x="741" y="254"/>
      <point x="749" y="302"/>
    </contour>
    <contour>
      <point x="649" y="356" type="curve"/>
      <point x="650" y="356" type="line"/>
      <point x="650" y="312"/>
      <point x="644" y="273"/>
      <point x="632" y="238" type="curve" smooth="yes"/>
      <point x="620" y="203"/>
      <point x="603" y="174"/>
      <point x="581" y="150" type="curve" smooth="yes"/>
      <point x="559" y="126"/>
      <point x="533" y="107"/>
      <point x="501" y="94" type="curve" smooth="yes"/>
      <point x="469" y="81"/>
      <point x="434" y="74"/>
      <point x="396" y="74" type="curve" smooth="yes"/>
      <point x="358" y="74"/>
      <point x="323" y="81"/>
      <point x="291" y="94" type="curve" smooth="yes"/>
      <point x="259" y="107"/>
      <point x="233" y="126"/>
      <point x="211" y="150" type="curve" smooth="yes"/>
      <point x="189" y="174"/>
      <point x="171" y="203"/>
      <point x="159" y="238" type="curve" smooth="yes"/>
      <point x="147" y="273"/>
      <point x="141" y="312"/>
      <point x="141" y="356" type="curve" smooth="yes"/>
      <point x="141" y="400"/>
      <point x="147" y="440"/>
      <point x="159" y="475" type="curve" smooth="yes"/>
      <point x="171" y="510"/>
      <point x="189" y="540"/>
      <point x="211" y="564" type="curve" smooth="yes"/>
      <point x="233" y="588"/>
      <point x="259" y="606"/>
      <point x="291" y="619" type="curve" smooth="yes"/>
      <point x="323" y="632"/>
      <point x="357" y="638"/>
      <point x="395" y="638" type="curve" smooth="yes"/>
      <point x="433" y="638"/>
      <point x="469" y="632"/>
      <point x="501" y="619" type="curve" smooth="yes"/>
      <point x="533" y="606"/>
      <point x="559" y="588"/>
      <point x="581" y="564" type="curve" smooth="yes"/>
      <point x="603" y="540"/>
      <point x="619" y="510"/>
      <point x="631" y="475" type="curve" smooth="yes"/>
      <point x="643" y="440"/>
      <point x="649" y="400"/>
    </contour>
    <contour>
      <point x="398" y="0" type="move" name="bottom"/>
    </contour>
    <contour>
      <point x="398" y="358" type="move" name="center"/>
    </contour>
    <contour>
      <point x="700" y="10" type="move" name="ogonek"/>
    </contour>
    <contour>
      <point x="398" y="716" type="move" name="top"/>
    </contour>
    <contour>
      <point x="41" y="716" type="move" name="topleft"/>
    </contour>
    <contour>
      <point x="755" y="716" type="move" name="topright"/>
    </contour>
  </outline>
</glyph>
<glyph name="P" format="1">
  <advance width="617"/>
  <unicode hex="0050"/>
  <note>
    P
  </note>
  <outline>
    <contour>
      <point x="444" y="702" type="curve"/>
      <point x="444" y="701" type="line"/>
      <point x="410" y="711"/>
      <point x="372" y="716"/>
      <point x="326" y="716" type="curve" smooth="yes"/>
      <point x="56" y="716" type="line"/>
      <point x="56" y="674" type="line" smooth="yes"/>
      <point x="56" y="664"/>
      <point x="61" y="657"/>
      <point x="71" y="655" type="curve"/>
      <point x="77" y="653"/>
      <point x="96" y="649"/>
      <point x="128" y="643" type="curve"/>
      <point x="128" y="72" type="line"/>
      <point x="71" y="61" type="line" smooth="yes"/>
      <point x="61" y="59"/>
      <point x="56" y="52"/>
      <point x="56" y="42" type="curve" smooth="yes"/>
      <point x="56" y="0" type="line"/>
      <point x="296" y="0" type="line"/>
      <point x="296" y="42" type="line" smooth="yes"/>
      <point x="296" y="52"/>
      <point x="292" y="59"/>
      <point x="282" y="61" type="curve" smooth="yes"/>
      <point x="250" y="67"/>
      <point x="230" y="71"/>
      <point x="224" y="73" type="curve"/>
      <point x="224" y="268" type="line"/>
      <point x="326" y="268" type="line" smooth="yes"/>
      <point x="410" y="268"/>
      <point x="476" y="290"/>
      <point x="524" y="332" type="curve" smooth="yes"/>
      <point x="570" y="372"/>
      <point x="592" y="426"/>
      <point x="592" y="494" type="curve" smooth="yes"/>
      <point x="592" y="600"/>
      <point x="543" y="670"/>
    </contour>
    <contour>
      <point x="495" y="496" type="curve"/>
      <point x="496" y="495" type="line"/>
      <point x="496" y="449"/>
      <point x="481" y="413"/>
      <point x="451" y="386" type="curve" smooth="yes"/>
      <point x="421" y="359"/>
      <point x="380" y="346"/>
      <point x="326" y="346" type="curve" smooth="yes"/>
      <point x="224" y="346" type="line"/>
      <point x="224" y="640" type="line"/>
      <point x="326" y="640" type="line" smooth="yes"/>
      <point x="383" y="640"/>
      <point x="425" y="628"/>
      <point x="453" y="602" type="curve" smooth="yes"/>
      <point x="481" y="576"/>
      <point x="495" y="542"/>
    </contour>
    <contour>
      <point x="318" y="0" type="move" name="bottom"/>
    </contour>
    <contour>
      <point x="318" y="716" type="move" name="top"/>
    </contour>
  </outline>
</glyph>
<glyph name="Q" format="1">
  <advance width="828"/>
  <unicode hex="0051"/>
  <note>
    Q
  </note>
  <outline>
    <contour>
      <point x="751" y="355" type="curve"/>
      <point x="750" y="358" type="line"/>
      <point x="750" y="412"/>
      <point x="742" y="461"/>
      <point x="725" y="506" type="curve" smooth="yes"/>
      <point x="708" y="551"/>
      <point x="684" y="590"/>
      <point x="653" y="622" type="curve" smooth="yes"/>
      <point x="622" y="654"/>
      <point x="585" y="679"/>
      <point x="541" y="697" type="curve" smooth="yes"/>
      <point x="497" y="715"/>
      <point x="449" y="724"/>
      <point x="397" y="724" type="curve" smooth="yes"/>
      <point x="345" y="724"/>
      <point x="297" y="715"/>
      <point x="253" y="697" type="curve" smooth="yes"/>
      <point x="209" y="679"/>
      <point x="172" y="653"/>
      <point x="141" y="621" type="curve" smooth="yes"/>
      <point x="110" y="589"/>
      <point x="86" y="550"/>
      <point x="69" y="505" type="curve" smooth="yes"/>
      <point x="52" y="460"/>
      <point x="43" y="411"/>
      <point x="43" y="357" type="curve" smooth="yes"/>
      <point x="43" y="303"/>
      <point x="52" y="254"/>
      <point x="69" y="209" type="curve" smooth="yes"/>
      <point x="86" y="164"/>
      <point x="110" y="125"/>
      <point x="141" y="93" type="curve" smooth="yes"/>
      <point x="172" y="61"/>
      <point x="209" y="36"/>
      <point x="253" y="18" type="curve" smooth="yes"/>
      <point x="297" y="0"/>
      <point x="345" y="-10"/>
      <point x="397" y="-10" type="curve" smooth="yes"/>
      <point x="419" y="-10"/>
      <point x="441" y="-8"/>
      <point x="461" y="-4" type="curve" smooth="yes"/>
      <point x="481" y="0"/>
      <point x="501" y="4"/>
      <point x="520" y="10" type="curve"/>
      <point x="646" y="-128" type="line"/>
      <point x="654" y="-136"/>
      <point x="661" y="-142"/>
      <point x="671" y="-146" type="curve" smooth="yes"/>
      <point x="681" y="-150"/>
      <point x="691" y="-150"/>
      <point x="703" y="-150" type="curve" smooth="yes"/>
      <point x="783" y="-150" type="line"/>
      <point x="599" y="48" type="line"/>
      <point x="623" y="64"/>
      <point x="645" y="82"/>
      <point x="663" y="104" type="curve" smooth="yes"/>
      <point x="681" y="126"/>
      <point x="697" y="148"/>
      <point x="710" y="174" type="curve" smooth="yes"/>
      <point x="723" y="200"/>
      <point x="733" y="229"/>
      <point x="740" y="259" type="curve" smooth="yes"/>
      <point x="747" y="289"/>
      <point x="751" y="321"/>
    </contour>
    <contour>
      <point x="651" y="355" type="curve" smooth="yes"/>
      <point x="651" y="311"/>
      <point x="645" y="271"/>
      <point x="633" y="236" type="curve" smooth="yes"/>
      <point x="621" y="201"/>
      <point x="604" y="172"/>
      <point x="582" y="148" type="curve" smooth="yes"/>
      <point x="560" y="124"/>
      <point x="534" y="105"/>
      <point x="502" y="92" type="curve" smooth="yes"/>
      <point x="470" y="79"/>
      <point x="435" y="73"/>
      <point x="397" y="73" type="curve" smooth="yes"/>
      <point x="359" y="73"/>
      <point x="324" y="79"/>
      <point x="292" y="92" type="curve" smooth="yes"/>
      <point x="260" y="105"/>
      <point x="233" y="124"/>
      <point x="211" y="148" type="curve" smooth="yes"/>
      <point x="189" y="172"/>
      <point x="173" y="201"/>
      <point x="161" y="236" type="curve" smooth="yes"/>
      <point x="149" y="271"/>
      <point x="143" y="311"/>
      <point x="143" y="355" type="curve" smooth="yes"/>
      <point x="143" y="399"/>
      <point x="149" y="439"/>
      <point x="161" y="474" type="curve" smooth="yes"/>
      <point x="173" y="509"/>
      <point x="189" y="538"/>
      <point x="211" y="562" type="curve" smooth="yes"/>
      <point x="233" y="586"/>
      <point x="259" y="605"/>
      <point x="291" y="618" type="curve" smooth="yes"/>
      <point x="323" y="631"/>
      <point x="359" y="637"/>
      <point x="397" y="637" type="curve" smooth="yes"/>
      <point x="435" y="637"/>
      <point x="469" y="631"/>
      <point x="501" y="618" type="curve" smooth="yes"/>
      <point x="533" y="605"/>
      <point x="559" y="586"/>
      <point x="581" y="562" type="curve" smooth="yes"/>
      <point x="603" y="538"/>
      <point x="621" y="509"/>
      <point x="633" y="474" type="curve" smooth="yes"/>
      <point x="645" y="439"/>
      <point x="651" y="399"/>
    </contour>
    <contour>
      <point x="406" y="0" type="move" name="bottom"/>
    </contour>
    <contour>
      <point x="406" y="716" type="move" name="top"/>
    </contour>
  </outline>
</glyph>
<glyph name="R" format="1">
  <advance width="666"/>
  <unicode hex="0052"/>
  <note>
    R
  </note>
  <outline>
    <contour>
      <point x="650" y="62" type="curve"/>
      <point x="651" y="62" type="line"/>
      <point x="643" y="64"/>
      <point x="601" y="71"/>
      <point x="595" y="72" type="curve"/>
      <point x="440" y="284" type="line" smooth="yes"/>
      <point x="430" y="298"/>
      <point x="420" y="307"/>
      <point x="408" y="314" type="curve"/>
      <point x="436" y="320"/>
      <point x="460" y="331"/>
      <point x="482" y="343" type="curve" smooth="yes"/>
      <point x="504" y="355"/>
      <point x="522" y="370"/>
      <point x="537" y="388" type="curve" smooth="yes"/>
      <point x="552" y="406"/>
      <point x="564" y="426"/>
      <point x="572" y="448" type="curve" smooth="yes"/>
      <point x="580" y="470"/>
      <point x="584" y="492"/>
      <point x="584" y="518" type="curve" smooth="yes"/>
      <point x="584" y="548"/>
      <point x="579" y="577"/>
      <point x="569" y="601" type="curve" smooth="yes"/>
      <point x="559" y="625"/>
      <point x="543" y="646"/>
      <point x="521" y="664" type="curve" smooth="yes"/>
      <point x="499" y="682"/>
      <point x="472" y="695"/>
      <point x="439" y="704" type="curve" smooth="yes"/>
      <point x="406" y="713"/>
      <point x="367" y="718"/>
      <point x="321" y="718" type="curve" smooth="yes"/>
      <point x="128" y="718" type="line"/>
      <point x="56" y="718" type="line"/>
      <point x="56" y="674" type="line" smooth="yes"/>
      <point x="56" y="665"/>
      <point x="62" y="658"/>
      <point x="71" y="656" type="curve" smooth="yes"/>
      <point x="80" y="654"/>
      <point x="129" y="644"/>
      <point x="129" y="644" type="curve"/>
      <point x="129" y="74" type="line"/>
      <point x="129" y="74"/>
      <point x="80" y="64"/>
      <point x="71" y="62" type="curve" smooth="yes"/>
      <point x="62" y="60"/>
      <point x="56" y="53"/>
      <point x="56" y="44" type="curve" smooth="yes"/>
      <point x="56" y="1" type="line"/>
      <point x="128" y="1" type="line"/>
      <point x="225" y="1" type="line"/>
      <point x="225" y="1" type="line"/>
      <point x="297" y="1" type="line"/>
      <point x="297" y="44" type="line" smooth="yes"/>
      <point x="297" y="53"/>
      <point x="290" y="60"/>
      <point x="281" y="62" type="curve" smooth="yes"/>
      <point x="273" y="64"/>
      <point x="225" y="74"/>
      <point x="225" y="74" type="curve"/>
      <point x="225" y="300" type="line"/>
      <point x="289" y="300" type="line" smooth="yes"/>
      <point x="303" y="300"/>
      <point x="313" y="298"/>
      <point x="319" y="294" type="curve" smooth="yes"/>
      <point x="325" y="290"/>
      <point x="331" y="285"/>
      <point x="337" y="277" type="curve" smooth="yes"/>
      <point x="523" y="21" type="line"/>
      <point x="531" y="7"/>
      <point x="543" y="0"/>
      <point x="561" y="0" type="curve" smooth="yes"/>
      <point x="593" y="0" type="line"/>
      <point x="647" y="0" type="line"/>
      <point x="665" y="0" type="line"/>
      <point x="665" y="44" type="line" smooth="yes"/>
      <point x="665" y="53"/>
      <point x="659" y="60"/>
    </contour>
    <contour>
      <point x="315" y="370" type="curve"/>
      <point x="316" y="370" type="line"/>
      <point x="224" y="370" type="line"/>
      <point x="224" y="640" type="line"/>
      <point x="321" y="640" type="line" smooth="yes"/>
      <point x="377" y="640"/>
      <point x="418" y="630"/>
      <point x="446" y="608" type="curve" smooth="yes"/>
      <point x="474" y="586"/>
      <point x="488" y="554"/>
      <point x="488" y="512" type="curve" smooth="yes"/>
      <point x="488" y="491"/>
      <point x="485" y="472"/>
      <point x="477" y="454" type="curve" smooth="yes"/>
      <point x="469" y="436"/>
      <point x="458" y="422"/>
      <point x="444" y="410" type="curve" smooth="yes"/>
      <point x="430" y="398"/>
      <point x="412" y="387"/>
      <point x="390" y="380" type="curve" smooth="yes"/>
      <point x="368" y="373"/>
      <point x="343" y="370"/>
    </contour>
    <contour>
      <point x="358" y="0" type="move" name="bottom"/>
    </contour>
    <contour>
      <point x="358" y="716" type="move" name="top"/>
    </contour>
  </outline>
</glyph>
<glyph name="S" format="1">
  <advance width="543"/>
  <unicode hex="0053"/>
  <note>
    S
  </note>
  <outline>
    <contour>
      <point x="390" y="379" type="curve"/>
      <point x="392" y="379" type="line"/>
      <point x="368" y="389"/>
      <point x="326" y="404"/>
      <point x="266" y="424" type="curve" smooth="yes"/>
      <point x="245" y="431"/>
      <point x="226" y="439"/>
      <point x="210" y="449" type="curve"/>
      <point x="174" y="469"/>
      <point x="156" y="497"/>
      <point x="156" y="532" type="curve" smooth="yes"/>
      <point x="156" y="564"/>
      <point x="168" y="592"/>
      <point x="190" y="612" type="curve" smooth="yes"/>
      <point x="214" y="634"/>
      <point x="248" y="644"/>
      <point x="290" y="644" type="curve" smooth="yes"/>
      <point x="324" y="644"/>
      <point x="364" y="637"/>
      <point x="408" y="625" type="curve"/>
      <point x="412" y="567"/>
      <point x="415" y="538"/>
      <point x="415" y="536" type="curve"/>
      <point x="417" y="524"/>
      <point x="424" y="519"/>
      <point x="436" y="519" type="curve" smooth="yes"/>
      <point x="484" y="519" type="line"/>
      <point x="484" y="684" type="line"/>
      <point x="416" y="712"/>
      <point x="349" y="724"/>
      <point x="283" y="724" type="curve" smooth="yes"/>
      <point x="217" y="724"/>
      <point x="164" y="704"/>
      <point x="123" y="664" type="curve" smooth="yes"/>
      <point x="85" y="626"/>
      <point x="66" y="582"/>
      <point x="66" y="528" type="curve" smooth="yes"/>
      <point x="66" y="471"/>
      <point x="83" y="426"/>
      <point x="119" y="394" type="curve" smooth="yes"/>
      <point x="135" y="380"/>
      <point x="154" y="367"/>
      <point x="174" y="358" type="curve" smooth="yes"/>
      <point x="194" y="349"/>
      <point x="236" y="336"/>
      <point x="300" y="316" type="curve" smooth="yes"/>
      <point x="320" y="310"/>
      <point x="338" y="302"/>
      <point x="354" y="292" type="curve"/>
      <point x="390" y="272"/>
      <point x="408" y="242"/>
      <point x="408" y="204" type="curve" smooth="yes"/>
      <point x="408" y="164"/>
      <point x="396" y="133"/>
      <point x="370" y="109" type="curve"/>
      <point x="358" y="97"/>
      <point x="342" y="88"/>
      <point x="324" y="82" type="curve" smooth="yes"/>
      <point x="306" y="76"/>
      <point x="282" y="72"/>
      <point x="250" y="72" type="curve" smooth="yes"/>
      <point x="218" y="72"/>
      <point x="178" y="82"/>
      <point x="128" y="100" type="curve"/>
      <point x="128" y="100"/>
      <point x="127" y="116"/>
      <point x="125" y="144" type="curve" smooth="yes"/>
      <point x="123" y="172"/>
      <point x="121" y="189"/>
      <point x="120" y="193" type="curve"/>
      <point x="118" y="205"/>
      <point x="112" y="210"/>
      <point x="100" y="210" type="curve" smooth="yes"/>
      <point x="51" y="210" type="line"/>
      <point x="51" y="30" type="line"/>
      <point x="80" y="20" type="line"/>
      <point x="100" y="14"/>
      <point x="126" y="7"/>
      <point x="160" y="1" type="curve" smooth="yes"/>
      <point x="194" y="-5"/>
      <point x="227" y="-8"/>
      <point x="258" y="-8" type="curve" smooth="yes"/>
      <point x="332" y="-8"/>
      <point x="392" y="13"/>
      <point x="436" y="57" type="curve" smooth="yes"/>
      <point x="478" y="99"/>
      <point x="498" y="152"/>
      <point x="498" y="218" type="curve" smooth="yes"/>
      <point x="498" y="293"/>
      <point x="462" y="347"/>
    </contour>
    <contour>
      <point x="269" y="0" type="move" name="bottom"/>
    </contour>
    <contour>
      <point x="269" y="716" type="move" name="top"/>
    </contour>
  </outline>
</glyph>
<glyph name="T" format="2">
	<advance width="599"/>
	<unicode hex="0054"/>
	<anchor x="300" y="359" name="center"/>
	<anchor x="300" y="0" name="bottom"/>
	<anchor x="300" y="717" name="top"/>
	<note>
		T
	</note>
	<outline>
		<contour>
			<point x="252" y="0" type="line"/>
			<point x="349" y="0" type="line"/>
			<point x="349" y="635" type="line"/>
			<point x="580" y="635" type="line"/>
			<point x="580" y="717" type="line"/>
			<point x="19" y="717" type="line"/>
			<point x="19" y="635" type="line"/>
			<point x="252" y="635" type="line"/>
		</contour>
		<component base="SerifBottomLeft" xOffset="252"/>
		<component base="SerifBottomRight" xOffset="349"/>
		<component base="SerifUpRightCaps" xScale="-1" yScale="-1" xOffset="580" yOffset="635"/>
		<component base="SerifUpLeftCaps" xScale="-1" yScale="-1" xOffset="19" yOffset="635"/>
	</outline>
</glyph>
<glyph name="U" format="1">
  <advance width="761"/>
  <unicode hex="0055"/>
  <note>
    U
  </note>
  <outline>
    <contour>
      <point x="738" y="716" type="line"/>
      <point x="666" y="716" type="line"/>
      <point x="570" y="716" type="line"/>
      <point x="488" y="716" type="line"/>
      <point x="488" y="674" type="line" smooth="yes"/>
      <point x="488" y="664"/>
      <point x="494" y="657"/>
      <point x="504" y="655" type="curve" smooth="yes"/>
      <point x="509" y="654"/>
      <point x="531" y="650"/>
      <point x="570" y="644" type="curve"/>
      <point x="570" y="281" type="line" smooth="yes"/>
      <point x="570" y="220"/>
      <point x="553" y="171"/>
      <point x="520" y="134" type="curve" smooth="yes"/>
      <point x="486" y="96"/>
      <point x="439" y="77"/>
      <point x="381" y="77" type="curve" smooth="yes"/>
      <point x="323" y="77"/>
      <point x="276" y="96"/>
      <point x="242" y="134" type="curve" smooth="yes"/>
      <point x="208" y="171"/>
      <point x="192" y="221"/>
      <point x="192" y="282" type="curve" smooth="yes"/>
      <point x="192" y="644" type="line"/>
      <point x="232" y="650"/>
      <point x="253" y="654"/>
      <point x="258" y="655" type="curve" smooth="yes"/>
      <point x="268" y="657"/>
      <point x="274" y="664"/>
      <point x="274" y="674" type="curve" smooth="yes"/>
      <point x="274" y="716" type="line"/>
      <point x="23" y="716" type="line"/>
      <point x="23" y="674" type="line" smooth="yes"/>
      <point x="23" y="664"/>
      <point x="28" y="657"/>
      <point x="38" y="655" type="curve"/>
      <point x="44" y="653"/>
      <point x="63" y="649"/>
      <point x="95" y="643" type="curve"/>
      <point x="95" y="280" type="line" smooth="yes"/>
      <point x="95" y="196"/>
      <point x="121" y="128"/>
      <point x="172" y="74" type="curve" smooth="yes"/>
      <point x="224" y="19"/>
      <point x="294" y="-9"/>
      <point x="380" y="-9" type="curve" smooth="yes"/>
      <point x="467" y="-9"/>
      <point x="537" y="19"/>
      <point x="589" y="74" type="curve" smooth="yes"/>
      <point x="639" y="128"/>
      <point x="665" y="196"/>
      <point x="665" y="280" type="curve" smooth="yes"/>
      <point x="665" y="643" type="line"/>
      <point x="722" y="654" type="line" smooth="yes"/>
      <point x="732" y="656"/>
      <point x="738" y="663"/>
      <point x="738" y="673" type="curve" smooth="yes"/>
    </contour>
    <contour>
      <point x="381" y="0" type="move" name="bottom"/>
    </contour>
    <contour>
      <point x="435" y="10" type="move" name="ogonek"/>
    </contour>
    <contour>
      <point x="381" y="716" type="move" name="top"/>
    </contour>
    <contour>
      <point x="735" y="716" type="move" name="topright"/>
    </contour>
  </outline>
</glyph>
<glyph name="V" format="1">
  <advance width="744"/>
  <unicode hex="0056"/>
  <note>
    V
  </note>
  <outline>
    <contour>
      <point x="743" y="715" type="line"/>
      <point x="506" y="716" type="line"/>
      <point x="506" y="674" type="line" smooth="yes"/>
      <point x="506" y="664"/>
      <point x="511" y="657"/>
      <point x="521" y="655" type="curve"/>
      <point x="527" y="653"/>
      <point x="546" y="649"/>
      <point x="578" y="643" type="curve"/>
      <point x="397" y="188" type="line"/>
      <point x="389" y="170"/>
      <point x="382" y="143"/>
      <point x="374" y="109" type="curve"/>
      <point x="365" y="145"/>
      <point x="357" y="171"/>
      <point x="350" y="187" type="curve" smooth="yes"/>
      <point x="167" y="642" type="line"/>
      <point x="189" y="646"/>
      <point x="206" y="651"/>
      <point x="219" y="653" type="curve" smooth="yes"/>
      <point x="232" y="655"/>
      <point x="239" y="662"/>
      <point x="239" y="672" type="curve" smooth="yes"/>
      <point x="239" y="716" type="line"/>
      <point x="1" y="716" type="line"/>
      <point x="1" y="672" type="line" smooth="yes"/>
      <point x="1" y="662"/>
      <point x="6" y="656"/>
      <point x="16" y="654" type="curve"/>
      <point x="22" y="652"/>
      <point x="39" y="648"/>
      <point x="67" y="642" type="curve"/>
      <point x="329" y="-2" type="line"/>
      <point x="416" y="-2" type="line"/>
      <point x="679" y="642" type="line"/>
      <point x="729" y="654" type="line"/>
      <point x="739" y="656"/>
      <point x="743" y="662"/>
      <point x="743" y="672" type="curve" smooth="yes"/>
    </contour>
    <contour>
      <point x="373" y="0" type="move" name="bottom"/>
    </contour>
    <contour>
      <point x="373" y="716" type="move" name="top"/>
    </contour>
  </outline>
</glyph>
<glyph name="W" format="1">
  <advance width="1092"/>
  <unicode hex="0057"/>
  <note>
    W
  </note>
  <outline>
    <contour>
      <point x="1091" y="716" type="line"/>
      <point x="1049" y="716" type="line"/>
      <point x="853" y="716" type="line"/>
      <point x="853" y="674" type="line" smooth="yes"/>
      <point x="853" y="664"/>
      <point x="859" y="657"/>
      <point x="869" y="655" type="curve" smooth="yes"/>
      <point x="903" y="648"/>
      <point x="921" y="644"/>
      <point x="925" y="644" type="curve"/>
      <point x="792" y="196" type="line"/>
      <point x="790" y="188"/>
      <point x="788" y="178"/>
      <point x="786" y="168" type="curve" smooth="yes"/>
      <point x="784" y="158"/>
      <point x="783" y="146"/>
      <point x="781" y="136" type="curve"/>
      <point x="777" y="158"/>
      <point x="771" y="178"/>
      <point x="765" y="196" type="curve" smooth="yes"/>
      <point x="597" y="694" type="line" smooth="yes"/>
      <point x="591" y="710"/>
      <point x="580" y="718"/>
      <point x="564" y="718" type="curve" smooth="yes"/>
      <point x="536" y="718" type="line" smooth="yes"/>
      <point x="528" y="718"/>
      <point x="521" y="715"/>
      <point x="515" y="710" type="curve" smooth="yes"/>
      <point x="509" y="705"/>
      <point x="505" y="700"/>
      <point x="503" y="694" type="curve" smooth="yes"/>
      <point x="334" y="196" type="line" smooth="yes"/>
      <point x="330" y="184"/>
      <point x="325" y="164"/>
      <point x="319" y="134" type="curve"/>
      <point x="315" y="160"/>
      <point x="309" y="181"/>
      <point x="305" y="196" type="curve" smooth="yes"/>
      <point x="173" y="644" type="line"/>
      <point x="177" y="644"/>
      <point x="195" y="649"/>
      <point x="229" y="656" type="curve" smooth="yes"/>
      <point x="239" y="658"/>
      <point x="245" y="664"/>
      <point x="245" y="674" type="curve" smooth="yes"/>
      <point x="245" y="717" type="line"/>
      <point x="1" y="717" type="line"/>
      <point x="1" y="674" type="line" smooth="yes"/>
      <point x="1" y="664"/>
      <point x="7" y="658"/>
      <point x="17" y="656" type="curve"/>
      <point x="23" y="654"/>
      <point x="39" y="650"/>
      <point x="67" y="644" type="curve"/>
      <point x="267" y="0" type="line"/>
      <point x="355" y="0" type="line"/>
      <point x="537" y="546" type="line"/>
      <point x="539" y="551"/>
      <point x="539" y="558"/>
      <point x="541" y="564" type="curve" smooth="yes"/>
      <point x="543" y="570"/>
      <point x="544" y="576"/>
      <point x="546" y="582" type="curve"/>
      <point x="549" y="568"/>
      <point x="552" y="556"/>
      <point x="556" y="546" type="curve"/>
      <point x="737" y="0" type="line"/>
      <point x="825" y="0" type="line"/>
      <point x="1025" y="643" type="line"/>
      <point x="1075" y="654" type="line" smooth="yes"/>
      <point x="1085" y="656"/>
      <point x="1091" y="663"/>
      <point x="1091" y="673" type="curve" smooth="yes"/>
    </contour>
    <contour>
      <point x="546" y="0" type="move" name="bottom"/>
    </contour>
    <contour>
      <point x="546" y="716" type="move" name="top"/>
    </contour>
  </outline>
</glyph>
<glyph name="X" format="1">
  <advance width="696"/>
  <unicode hex="0058"/>
  <note>
    X
  </note>
  <outline>
    <contour>
      <point x="681" y="61" type="curve"/>
      <point x="681" y="62" type="line"/>
      <point x="675" y="64"/>
      <point x="653" y="68"/>
      <point x="615" y="74" type="curve"/>
      <point x="418" y="373" type="line"/>
      <point x="605" y="644" type="line"/>
      <point x="643" y="650"/>
      <point x="666" y="654"/>
      <point x="674" y="656" type="curve" smooth="yes"/>
      <point x="682" y="658"/>
      <point x="687" y="664"/>
      <point x="687" y="674" type="curve" smooth="yes"/>
      <point x="687" y="717" type="line"/>
      <point x="429" y="717" type="line"/>
      <point x="429" y="674" type="line" smooth="yes"/>
      <point x="429" y="664"/>
      <point x="435" y="658"/>
      <point x="445" y="656" type="curve" smooth="yes"/>
      <point x="471" y="651"/>
      <point x="489" y="646"/>
      <point x="501" y="644" type="curve"/>
      <point x="364" y="440" type="line" smooth="yes"/>
      <point x="359" y="432"/>
      <point x="355" y="423"/>
      <point x="353" y="416" type="curve"/>
      <point x="204" y="646" type="line"/>
      <point x="226" y="650"/>
      <point x="242" y="653"/>
      <point x="252" y="655" type="curve" smooth="yes"/>
      <point x="262" y="657"/>
      <point x="268" y="664"/>
      <point x="268" y="674" type="curve" smooth="yes"/>
      <point x="268" y="716" type="line"/>
      <point x="13" y="716" type="line"/>
      <point x="13" y="674" type="line" smooth="yes"/>
      <point x="13" y="664"/>
      <point x="18" y="657"/>
      <point x="28" y="655" type="curve"/>
      <point x="34" y="653"/>
      <point x="56" y="649"/>
      <point x="94" y="643" type="curve"/>
      <point x="281" y="368" type="line"/>
      <point x="83" y="72" type="line"/>
      <point x="41" y="65"/>
      <point x="19" y="61"/>
      <point x="17" y="61" type="curve"/>
      <point x="7" y="59"/>
      <point x="1" y="52"/>
      <point x="1" y="42" type="curve" smooth="yes"/>
      <point x="1" y="0" type="line"/>
      <point x="259" y="0" type="line"/>
      <point x="259" y="42" type="line" smooth="yes"/>
      <point x="259" y="52"/>
      <point x="254" y="59"/>
      <point x="244" y="61" type="curve" smooth="yes"/>
      <point x="208" y="68"/>
      <point x="189" y="72"/>
      <point x="187" y="72" type="curve"/>
      <point x="338" y="298" type="line" smooth="yes"/>
      <point x="342" y="304"/>
      <point x="345" y="311"/>
      <point x="347" y="318" type="curve"/>
      <point x="504" y="72" type="line"/>
      <point x="504" y="72"/>
      <point x="495" y="71"/>
      <point x="478" y="67" type="curve" smooth="yes"/>
      <point x="461" y="63"/>
      <point x="451" y="61"/>
      <point x="447" y="61" type="curve"/>
      <point x="437" y="59"/>
      <point x="432" y="52"/>
      <point x="432" y="42" type="curve" smooth="yes"/>
      <point x="432" y="0" type="line"/>
      <point x="695" y="0" type="line"/>
      <point x="695" y="42" type="line" smooth="yes"/>
      <point x="695" y="52"/>
      <point x="691" y="59"/>
    </contour>
    <contour>
      <point x="348" y="0" type="move" name="bottom"/>
    </contour>
    <contour>
      <point x="348" y="716" type="move" name="top"/>
    </contour>
  </outline>
</glyph>
<glyph name="Y" format="2">
	<advance width="703"/>
	<unicode hex="0059"/>
	<anchor x="352" y="717" name="top"/>
	<anchor x="352" y="0" name="bottom"/>
	<anchor x="87" y="717" name="topleft"/>
	<note>
		Y
	</note>
	<outline>
		<contour>
			<point x="304" y="0" type="line"/>
			<point x="400" y="0" type="line"/>
			<point x="400" y="285" type="line"/>
			<point x="663" y="717" type="line"/>
			<point x="577" y="717" type="line" smooth="yes"/>
			<point x="561" y="717"/>
			<point x="551" y="704"/>
			<point x="545" y="694" type="curve" smooth="yes"/>
			<point x="381" y="416" type="line" smooth="yes"/>
			<point x="368" y="393"/>
			<point x="360" y="373"/>
			<point x="353" y="352" type="curve"/>
			<point x="345" y="372"/>
			<point x="338" y="392"/>
			<point x="324" y="416" type="curve" smooth="yes"/>
			<point x="160" y="694" type="line" smooth="yes"/>
			<point x="152" y="707"/>
			<point x="143" y="717"/>
			<point x="126" y="717" type="curve" smooth="yes"/>
			<point x="41" y="717" type="line"/>
			<point x="304" y="285" type="line"/>
		</contour>
		<contour>
			<point x="109" y="663" type="line"/>
			<point x="184" y="663" type="line"/>
			<point x="184" y="717" type="line"/>
			<point x="109" y="717" type="line"/>
		</contour>
		<contour>
			<point x="504" y="663" type="line"/>
			<point x="605" y="663" type="line"/>
			<point x="605" y="717" type="line"/>
			<point x="504" y="717" type="line"/>
		</contour>
		<component base="SerifSpurLeft" xOffset="85" yOffset="717"/>
		<component base="SerifSpurRight" xOffset="197" yOffset="717"/>
		<component base="SerifSpurLeft" xOffset="506" yOffset="717"/>
		<component base="SerifSpurRight" xOffset="618" yOffset="717"/>
		<component base="SerifBottomLeft" xOffset="304"/>
		<component base="SerifBottomRight" xOffset="400"/>
	</outline>
</glyph>
<glyph name="Z" format="2">
	<advance width="611"/>
	<unicode hex="005A"/>
	<anchor x="303" y="359" name="center"/>
	<anchor x="303" y="0" name="bottom"/>
	<anchor x="303" y="717" name="top"/>
	<note>
		Z
	</note>
	<outline>
		<contour>
			<point x="34" y="0" type="line"/>
			<point x="570" y="0" type="line"/>
			<point x="570" y="79" type="line"/>
			<point x="161" y="79" type="line"/>
			<point x="567" y="649" type="line" smooth="yes"/>
			<point x="574" y="659"/>
			<point x="577" y="670"/>
			<point x="577" y="681" type="curve" smooth="yes"/>
			<point x="577" y="717" type="line"/>
			<point x="53" y="717" type="line"/>
			<point x="53" y="638" type="line"/>
			<point x="450" y="638" type="line"/>
			<point x="44" y="67" type="line" smooth="yes"/>
			<point x="37" y="58"/>
			<point x="34" y="48"/>
			<point x="34" y="38" type="curve" smooth="yes"/>
		</contour>
		<component base="SerifUpLeftCaps" xOffset="570" yOffset="79"/>
		<component base="SerifUpLeftCaps" xScale="-1" yScale="-1" xOffset="53" yOffset="638"/>
	</outline>
</glyph>
<glyph name="bracketleft" format="1">
  <advance width="324"/>
  <unicode hex="005B"/>
  <note>
    bracketleft
  </note>
  <outline>
    <contour>
      <point x="88" y="766" type="line"/>
      <point x="89" y="-144" type="line"/>
      <point x="273" y="-144" type="line"/>
      <point x="273" y="-110" type="line" smooth="yes"/>
      <point x="273" y="-102"/>
      <point x="269" y="-96"/>
      <point x="265" y="-92" type="curve" smooth="yes"/>
      <point x="261" y="-88"/>
      <point x="255" y="-86"/>
      <point x="247" y="-86" type="curve" smooth="yes"/>
      <point x="163" y="-86" type="line"/>
      <point x="163" y="708" type="line"/>
      <point x="247" y="708" type="line" smooth="yes"/>
      <point x="255" y="708"/>
      <point x="261" y="710"/>
      <point x="265" y="714" type="curve" smooth="yes"/>
      <point x="269" y="718"/>
      <point x="272" y="722"/>
      <point x="272" y="730" type="curve" smooth="yes"/>
      <point x="272" y="766" type="line"/>
    </contour>
  </outline>
</glyph>
<glyph name="backslash" format="2">
	<advance width="442"/>
	<unicode hex="005C"/>
	<note>
		backslash
	</note>
	<outline>
		<contour>
			<point x="327" y="-11" type="line"/>
			<point x="336" y="-34"/>
			<point x="357" y="-45"/>
			<point x="376" y="-45" type="curve" smooth="yes"/>
			<point x="414" y="-45" type="line"/>
			<point x="113" y="704" type="line" smooth="yes"/>
			<point x="105" y="725"/>
			<point x="89" y="737"/>
			<point x="66" y="737" type="curve" smooth="yes"/>
			<point x="28" y="737" type="line"/>
			<point x="327" y="-11" type="line"/>
		</contour>
	</outline>
</glyph>
<glyph name="bracketright" format="2">
	<advance width="323"/>
	<unicode hex="005D"/>
	<note>
		bracketright
	</note>
	<outline>
		<contour>
			<point x="51" y="-145" type="line"/>
			<point x="235" y="-145" type="line"/>
			<point x="235" y="767" type="line"/>
			<point x="51" y="767" type="line"/>
			<point x="51" y="732" type="line" smooth="yes"/>
			<point x="51" y="719"/>
			<point x="61" y="708"/>
			<point x="76" y="708" type="curve" smooth="yes"/>
			<point x="160" y="708" type="line"/>
			<point x="160" y="-86" type="line"/>
			<point x="76" y="-86" type="line" smooth="yes"/>
			<point x="61" y="-86"/>
			<point x="51" y="-97"/>
			<point x="51" y="-110" type="curve" smooth="yes"/>
		</contour>
	</outline>
</glyph>
<glyph name="asciicircum" format="1">
  <advance width="500"/>
  <unicode hex="005E"/>
  <note>
    asciicircum
  </note>
  <outline>
    <contour>
      <point x="278" y="717" type="line"/>
      <point x="222" y="716" type="line"/>
      <point x="43" y="394" type="line"/>
      <point x="111" y="394" type="line" smooth="yes"/>
      <point x="117" y="394"/>
      <point x="123" y="394"/>
      <point x="127" y="398" type="curve" smooth="yes"/>
      <point x="131" y="402"/>
      <point x="134" y="406"/>
      <point x="136" y="410" type="curve"/>
      <point x="233" y="586" type="line" smooth="yes"/>
      <point x="241" y="600"/>
      <point x="247" y="616"/>
      <point x="251" y="630" type="curve"/>
      <point x="253" y="623"/>
      <point x="256" y="616"/>
      <point x="259" y="609" type="curve" smooth="yes"/>
      <point x="262" y="602"/>
      <point x="266" y="595"/>
      <point x="270" y="587" type="curve"/>
      <point x="368" y="411" type="line"/>
      <point x="370" y="407"/>
      <point x="374" y="403"/>
      <point x="378" y="399" type="curve" smooth="yes"/>
      <point x="382" y="395"/>
      <point x="387" y="394"/>
      <point x="393" y="394" type="curve" smooth="yes"/>
      <point x="457" y="394" type="line"/>
    </contour>
  </outline>
</glyph>
<glyph name="underscore" format="1">
  <advance width="394"/>
  <unicode hex="005F"/>
  <note>
    underscore
  </note>
  <outline>
    <contour>
      <point x="394" y="-142" type="line"/>
      <point x="394" y="-82" type="line"/>
      <point x="0" y="-82" type="line"/>
      <point x="0" y="-142" type="line"/>
    </contour>
  </outline>
</glyph>
<glyph name="grave" format="1">
  <advance width="279"/>
  <unicode hex="0060"/>
  <note>
    grave
  </note>
  <outline>
    <contour>
      <point x="125" y="724" type="curve" smooth="yes"/>
      <point x="40" y="724" type="line"/>
      <point x="158" y="596" type="line"/>
      <point x="162" y="591"/>
      <point x="167" y="587"/>
      <point x="171" y="585" type="curve" smooth="yes"/>
      <point x="175" y="583"/>
      <point x="181" y="582"/>
      <point x="188" y="582" type="curve" smooth="yes"/>
      <point x="239" y="582" type="line"/>
      <point x="164" y="703" type="line"/>
      <point x="160" y="711"/>
      <point x="156" y="716"/>
      <point x="150" y="720" type="curve" smooth="yes"/>
      <point x="144" y="724"/>
      <point x="136" y="724"/>
    </contour>
  </outline>
</glyph>
<glyph name="a" format="2">
	<advance width="520"/>
	<unicode hex="0061"/>
	<anchor x="438" y="0" name="ogonek"/>
	<anchor x="244" y="0" name="bottom"/>
	<anchor x="254" y="507" name="top"/>
	<note>
		a
	</note>
	<outline>
		<contour>
			<point x="178" y="-8" type="curve" smooth="yes"/>
			<point x="253" y="-8"/>
			<point x="300" y="20"/>
			<point x="354" y="68" type="curve"/>
			<point x="364" y="21" type="line" smooth="yes"/>
			<point x="368" y="4"/>
			<point x="379" y="0"/>
			<point x="396" y="0" type="curve" smooth="yes"/>
			<point x="435" y="0" type="line"/>
			<point x="435" y="324" type="line" smooth="yes"/>
			<point x="435" y="439"/>
			<point x="372" y="516"/>
			<point x="259" y="516" type="curve" smooth="yes"/>
			<point x="180" y="516"/>
			<point x="117" y="490"/>
			<point x="61" y="435" type="curve"/>
			<point x="77" y="407" type="line" smooth="yes"/>
			<point x="82" y="398"/>
			<point x="91" y="390"/>
			<point x="103" y="390" type="curve" smooth="yes"/>
			<point x="130" y="390"/>
			<point x="196" y="444"/>
			<point x="248" y="444" type="curve" smooth="yes"/>
			<point x="313" y="444"/>
			<point x="348" y="403"/>
			<point x="348" y="324" type="curve" smooth="yes"/>
			<point x="348" y="285" type="line"/>
			<point x="233" y="282"/>
			<point x="155" y="262"/>
			<point x="106" y="234" type="curve" smooth="yes"/>
			<point x="57" y="205"/>
			<point x="36" y="167"/>
			<point x="36" y="127" type="curve" smooth="yes"/>
			<point x="36" y="39"/>
			<point x="98" y="-8"/>
		</contour>
		<contour>
			<point x="204" y="55" type="curve"/>
			<point x="157" y="55"/>
			<point x="122" y="78"/>
			<point x="122" y="131" type="curve" smooth="yes"/>
			<point x="122" y="197"/>
			<point x="209" y="224"/>
			<point x="348" y="228" type="curve"/>
			<point x="348" y="123" type="line"/>
			<point x="307" y="80"/>
			<point x="264" y="55"/>
		</contour>
		<component base="SerifBottomRight" xOffset="435"/>
	</outline>
</glyph>
<glyph name="b" format="1">
  <advance width="567"/>
  <unicode hex="0062"/>
  <note>
    b
  </note>
  <outline>
    <contour>
      <point x="533" y="256" type="line"/>
      <point x="531" y="256" type="line"/>
      <point x="531" y="298"/>
      <point x="526" y="336"/>
      <point x="517" y="368" type="curve" smooth="yes"/>
      <point x="508" y="400"/>
      <point x="495" y="426"/>
      <point x="479" y="448" type="curve" smooth="yes"/>
      <point x="463" y="470"/>
      <point x="443" y="487"/>
      <point x="419" y="498" type="curve" smooth="yes"/>
      <point x="395" y="509"/>
      <point x="369" y="514"/>
      <point x="339" y="514" type="curve" smooth="yes"/>
      <point x="304" y="514"/>
      <point x="274" y="507"/>
      <point x="247" y="492" type="curve" smooth="yes"/>
      <point x="220" y="477"/>
      <point x="196" y="457"/>
      <point x="175" y="433" type="curve"/>
      <point x="175" y="736" type="line"/>
      <point x="88" y="736" type="line"/>
      <point x="85" y="736" type="line"/>
      <point x="6" y="736" type="line"/>
      <point x="6" y="693" type="line" smooth="yes"/>
      <point x="6" y="684"/>
      <point x="12" y="676"/>
      <point x="21" y="674" type="curve" smooth="yes"/>
      <point x="29" y="672"/>
      <point x="73" y="666"/>
      <point x="85" y="664" type="curve"/>
      <point x="85" y="101" type="line"/>
      <point x="85" y="28" type="line"/>
      <point x="85" y="20" type="line"/>
      <point x="85" y="20"/>
      <point x="219" y="-8"/>
      <point x="309" y="-8" type="curve" smooth="yes"/>
      <point x="341" y="-8"/>
      <point x="370" y="-2"/>
      <point x="397" y="10" type="curve" smooth="yes"/>
      <point x="424" y="22"/>
      <point x="447" y="38"/>
      <point x="467" y="60" type="curve" smooth="yes"/>
      <point x="487" y="82"/>
      <point x="503" y="110"/>
      <point x="515" y="142" type="curve" smooth="yes"/>
      <point x="527" y="174"/>
      <point x="533" y="211"/>
      <point x="533" y="253" type="curve" smooth="yes"/>
      <point x="533" y="254" type="line"/>
    </contour>
    <contour>
      <point x="402" y="114" type="curve"/>
      <point x="401" y="112" type="line"/>
      <point x="389" y="96"/>
      <point x="373" y="82"/>
      <point x="355" y="74" type="curve"/>
      <point x="339" y="66"/>
      <point x="321" y="63"/>
      <point x="301" y="62" type="curve"/>
      <point x="294" y="62" type="line"/>
      <point x="275" y="62" type="line"/>
      <point x="231" y="64"/>
      <point x="188" y="74"/>
      <point x="175" y="78" type="curve"/>
      <point x="175" y="122" type="line"/>
      <point x="175" y="248" type="line"/>
      <point x="175" y="367" type="line"/>
      <point x="193" y="391"/>
      <point x="213" y="410"/>
      <point x="235" y="424" type="curve" smooth="yes"/>
      <point x="257" y="438"/>
      <point x="283" y="444"/>
      <point x="312" y="444" type="curve" smooth="yes"/>
      <point x="332" y="444"/>
      <point x="351" y="441"/>
      <point x="367" y="434" type="curve" smooth="yes"/>
      <point x="383" y="427"/>
      <point x="396" y="415"/>
      <point x="407" y="400" type="curve" smooth="yes"/>
      <point x="418" y="385"/>
      <point x="427" y="366"/>
      <point x="433" y="342" type="curve" smooth="yes"/>
      <point x="439" y="318"/>
      <point x="441" y="291"/>
      <point x="441" y="258" type="curve" smooth="yes"/>
      <point x="441" y="250" type="line" smooth="yes"/>
      <point x="441" y="222"/>
      <point x="437" y="196"/>
      <point x="431" y="174" type="curve" smooth="yes"/>
      <point x="424" y="150"/>
      <point x="414" y="130"/>
    </contour>
    <contour>
      <point x="272" y="0" type="move" name="bottom"/>
    </contour>
    <contour>
      <point x="272" y="506" type="move" name="top"/>
    </contour>
  </outline>
</glyph>
<glyph name="c" format="2">
	<advance width="473"/>
	<unicode hex="0063"/>
	<anchor x="258" y="507" name="top"/>
	<anchor x="258" y="0" name="bottom"/>
	<note>
		c
	</note>
	<outline>
		<contour>
			<point x="258" y="-7" type="curve" smooth="yes"/>
			<point x="332" y="-7"/>
			<point x="401" y="18"/>
			<point x="445" y="71" type="curve"/>
			<point x="420" y="104" type="line" smooth="yes"/>
			<point x="416" y="109"/>
			<point x="410" y="112"/>
			<point x="403" y="112" type="curve" smooth="yes"/>
			<point x="384" y="112"/>
			<point x="350" y="62"/>
			<point x="273" y="62" type="curve" smooth="yes"/>
			<point x="178" y="62"/>
			<point x="126" y="138"/>
			<point x="126" y="254" type="curve" smooth="yes"/>
			<point x="126" y="370"/>
			<point x="176" y="445"/>
			<point x="278" y="445" type="curve" smooth="yes"/>
			<point x="315" y="445"/>
			<point x="344" y="437"/>
			<point x="371" y="428" type="curve"/>
			<point x="423" y="425" type="line"/>
			<point x="423" y="479" type="line"/>
			<point x="374" y="499"/>
			<point x="314" y="515"/>
			<point x="273" y="515" type="curve" smooth="yes"/>
			<point x="115" y="515"/>
			<point x="34" y="406"/>
			<point x="34" y="254" type="curve" smooth="yes"/>
			<point x="34" y="97"/>
			<point x="126" y="-7"/>
		</contour>
		<component base="SerifUpRightLower" xScale="-1" yScale="-1" xOffset="423" yOffset="425"/>
	</outline>
</glyph>
<glyph name="d" format="1">
  <advance width="570"/>
  <unicode hex="0064"/>
  <note>
    d
  </note>
  <outline>
    <contour>
      <point x="253" y="516" type="curve"/>
      <point x="254" y="516" type="line"/>
      <point x="187" y="516"/>
      <point x="133" y="490"/>
      <point x="93" y="440" type="curve" smooth="yes"/>
      <point x="54" y="392"/>
      <point x="34" y="328"/>
      <point x="34" y="252" type="curve" smooth="yes"/>
      <point x="34" y="168"/>
      <point x="52" y="105"/>
      <point x="86" y="60" type="curve" smooth="yes"/>
      <point x="120" y="16"/>
      <point x="166" y="-6"/>
      <point x="226" y="-6" type="curve" smooth="yes"/>
      <point x="292" y="-6"/>
      <point x="348" y="22"/>
      <point x="396" y="80" type="curve"/>
      <point x="404" y="19" type="line"/>
      <point x="408" y="7"/>
      <point x="416" y="0"/>
      <point x="428" y="0" type="curve" smooth="yes"/>
      <point x="552" y="0" type="line"/>
      <point x="552" y="44" type="line" smooth="yes"/>
      <point x="552" y="54"/>
      <point x="548" y="60"/>
      <point x="538" y="62" type="curve"/>
      <point x="532" y="64"/>
      <point x="512" y="68"/>
      <point x="480" y="74" type="curve"/>
      <point x="480" y="738" type="line"/>
      <point x="310" y="738" type="line"/>
      <point x="310" y="694" type="line" smooth="yes"/>
      <point x="310" y="684"/>
      <point x="315" y="678"/>
      <point x="325" y="676" type="curve" smooth="yes"/>
      <point x="335" y="674"/>
      <point x="358" y="670"/>
      <point x="392" y="664" type="curve"/>
      <point x="392" y="456" type="line"/>
      <point x="356" y="496"/>
      <point x="309" y="516"/>
    </contour>
    <contour>
      <point x="256" y="65" type="curve"/>
      <point x="255" y="66" type="line"/>
      <point x="235" y="66"/>
      <point x="216" y="69"/>
      <point x="200" y="76" type="curve" smooth="yes"/>
      <point x="150" y="98"/>
      <point x="126" y="156"/>
      <point x="126" y="252" type="curve" smooth="yes"/>
      <point x="126" y="314"/>
      <point x="138" y="362"/>
      <point x="164" y="396" type="curve" smooth="yes"/>
      <point x="190" y="430"/>
      <point x="227" y="446"/>
      <point x="275" y="446" type="curve" smooth="yes"/>
      <point x="323" y="446"/>
      <point x="362" y="426"/>
      <point x="392" y="386" type="curve"/>
      <point x="392" y="142" type="line"/>
      <point x="354" y="91"/>
      <point x="308" y="65"/>
    </contour>
    <contour>
      <point x="294" y="0" type="move" name="bottom"/>
    </contour>
    <contour>
      <point x="294" y="253" type="move" name="center"/>
    </contour>
    <contour>
      <point x="294" y="506" type="move" name="top"/>
    </contour>
    <contour>
      <point x="556" y="506" type="move" name="topright"/>
    </contour>
  </outline>
</glyph>
<glyph name="e" format="2">
	<advance width="515"/>
	<unicode hex="0065"/>
	<anchor x="281" y="0" name="ogonek"/>
	<anchor x="258" y="0" name="bottom"/>
	<anchor x="271" y="507" name="top"/>
	<note>
		e
	</note>
	<outline>
		<contour>
			<point x="276" y="-7" type="curve" smooth="yes"/>
			<point x="345" y="-7"/>
			<point x="433" y="19"/>
			<point x="474" y="71" type="curve"/>
			<point x="449" y="104" type="line" smooth="yes"/>
			<point x="445" y="109"/>
			<point x="439" y="112"/>
			<point x="432" y="112" type="curve" smooth="yes"/>
			<point x="412" y="112"/>
			<point x="345" y="63"/>
			<point x="283" y="63" type="curve" smooth="yes"/>
			<point x="187" y="63"/>
			<point x="129" y="128"/>
			<point x="122" y="240" type="curve" smooth="yes"/>
			<point x="122" y="245"/>
			<point x="122" y="249"/>
			<point x="122" y="253" type="curve"/>
			<point x="459" y="253" type="line" smooth="yes"/>
			<point x="476" y="253"/>
			<point x="481" y="260"/>
			<point x="481" y="288" type="curve" smooth="yes"/>
			<point x="481" y="427"/>
			<point x="396" y="515"/>
			<point x="271" y="515" type="curve" smooth="yes"/>
			<point x="126" y="515"/>
			<point x="34" y="406"/>
			<point x="34" y="264" type="curve" smooth="yes"/>
			<point x="34" y="97"/>
			<point x="129" y="-7"/>
		</contour>
		<contour>
			<point x="125" y="309" type="line"/>
			<point x="137" y="397"/>
			<point x="186" y="449"/>
			<point x="273" y="449" type="curve" smooth="yes"/>
			<point x="353" y="449"/>
			<point x="401" y="392"/>
			<point x="401" y="309" type="curve"/>
		</contour>
	</outline>
</glyph>
<glyph name="f" format="1">
  <advance width="307"/>
  <unicode hex="0066"/>
  <note>
    f
  </note>
  <outline>
    <contour>
      <point x="297" y="658" type="curve"/>
      <point x="296" y="658" type="line"/>
      <point x="311" y="658" type="line" smooth="yes"/>
      <point x="321" y="658"/>
      <point x="328" y="658"/>
      <point x="334" y="660" type="curve" smooth="yes"/>
      <point x="340" y="662"/>
      <point x="343" y="666"/>
      <point x="343" y="672" type="curve"/>
      <point x="345" y="717" type="line"/>
      <point x="325" y="723"/>
      <point x="304" y="727"/>
      <point x="282" y="727" type="curve" smooth="yes"/>
      <point x="228" y="727"/>
      <point x="186" y="712"/>
      <point x="155" y="680" type="curve" smooth="yes"/>
      <point x="123" y="648"/>
      <point x="108" y="603"/>
      <point x="108" y="545" type="curve" smooth="yes"/>
      <point x="108" y="496" type="line"/>
      <point x="28" y="496" type="line"/>
      <point x="28" y="460" type="line" smooth="yes"/>
      <point x="28" y="448"/>
      <point x="36" y="441"/>
      <point x="52" y="437" type="curve"/>
      <point x="108" y="430" type="line"/>
      <point x="108" y="73" type="line"/>
      <point x="46" y="62" type="line" smooth="yes"/>
      <point x="36" y="60"/>
      <point x="31" y="53"/>
      <point x="31" y="43" type="curve" smooth="yes"/>
      <point x="31" y="0" type="line"/>
      <point x="279" y="0" type="line"/>
      <point x="279" y="43" type="line" smooth="yes"/>
      <point x="279" y="53"/>
      <point x="274" y="60"/>
      <point x="264" y="62" type="curve" smooth="yes"/>
      <point x="259" y="63"/>
      <point x="237" y="67"/>
      <point x="197" y="73" type="curve"/>
      <point x="197" y="432" type="line"/>
      <point x="341" y="432" type="line"/>
      <point x="341" y="496" type="line"/>
      <point x="195" y="496" type="line"/>
      <point x="195" y="543" type="line" smooth="yes"/>
      <point x="195" y="620"/>
      <point x="229" y="658"/>
    </contour>
    <contour>
      <point x="185" y="0" type="move" name="bottom"/>
    </contour>
    <contour>
      <point x="185" y="506" type="move" name="top"/>
    </contour>
  </outline>
</glyph>
<glyph name="g" format="2">
	<advance width="504"/>
	<unicode hex="0067"/>
	<anchor x="231" y="507" name="top"/>
	<anchor x="236" y="-180" name="bottom"/>
	<note>
		g
	</note>
	<outline>
		<contour>
			<point x="231" y="515" type="curve"/>
			<point x="120" y="515"/>
			<point x="39" y="453"/>
			<point x="39" y="352" type="curve" smooth="yes"/>
			<point x="39" y="291"/>
			<point x="68" y="243"/>
			<point x="119" y="215" type="curve"/>
			<point x="80" y="195"/>
			<point x="54" y="159"/>
			<point x="54" y="129" type="curve" smooth="yes"/>
			<point x="54" y="92"/>
			<point x="73" y="70"/>
			<point x="101" y="57" type="curve"/>
			<point x="46" y="37"/>
			<point x="12" y="2"/>
			<point x="12" y="-49" type="curve" smooth="yes"/>
			<point x="12" y="-129"/>
			<point x="102" y="-183"/>
			<point x="234" y="-183" type="curve" smooth="yes"/>
			<point x="369" y="-183"/>
			<point x="471" y="-109"/>
			<point x="471" y="-13" type="curve" smooth="yes"/>
			<point x="471" y="78"/>
			<point x="392" y="97"/>
			<point x="301" y="105" type="curve" smooth="yes"/>
			<point x="226" y="110"/>
			<point x="131" y="103"/>
			<point x="131" y="153" type="curve" smooth="yes"/>
			<point x="131" y="168"/>
			<point x="143" y="184"/>
			<point x="164" y="197" type="curve"/>
			<point x="185" y="192"/>
			<point x="207" y="189"/>
			<point x="231" y="189" type="curve" smooth="yes"/>
			<point x="338" y="189"/>
			<point x="421" y="252"/>
			<point x="421" y="352" type="curve" smooth="yes"/>
			<point x="421" y="379"/>
			<point x="415" y="403"/>
			<point x="404" y="425" type="curve"/>
			<point x="461" y="433" type="line" smooth="yes"/>
			<point x="475" y="435"/>
			<point x="482" y="443"/>
			<point x="482" y="454" type="curve" smooth="yes"/>
			<point x="482" y="487" type="line"/>
			<point x="345" y="487" type="line"/>
			<point x="313" y="506"/>
			<point x="275" y="515"/>
		</contour>
		<contour>
			<point x="389" y="-28" type="curve"/>
			<point x="389" y="-86"/>
			<point x="322" y="-118"/>
			<point x="235" y="-118" type="curve" smooth="yes"/>
			<point x="148" y="-118"/>
			<point x="90" y="-88"/>
			<point x="90" y="-37" type="curve" smooth="yes"/>
			<point x="90" y="-1"/>
			<point x="117" y="24"/>
			<point x="154" y="43" type="curve"/>
			<point x="191" y="37"/>
			<point x="280" y="34"/>
			<point x="309" y="30" type="curve" smooth="yes"/>
			<point x="353" y="24"/>
			<point x="389" y="11"/>
		</contour>
		<contour>
			<point x="231" y="248" type="curve"/>
			<point x="162" y="248"/>
			<point x="121" y="288"/>
			<point x="121" y="350" type="curve" smooth="yes"/>
			<point x="121" y="411"/>
			<point x="159" y="451"/>
			<point x="231" y="451" type="curve" smooth="yes"/>
			<point x="303" y="451"/>
			<point x="341" y="411"/>
			<point x="341" y="350" type="curve" smooth="yes"/>
			<point x="341" y="288"/>
			<point x="300" y="248"/>
		</contour>
	</outline>
</glyph>
<glyph name="h" format="1">
  <advance width="617"/>
  <unicode hex="0068"/>
  <note>
    h
  </note>
  <outline>
    <contour>
      <point x="200" y="438" type="curve"/>
      <point x="200" y="736" type="line"/>
      <point x="28" y="736" type="line"/>
      <point x="28" y="694" type="line" smooth="yes"/>
      <point x="28" y="684"/>
      <point x="34" y="677"/>
      <point x="44" y="675" type="curve"/>
      <point x="50" y="673"/>
      <point x="72" y="669"/>
      <point x="110" y="663" type="curve"/>
      <point x="110" y="72" type="line"/>
      <point x="54" y="61" type="line" smooth="yes"/>
      <point x="44" y="59"/>
      <point x="38" y="52"/>
      <point x="38" y="42" type="curve" smooth="yes"/>
      <point x="38" y="0" type="line"/>
      <point x="272" y="0" type="line"/>
      <point x="272" y="42" type="line" smooth="yes"/>
      <point x="272" y="52"/>
      <point x="266" y="59"/>
      <point x="256" y="61" type="curve"/>
      <point x="252" y="62"/>
      <point x="238" y="65"/>
      <point x="212" y="70" type="curve" smooth="yes"/>
      <point x="200" y="72" type="line"/>
      <point x="200" y="372" type="line"/>
      <point x="242" y="419"/>
      <point x="286" y="443"/>
      <point x="336" y="443" type="curve" smooth="yes"/>
      <point x="407" y="443"/>
      <point x="443" y="402"/>
      <point x="443" y="322" type="curve" smooth="yes"/>
      <point x="443" y="0" type="line"/>
      <point x="604" y="0" type="line"/>
      <point x="604" y="42" type="line" smooth="yes"/>
      <point x="604" y="52"/>
      <point x="599" y="59"/>
      <point x="589" y="61" type="curve"/>
      <point x="583" y="63"/>
      <point x="564" y="67"/>
      <point x="532" y="73" type="curve"/>
      <point x="532" y="322" type="line" smooth="yes"/>
      <point x="532" y="380"/>
      <point x="517" y="428"/>
      <point x="488" y="462" type="curve" smooth="yes"/>
      <point x="458" y="497"/>
      <point x="416" y="514"/>
      <point x="362" y="514" type="curve" smooth="yes"/>
      <point x="301" y="514"/>
      <point x="248" y="488"/>
    </contour>
    <contour>
      <point x="317" y="0" type="move" name="bottom"/>
    </contour>
    <contour>
      <point x="317" y="253" type="move" name="center"/>
    </contour>
    <contour>
      <point x="317" y="506" type="move" name="top"/>
    </contour>
  </outline>
</glyph>
<glyph name="i" format="1">
  <advance width="274"/>
  <unicode hex="0069"/>
  <note>
    i
  </note>
  <outline>
    <contour>
      <point x="101" y="621" type="curve" smooth="yes"/>
      <point x="107" y="615"/>
      <point x="113" y="611"/>
      <point x="121" y="607" type="curve" smooth="yes"/>
      <point x="129" y="603"/>
      <point x="137" y="602"/>
      <point x="145" y="602" type="curve" smooth="yes"/>
      <point x="153" y="602"/>
      <point x="161" y="603"/>
      <point x="169" y="607" type="curve" smooth="yes"/>
      <point x="177" y="611"/>
      <point x="183" y="615"/>
      <point x="189" y="621" type="curve" smooth="yes"/>
      <point x="195" y="627"/>
      <point x="199" y="633"/>
      <point x="203" y="641" type="curve" smooth="yes"/>
      <point x="207" y="649"/>
      <point x="209" y="657"/>
      <point x="209" y="665" type="curve" smooth="yes"/>
      <point x="209" y="673"/>
      <point x="207" y="682"/>
      <point x="203" y="690" type="curve" smooth="yes"/>
      <point x="199" y="698"/>
      <point x="195" y="705"/>
      <point x="189" y="711" type="curve" smooth="yes"/>
      <point x="183" y="717"/>
      <point x="177" y="721"/>
      <point x="169" y="725" type="curve" smooth="yes"/>
      <point x="161" y="729"/>
      <point x="153" y="730"/>
      <point x="145" y="730" type="curve" smooth="yes"/>
      <point x="137" y="730"/>
      <point x="129" y="729"/>
      <point x="121" y="725" type="curve" smooth="yes"/>
      <point x="113" y="721"/>
      <point x="107" y="717"/>
      <point x="101" y="711" type="curve" smooth="yes"/>
      <point x="95" y="705"/>
      <point x="91" y="698"/>
      <point x="87" y="690" type="curve" smooth="yes"/>
      <point x="83" y="682"/>
      <point x="82" y="673"/>
      <point x="82" y="665" type="curve" smooth="yes"/>
      <point x="82" y="657"/>
      <point x="83" y="649"/>
      <point x="87" y="641" type="curve" smooth="yes"/>
      <point x="91" y="633"/>
      <point x="95" y="627"/>
    </contour>
    <contour>
      <point x="246" y="62" type="curve" smooth="yes"/>
      <point x="237" y="64"/>
      <point x="189" y="73"/>
      <point x="189" y="73" type="curve"/>
      <point x="189" y="506" type="line"/>
      <point x="28" y="506" type="line"/>
      <point x="28" y="464" type="line" smooth="yes"/>
      <point x="28" y="455"/>
      <point x="34" y="447"/>
      <point x="43" y="445" type="curve" smooth="yes"/>
      <point x="52" y="443"/>
      <point x="101" y="434"/>
      <point x="101" y="434" type="curve"/>
      <point x="101" y="73" type="line"/>
      <point x="101" y="73"/>
      <point x="52" y="64"/>
      <point x="43" y="62" type="curve" smooth="yes"/>
      <point x="34" y="60"/>
      <point x="28" y="52"/>
      <point x="28" y="43" type="curve" smooth="yes"/>
      <point x="28" y="0" type="line"/>
      <point x="261" y="0" type="line"/>
      <point x="261" y="43" type="line" smooth="yes"/>
      <point x="261" y="52"/>
      <point x="255" y="60"/>
    </contour>
    <contour>
      <point x="142" y="0" type="move" name="bottom"/>
    </contour>
  </outline>
</glyph>
<glyph name="j" format="1">
  <advance width="272"/>
  <unicode hex="006A"/>
  <note>
    j
  </note>
  <outline>
    <contour>
      <point x="203" y="690" type="curve" smooth="yes"/>
      <point x="199" y="698"/>
      <point x="195" y="705"/>
      <point x="189" y="711" type="curve" smooth="yes"/>
      <point x="183" y="717"/>
      <point x="177" y="721"/>
      <point x="169" y="725" type="curve" smooth="yes"/>
      <point x="161" y="729"/>
      <point x="153" y="730"/>
      <point x="145" y="730" type="curve" smooth="yes"/>
      <point x="137" y="730"/>
      <point x="129" y="729"/>
      <point x="121" y="725" type="curve" smooth="yes"/>
      <point x="113" y="721"/>
      <point x="107" y="717"/>
      <point x="101" y="711" type="curve" smooth="yes"/>
      <point x="95" y="705"/>
      <point x="91" y="698"/>
      <point x="87" y="690" type="curve" smooth="yes"/>
      <point x="83" y="682"/>
      <point x="82" y="673"/>
      <point x="82" y="665" type="curve" smooth="yes"/>
      <point x="82" y="657"/>
      <point x="83" y="649"/>
      <point x="87" y="641" type="curve" smooth="yes"/>
      <point x="91" y="633"/>
      <point x="95" y="627"/>
      <point x="101" y="621" type="curve" smooth="yes"/>
      <point x="107" y="615"/>
      <point x="113" y="611"/>
      <point x="121" y="607" type="curve" smooth="yes"/>
      <point x="129" y="603"/>
      <point x="137" y="602"/>
      <point x="145" y="602" type="curve" smooth="yes"/>
      <point x="153" y="602"/>
      <point x="161" y="603"/>
      <point x="169" y="607" type="curve" smooth="yes"/>
      <point x="177" y="611"/>
      <point x="183" y="615"/>
      <point x="189" y="621" type="curve" smooth="yes"/>
      <point x="195" y="627"/>
      <point x="199" y="633"/>
      <point x="203" y="641" type="curve" smooth="yes"/>
      <point x="207" y="649"/>
      <point x="208" y="657"/>
      <point x="208" y="665" type="curve" smooth="yes"/>
      <point x="208" y="673"/>
      <point x="207" y="682"/>
    </contour>
    <contour>
      <point x="110" y="-171" type="curve"/>
      <point x="110" y="-172" type="line"/>
      <point x="162" y="-150"/>
      <point x="187" y="-106"/>
      <point x="187" y="-38" type="curve" smooth="yes"/>
      <point x="187" y="506" type="line"/>
      <point x="99" y="506" type="line"/>
      <point x="27" y="506" type="line"/>
      <point x="27" y="463" type="line" smooth="yes"/>
      <point x="27" y="453"/>
      <point x="31" y="446"/>
      <point x="41" y="444" type="curve" smooth="yes"/>
      <point x="69" y="438"/>
      <point x="89" y="435"/>
      <point x="99" y="433" type="curve"/>
      <point x="99" y="-38" type="line" smooth="yes"/>
      <point x="99" y="-65"/>
      <point x="93" y="-84"/>
      <point x="82" y="-96" type="curve" smooth="yes"/>
      <point x="71" y="-108"/>
      <point x="53" y="-114"/>
      <point x="27" y="-114" type="curve" smooth="yes"/>
      <point x="7" y="-114" type="line" smooth="yes"/>
      <point x="-3" y="-114"/>
      <point x="-8" y="-118"/>
      <point x="-9" y="-124" type="curve"/>
      <point x="-13" y="-172" type="line"/>
      <point x="5" y="-178"/>
      <point x="27" y="-182"/>
      <point x="49" y="-182" type="curve" smooth="yes"/>
      <point x="71" y="-182"/>
      <point x="92" y="-179"/>
    </contour>
  </outline>
</glyph>
<glyph name="k" format="1">
  <advance width="563"/>
  <unicode hex="006B"/>
  <note>
    k
  </note>
  <outline>
    <contour>
      <point x="531" y="62" type="curve"/>
      <point x="532" y="62" type="line"/>
      <point x="528" y="62"/>
      <point x="517" y="64"/>
      <point x="500" y="68" type="curve"/>
      <point x="474" y="72" type="line"/>
      <point x="334" y="250" type="line"/>
      <point x="326" y="264"/>
      <point x="316" y="273"/>
      <point x="304" y="281" type="curve"/>
      <point x="314" y="287"/>
      <point x="323" y="296"/>
      <point x="333" y="308" type="curve"/>
      <point x="451" y="434" type="line"/>
      <point x="484" y="440"/>
      <point x="505" y="444"/>
      <point x="513" y="446" type="curve" smooth="yes"/>
      <point x="521" y="448"/>
      <point x="526" y="454"/>
      <point x="526" y="464" type="curve" smooth="yes"/>
      <point x="526" y="506" type="line"/>
      <point x="520" y="506" type="line"/>
      <point x="438" y="506" type="line"/>
      <point x="314" y="506" type="line"/>
      <point x="314" y="464" type="line" smooth="yes"/>
      <point x="314" y="454"/>
      <point x="320" y="447"/>
      <point x="330" y="445" type="curve"/>
      <point x="334" y="444"/>
      <point x="338" y="444"/>
      <point x="346" y="442" type="curve"/>
      <point x="350" y="442"/>
      <point x="354" y="440"/>
      <point x="358" y="440" type="curve"/>
      <point x="244" y="318" type="line"/>
      <point x="236" y="308"/>
      <point x="224" y="304"/>
      <point x="212" y="304" type="curve" smooth="yes"/>
      <point x="190" y="304" type="line"/>
      <point x="190" y="737" type="line"/>
      <point x="100" y="737" type="line"/>
      <point x="28" y="737" type="line"/>
      <point x="28" y="694" type="line" smooth="yes"/>
      <point x="28" y="684"/>
      <point x="33" y="678"/>
      <point x="43" y="676" type="curve"/>
      <point x="49" y="674"/>
      <point x="68" y="670"/>
      <point x="100" y="664" type="curve"/>
      <point x="100" y="73" type="line"/>
      <point x="43" y="62" type="line" smooth="yes"/>
      <point x="33" y="60"/>
      <point x="28" y="53"/>
      <point x="28" y="43" type="curve" smooth="yes"/>
      <point x="28" y="0" type="line"/>
      <point x="262" y="0" type="line"/>
      <point x="262" y="43" type="line" smooth="yes"/>
      <point x="262" y="53"/>
      <point x="256" y="60"/>
      <point x="246" y="62" type="curve" smooth="yes"/>
      <point x="212" y="69"/>
      <point x="194" y="73"/>
      <point x="190" y="73" type="curve"/>
      <point x="190" y="242" type="line"/>
      <point x="214" y="242" type="line" smooth="yes"/>
      <point x="224" y="242"/>
      <point x="232" y="241"/>
      <point x="237" y="239" type="curve" smooth="yes"/>
      <point x="242" y="237"/>
      <point x="247" y="233"/>
      <point x="252" y="226" type="curve"/>
      <point x="418" y="18" type="line" smooth="yes"/>
      <point x="428" y="6"/>
      <point x="439" y="0"/>
      <point x="452" y="0" type="curve" smooth="yes"/>
      <point x="546" y="0" type="line"/>
      <point x="546" y="44" type="line" smooth="yes"/>
      <point x="546" y="54"/>
      <point x="541" y="60"/>
    </contour>
    <contour>
      <point x="285" y="0" type="move" name="bottom"/>
    </contour>
    <contour>
      <point x="285" y="506" type="move" name="top"/>
    </contour>
  </outline>
</glyph>
<glyph name="l" format="2">
	<advance width="279"/>
	<unicode hex="006C"/>
	<anchor x="145" y="403" name="center"/>
	<anchor x="145" y="737" name="top"/>
	<anchor x="253" y="737" name="topright"/>
	<anchor x="145" y="0" name="bottom"/>
	<note>
		l
	</note>
	<outline>
		<contour>
			<point x="100" y="0" type="line"/>
			<point x="189" y="0" type="line"/>
			<point x="189" y="737" type="line"/>
			<point x="100" y="737" type="line"/>
		</contour>
		<component base="SerifBottomLeft" xOffset="100"/>
		<component base="SerifBottomRight" xOffset="189"/>
		<component base="SerifSpurLeft" xOffset="100" yOffset="737"/>
	</outline>
</glyph>
<glyph name="m" format="2">
	<advance width="872"/>
	<unicode hex="006D"/>
	<anchor x="436" y="507" name="top"/>
	<anchor x="436" y="0" name="bottom"/>
	<note>
		m
	</note>
	<outline>
		<contour>
			<point x="100" y="0" type="line"/>
			<point x="189" y="0" type="line"/>
			<point x="189" y="378" type="line"/>
			<point x="221" y="418"/>
			<point x="258" y="444"/>
			<point x="302" y="444" type="curve" smooth="yes"/>
			<point x="365" y="444"/>
			<point x="398" y="404"/>
			<point x="398" y="323" type="curve" smooth="yes"/>
			<point x="398" y="0" type="line"/>
			<point x="487" y="0" type="line"/>
			<point x="487" y="323" type="line" smooth="yes"/>
			<point x="487" y="397"/>
			<point x="535" y="444"/>
			<point x="596" y="444" type="curve" smooth="yes"/>
			<point x="663" y="444"/>
			<point x="698" y="402"/>
			<point x="698" y="323" type="curve" smooth="yes"/>
			<point x="698" y="0" type="line"/>
			<point x="787" y="0" type="line"/>
			<point x="787" y="323" type="line" smooth="yes"/>
			<point x="787" y="441"/>
			<point x="726" y="515"/>
			<point x="618" y="515" type="curve" smooth="yes"/>
			<point x="548" y="515"/>
			<point x="484" y="481"/>
			<point x="456" y="409" type="curve"/>
			<point x="437" y="474"/>
			<point x="396" y="515"/>
			<point x="327" y="515" type="curve" smooth="yes"/>
			<point x="266" y="515"/>
			<point x="221" y="483"/>
			<point x="184" y="436" type="curve"/>
			<point x="177" y="488" type="line"/>
			<point x="174" y="501"/>
			<point x="166" y="507"/>
			<point x="153" y="507" type="curve" smooth="yes"/>
			<point x="100" y="507" type="line"/>
		</contour>
		<component base="SerifBottomLeft" xOffset="100"/>
		<component base="SerifBottomRight" xOffset="189"/>
		<component base="SerifBottomRight" xOffset="487"/>
		<component base="SerifSpurLeft" xOffset="100" yOffset="507"/>
		<component base="SerifBottomRight" xOffset="787"/>
	</outline>
</glyph>
<glyph name="n" format="2">
	<advance width="607"/>
	<unicode hex="006E"/>
	<anchor x="307" y="506" name="top"/>
	<anchor x="307" y="0" name="bottom"/>
	<note>
		n
	</note>
	<outline>
		<contour>
			<point x="100" y="0" type="line"/>
			<point x="189" y="0" type="line"/>
			<point x="189" y="373" type="line"/>
			<point x="227.667" y="417"/>
			<point x="274" y="444"/>
			<point x="326" y="444" type="curve" smooth="yes"/>
			<point x="398" y="444"/>
			<point x="433" y="399"/>
			<point x="433" y="323" type="curve" smooth="yes"/>
			<point x="433" y="0" type="line"/>
			<point x="522" y="0" type="line"/>
			<point x="522" y="323" type="line" smooth="yes"/>
			<point x="522" y="437.021"/>
			<point x="463.22" y="515"/>
			<point x="352" y="515" type="curve" smooth="yes"/>
			<point x="281.333" y="515"/>
			<point x="228" y="482.333"/>
			<point x="184" y="433" type="curve"/>
			<point x="177" y="488" type="line"/>
			<point x="173.667" y="500.667"/>
			<point x="165.667" y="507"/>
			<point x="153" y="507" type="curve" smooth="yes"/>
			<point x="100" y="507" type="line"/>
		</contour>
		<component base="SerifBottomLeft" xOffset="100"/>
		<component base="SerifBottomRight" xOffset="189"/>
		<component base="SerifBottomRight" xOffset="522"/>
		<component base="SerifSpurLeft" xOffset="100" yOffset="507"/>
	</outline>
</glyph>
<glyph name="o" format="1">
  <advance width="552"/>
  <unicode hex="006F"/>
  <note>
    o
  </note>
  <outline>
    <contour>
      <point x="276" y="514" type="curve" smooth="yes"/>
      <point x="239" y="514"/>
      <point x="206" y="508"/>
      <point x="176" y="496" type="curve" smooth="yes"/>
      <point x="146" y="484"/>
      <point x="120" y="466"/>
      <point x="99" y="444" type="curve" smooth="yes"/>
      <point x="78" y="422"/>
      <point x="62" y="394"/>
      <point x="50" y="362" type="curve" smooth="yes"/>
      <point x="38" y="330"/>
      <point x="34" y="294"/>
      <point x="34" y="254" type="curve" smooth="yes"/>
      <point x="34" y="214"/>
      <point x="38" y="178"/>
      <point x="50" y="146" type="curve" smooth="yes"/>
      <point x="62" y="114"/>
      <point x="78" y="86"/>
      <point x="99" y="64" type="curve" smooth="yes"/>
      <point x="120" y="42"/>
      <point x="146" y="24"/>
      <point x="176" y="12" type="curve" smooth="yes"/>
      <point x="206" y="0"/>
      <point x="239" y="-6"/>
      <point x="276" y="-6" type="curve" smooth="yes"/>
      <point x="313" y="-6"/>
      <point x="346" y="0"/>
      <point x="376" y="12" type="curve" smooth="yes"/>
      <point x="406" y="24"/>
      <point x="432" y="42"/>
      <point x="453" y="64" type="curve" smooth="yes"/>
      <point x="474" y="86"/>
      <point x="490" y="114"/>
      <point x="501" y="146" type="curve" smooth="yes"/>
      <point x="512" y="178"/>
      <point x="518" y="214"/>
      <point x="518" y="254" type="curve" smooth="yes"/>
      <point x="518" y="294"/>
      <point x="512" y="330"/>
      <point x="501" y="362" type="curve" smooth="yes"/>
      <point x="490" y="394"/>
      <point x="474" y="422"/>
      <point x="453" y="444" type="curve" smooth="yes"/>
      <point x="432" y="466"/>
      <point x="406" y="484"/>
      <point x="376" y="496" type="curve" smooth="yes"/>
      <point x="346" y="508"/>
      <point x="313" y="514"/>
    </contour>
    <contour>
      <point x="276" y="62" type="curve" smooth="yes"/>
      <point x="250" y="62"/>
      <point x="228" y="68"/>
      <point x="210" y="76" type="curve" smooth="yes"/>
      <point x="192" y="84"/>
      <point x="176" y="96"/>
      <point x="164" y="112" type="curve" smooth="yes"/>
      <point x="152" y="128"/>
      <point x="142" y="148"/>
      <point x="136" y="172" type="curve" smooth="yes"/>
      <point x="130" y="196"/>
      <point x="126" y="222"/>
      <point x="126" y="252" type="curve" smooth="yes"/>
      <point x="126" y="282"/>
      <point x="130" y="310"/>
      <point x="136" y="334" type="curve" smooth="yes"/>
      <point x="142" y="358"/>
      <point x="152" y="378"/>
      <point x="164" y="394" type="curve" smooth="yes"/>
      <point x="176" y="410"/>
      <point x="192" y="424"/>
      <point x="210" y="432" type="curve" smooth="yes"/>
      <point x="228" y="440"/>
      <point x="250" y="444"/>
      <point x="276" y="444" type="curve" smooth="yes"/>
      <point x="326" y="444"/>
      <point x="364" y="428"/>
      <point x="388" y="394" type="curve" smooth="yes"/>
      <point x="412" y="360"/>
      <point x="425" y="313"/>
      <point x="425" y="253" type="curve" smooth="yes"/>
      <point x="425" y="193"/>
      <point x="412" y="146"/>
      <point x="388" y="112" type="curve" smooth="yes"/>
      <point x="364" y="78"/>
      <point x="326" y="62"/>
    </contour>
    <contour>
      <point x="276" y="0" type="move" name="bottom"/>
    </contour>
    <contour>
      <point x="276" y="253" type="move" name="center"/>
    </contour>
    <contour>
      <point x="487" y="10" type="move" name="ogonek"/>
    </contour>
    <contour>
      <point x="276" y="506" type="move" name="top"/>
    </contour>
    <contour>
      <point x="520" y="506" type="move" name="topright"/>
    </contour>
  </outline>
</glyph>
<glyph name="p" format="1">
  <advance width="582"/>
  <unicode hex="0070"/>
  <note>
    p
  </note>
  <outline>
    <contour>
      <point x="186" y="428" type="curve"/>
      <point x="185" y="428" type="line"/>
      <point x="178" y="488" type="line"/>
      <point x="174" y="500"/>
      <point x="166" y="506"/>
      <point x="154" y="506" type="curve" smooth="yes"/>
      <point x="100" y="506" type="line"/>
      <point x="28" y="506" type="line"/>
      <point x="28" y="464" type="line" smooth="yes"/>
      <point x="28" y="454"/>
      <point x="34" y="447"/>
      <point x="44" y="445" type="curve"/>
      <point x="50" y="443"/>
      <point x="68" y="439"/>
      <point x="100" y="433" type="curve"/>
      <point x="100" y="-99" type="line"/>
      <point x="44" y="-110" type="line" smooth="yes"/>
      <point x="34" y="-112"/>
      <point x="28" y="-119"/>
      <point x="28" y="-129" type="curve" smooth="yes"/>
      <point x="28" y="-172" type="line"/>
      <point x="262" y="-172" type="line"/>
      <point x="262" y="-129" type="line" smooth="yes"/>
      <point x="262" y="-119"/>
      <point x="256" y="-112"/>
      <point x="246" y="-110" type="curve"/>
      <point x="244" y="-110"/>
      <point x="234" y="-108"/>
      <point x="217" y="-104" type="curve" smooth="yes"/>
      <point x="200" y="-100"/>
      <point x="191" y="-98"/>
      <point x="190" y="-98" type="curve"/>
      <point x="190" y="52" type="line"/>
      <point x="226" y="12"/>
      <point x="274" y="-7"/>
      <point x="336" y="-7" type="curve" smooth="yes"/>
      <point x="398" y="-7"/>
      <point x="450" y="19"/>
      <point x="490" y="69" type="curve" smooth="yes"/>
      <point x="528" y="117"/>
      <point x="548" y="180"/>
      <point x="548" y="256" type="curve" smooth="yes"/>
      <point x="548" y="339"/>
      <point x="530" y="404"/>
      <point x="496" y="450" type="curve" smooth="yes"/>
      <point x="462" y="494"/>
      <point x="416" y="516"/>
      <point x="356" y="516" type="curve" smooth="yes"/>
      <point x="290" y="516"/>
      <point x="234" y="486"/>
    </contour>
    <contour>
      <point x="190" y="122" type="curve"/>
      <point x="190" y="367" type="line"/>
      <point x="228" y="418"/>
      <point x="274" y="444"/>
      <point x="326" y="444" type="curve" smooth="yes"/>
      <point x="412" y="444"/>
      <point x="456" y="380"/>
      <point x="456" y="256" type="curve" smooth="yes"/>
      <point x="456" y="194"/>
      <point x="444" y="146"/>
      <point x="418" y="112" type="curve" smooth="yes"/>
      <point x="392" y="78"/>
      <point x="354" y="62"/>
      <point x="306" y="62" type="curve" smooth="yes"/>
      <point x="258" y="62"/>
      <point x="220" y="82"/>
    </contour>
    <contour>
      <point x="292" y="0" type="move" name="bottom"/>
    </contour>
    <contour>
      <point x="292" y="506" type="move" name="top"/>
    </contour>
  </outline>
</glyph>
<glyph name="q" format="2">
	<advance width="554"/>
	<unicode hex="0071"/>
	<note>
		q
	</note>
	<outline>
		<contour>
			<point x="390" y="-172" type="line"/>
			<point x="479" y="-172" type="line"/>
			<point x="480" y="490" type="line"/>
			<point x="410" y="508"/>
			<point x="346" y="517"/>
			<point x="282" y="517" type="curve" smooth="yes"/>
			<point x="105" y="517"/>
			<point x="34" y="406"/>
			<point x="34" y="246" type="curve" smooth="yes"/>
			<point x="34" y="98"/>
			<point x="102" y="-6"/>
			<point x="225" y="-6" type="curve" smooth="yes"/>
			<point x="295" y="-6"/>
			<point x="350" y="27"/>
			<point x="391" y="75" type="curve"/>
		</contour>
		<contour>
			<point x="255" y="65" type="curve" smooth="yes"/>
			<point x="167" y="65"/>
			<point x="126" y="129"/>
			<point x="126" y="249" type="curve" smooth="yes"/>
			<point x="126" y="384"/>
			<point x="177" y="448"/>
			<point x="283" y="448" type="curve" smooth="yes"/>
			<point x="317" y="448"/>
			<point x="351" y="442"/>
			<point x="391" y="432" type="curve"/>
			<point x="391" y="142" type="line"/>
			<point x="355" y="93"/>
			<point x="312" y="65"/>
		</contour>
		<component base="SerifBottomLeft" xOffset="380" yOffset="-172"/>
		<component base="SerifBottomRight" xOffset="469" yOffset="-172"/>
	</outline>
</glyph>
<glyph name="r" format="2">
	<advance width="422"/>
	<unicode hex="0072"/>
	<anchor x="229" y="507" name="top"/>
	<anchor x="147" y="0" name="bottom"/>
	<note>
		r
	</note>
	<outline>
		<contour>
			<point x="100" y="0" type="line"/>
			<point x="189" y="0" type="line"/>
			<point x="189" y="323" type="line"/>
			<point x="217" y="391"/>
			<point x="258" y="428"/>
			<point x="319" y="428" type="curve" smooth="yes"/>
			<point x="339" y="428"/>
			<point x="371" y="419"/>
			<point x="381" y="419" type="curve" smooth="yes"/>
			<point x="389" y="419"/>
			<point x="396" y="423"/>
			<point x="397" y="431" type="curve" smooth="yes"/>
			<point x="408" y="498" type="line"/>
			<point x="389" y="509"/>
			<point x="367" y="516"/>
			<point x="339" y="516" type="curve" smooth="yes"/>
			<point x="270" y="516"/>
			<point x="220" y="474"/>
			<point x="185" y="403" type="curve"/>
			<point x="179" y="482" type="line" smooth="yes"/>
			<point x="178" y="501"/>
			<point x="171" y="507"/>
			<point x="151" y="507" type="curve" smooth="yes"/>
			<point x="100" y="507" type="line"/>
		</contour>
		<component base="SerifBottomRight" xOffset="189"/>
		<component base="SerifBottomLeft" xOffset="100"/>
		<component base="SerifSpurLeft" xOffset="100" yOffset="507"/>
	</outline>
</glyph>
<glyph name="s" format="2">
	<advance width="426"/>
	<unicode hex="0073"/>
	<anchor x="213" y="507" name="top"/>
	<anchor x="203" y="0" name="bottom"/>
	<note>
		s
	</note>
	<outline>
		<contour>
			<point x="199" y="-8" type="curve" smooth="yes"/>
			<point x="314" y="-8"/>
			<point x="389" y="60"/>
			<point x="389" y="151" type="curve" smooth="yes"/>
			<point x="389" y="235"/>
			<point x="325" y="266"/>
			<point x="259" y="287" type="curve" smooth="yes"/>
			<point x="203" y="305"/>
			<point x="126" y="321"/>
			<point x="126" y="377" type="curve" smooth="yes"/>
			<point x="126" y="419"/>
			<point x="168" y="448"/>
			<point x="226" y="448" type="curve" smooth="yes"/>
			<point x="252" y="448"/>
			<point x="282" y="442"/>
			<point x="310" y="434" type="curve"/>
			<point x="363" y="427" type="line"/>
			<point x="363" y="487" type="line"/>
			<point x="307" y="506"/>
			<point x="260" y="515"/>
			<point x="221" y="515" type="curve" smooth="yes"/>
			<point x="118" y="515"/>
			<point x="42" y="453"/>
			<point x="42" y="364" type="curve" smooth="yes"/>
			<point x="42" y="285"/>
			<point x="101" y="254"/>
			<point x="174" y="230" type="curve" smooth="yes"/>
			<point x="244" y="207"/>
			<point x="305" y="197"/>
			<point x="305" y="137" type="curve" smooth="yes"/>
			<point x="305" y="92"/>
			<point x="270" y="56"/>
			<point x="194" y="56" type="curve" smooth="yes"/>
			<point x="143" y="56"/>
			<point x="103" y="72"/>
			<point x="86" y="84" type="curve"/>
			<point x="42" y="94" type="line"/>
			<point x="42" y="20" type="line"/>
			<point x="85" y="4"/>
			<point x="151" y="-8"/>
		</contour>
		<component base="SerifUpRightLower" xScale="-1" yScale="-1" xOffset="363" yOffset="435"/>
		<component base="SerifUpRightLower" xOffset="42" yOffset="74"/>
	</outline>
</glyph>
<glyph name="t" format="2">
	<advance width="363"/>
	<unicode hex="0074"/>
	<anchor x="182" y="313" name="center"/>
	<anchor x="155" y="671" name="top"/>
	<anchor x="343" y="507" name="topright"/>
	<anchor x="218" y="0" name="bottom"/>
	<note>
		t
	</note>
	<outline>
		<contour>
			<point x="218" y="-8" type="curve"/>
			<point x="263" y="-8"/>
			<point x="309" y="10"/>
			<point x="340" y="38" type="curve"/>
			<point x="314" y="81" type="line" smooth="yes"/>
			<point x="311" y="86"/>
			<point x="307" y="89"/>
			<point x="302" y="89" type="curve" smooth="yes"/>
			<point x="292" y="89"/>
			<point x="260" y="65"/>
			<point x="238" y="65" type="curve" smooth="yes"/>
			<point x="205" y="65"/>
			<point x="182" y="85"/>
			<point x="182" y="128" type="curve" smooth="yes"/>
			<point x="182" y="432" type="line"/>
			<point x="327" y="432" type="line"/>
			<point x="327" y="497" type="line"/>
			<point x="182" y="497" type="line"/>
			<point x="182" y="671" type="line"/>
			<point x="137" y="671" type="line" smooth="yes"/>
			<point x="126" y="671"/>
			<point x="118" y="665"/>
			<point x="117" y="654" type="curve" smooth="yes"/>
			<point x="96" y="498" type="line"/>
			<point x="13" y="487" type="line"/>
			<point x="13" y="452" type="line" smooth="yes"/>
			<point x="13" y="439"/>
			<point x="21" y="432"/>
			<point x="32" y="432" type="curve" smooth="yes"/>
			<point x="93" y="432" type="line"/>
			<point x="93" y="122" type="line" smooth="yes"/>
			<point x="93" y="38"/>
			<point x="138" y="-8"/>
		</contour>
	</outline>
</glyph>
<glyph name="u" format="2">
	<advance width="585"/>
	<unicode hex="0075"/>
	<anchor x="502" y="4" name="ogonek"/>
	<anchor x="274" y="507" name="top"/>
	<anchor x="489" y="507" name="topright"/>
	<anchor x="262" y="0" name="bottom"/>
	<note>
		u
	</note>
	<outline>
		<contour>
			<point x="248" y="-8" type="curve" smooth="yes"/>
			<point x="319" y="-8"/>
			<point x="372" y="25"/>
			<point x="416" y="73" type="curve"/>
			<point x="423" y="19" type="line"/>
			<point x="426" y="6"/>
			<point x="434" y="0"/>
			<point x="447" y="0" type="curve" smooth="yes"/>
			<point x="500" y="0" type="line"/>
			<point x="500" y="507" type="line"/>
			<point x="411" y="507" type="line"/>
			<point x="411" y="133" type="line"/>
			<point x="372" y="89"/>
			<point x="326" y="63"/>
			<point x="274" y="63" type="curve" smooth="yes"/>
			<point x="202" y="63"/>
			<point x="167" y="107"/>
			<point x="167" y="184" type="curve" smooth="yes"/>
			<point x="167" y="507" type="line"/>
			<point x="78" y="507" type="line"/>
			<point x="78" y="184" type="line" smooth="yes"/>
			<point x="78" y="70"/>
			<point x="137" y="-8"/>
		</contour>
		<component base="SerifBottomRight" xOffset="500"/>
		<component base="SerifSpurLeft" xOffset="78" yOffset="507"/>
		<component base="SerifSpurLeft" xOffset="411" yOffset="507"/>
	</outline>
</glyph>
<glyph name="v" format="2">
	<advance width="598"/>
	<unicode hex="0076"/>
	<anchor x="299" y="507" name="top"/>
	<anchor x="299" y="0" name="bottom"/>
	<note>
		v
	</note>
	<outline>
		<contour>
			<point x="259" y="0" type="line"/>
			<point x="339" y="0" type="line"/>
			<point x="546" y="507" type="line"/>
			<point x="476" y="507" type="line" smooth="yes"/>
			<point x="463" y="507"/>
			<point x="454" y="499"/>
			<point x="450" y="488" type="curve" smooth="yes"/>
			<point x="320" y="162" type="line" smooth="yes"/>
			<point x="310" y="138"/>
			<point x="305" y="114"/>
			<point x="300" y="91" type="curve"/>
			<point x="293" y="123"/>
			<point x="288" y="145"/>
			<point x="281" y="162" type="curve" smooth="yes"/>
			<point x="153" y="488" type="line" smooth="yes"/>
			<point x="149" y="499"/>
			<point x="140" y="507"/>
			<point x="125" y="507" type="curve" smooth="yes"/>
			<point x="52" y="507" type="line"/>
		</contour>
		<contour>
			<point x="114" y="482" type="line"/>
			<point x="189" y="482" type="line"/>
			<point x="189" y="507" type="line"/>
			<point x="114" y="507" type="line"/>
		</contour>
		<contour>
			<point x="425" y="482" type="line"/>
			<point x="500" y="482" type="line"/>
			<point x="500" y="507" type="line"/>
			<point x="425" y="507" type="line"/>
		</contour>
		<component base="SerifSpurLeft" xOffset="90" yOffset="507"/>
		<component base="SerifSpurRight" xOffset="173" yOffset="507"/>
		<component base="SerifSpurLeft" xOffset="425" yOffset="507"/>
		<component base="SerifSpurRight" xOffset="508" yOffset="507"/>
	</outline>
</glyph>
<glyph name="w" format="2">
	<advance width="875"/>
	<unicode hex="0077"/>
	<anchor x="438" y="507" name="top"/>
	<anchor x="438" y="0" name="bottom"/>
	<note>
		w
	</note>
	<outline>
		<contour>
			<point x="225" y="0" type="line"/>
			<point x="292" y="0" type="line" smooth="yes"/>
			<point x="302" y="0"/>
			<point x="309" y="6"/>
			<point x="313" y="17" type="curve" smooth="yes"/>
			<point x="426" y="360" type="line" smooth="yes"/>
			<point x="432" y="379"/>
			<point x="435" y="395"/>
			<point x="438" y="407" type="curve"/>
			<point x="441" y="392"/>
			<point x="444" y="376"/>
			<point x="449" y="361" type="curve" smooth="yes"/>
			<point x="561" y="17" type="line" smooth="yes"/>
			<point x="565" y="6"/>
			<point x="570" y="0"/>
			<point x="579" y="0" type="curve" smooth="yes"/>
			<point x="650" y="0" type="line"/>
			<point x="814" y="507" type="line"/>
			<point x="747" y="507" type="line" smooth="yes"/>
			<point x="734" y="507"/>
			<point x="724" y="499"/>
			<point x="721" y="488" type="curve" smooth="yes"/>
			<point x="622" y="162" type="line" smooth="yes"/>
			<point x="616" y="142"/>
			<point x="610" y="117"/>
			<point x="607" y="94" type="curve"/>
			<point x="602" y="117"/>
			<point x="596" y="139"/>
			<point x="589" y="162" type="curve" smooth="yes"/>
			<point x="484" y="490" type="line" smooth="yes"/>
			<point x="481" y="500"/>
			<point x="472" y="508"/>
			<point x="459" y="508" type="curve" smooth="yes"/>
			<point x="420" y="508" type="line" smooth="yes"/>
			<point x="408" y="508"/>
			<point x="399" y="500"/>
			<point x="396" y="490" type="curve" smooth="yes"/>
			<point x="289" y="162" type="line" smooth="yes"/>
			<point x="281" y="138"/>
			<point x="274" y="117"/>
			<point x="269" y="94" type="curve"/>
			<point x="266" y="117"/>
			<point x="261" y="138"/>
			<point x="256" y="162" type="curve" smooth="yes"/>
			<point x="159" y="488" type="line" smooth="yes"/>
			<point x="156" y="499"/>
			<point x="146" y="507"/>
			<point x="131" y="507" type="curve" smooth="yes"/>
			<point x="61" y="507" type="line"/>
		</contour>
		<contour>
			<point x="114" y="482" type="line"/>
			<point x="189" y="482" type="line"/>
			<point x="189" y="507" type="line"/>
			<point x="114" y="507" type="line"/>
		</contour>
		<contour>
			<point x="702" y="482" type="line"/>
			<point x="777" y="482" type="line"/>
			<point x="777" y="507" type="line"/>
			<point x="702" y="507" type="line"/>
		</contour>
		<component base="SerifSpurLeft" xOffset="90" yOffset="507"/>
		<component base="SerifSpurRight" xOffset="173" yOffset="507"/>
		<component base="SerifSpurLeft" xOffset="702" yOffset="507"/>
		<component base="SerifSpurRight" xOffset="785" yOffset="507"/>
	</outline>
</glyph>
<glyph name="x" format="2">
	<advance width="554"/>
	<unicode hex="0078"/>
	<anchor x="277" y="507" name="top"/>
	<anchor x="277" y="0" name="bottom"/>
	<note>
		x
	</note>
	<outline>
		<contour>
			<point x="38" y="0" type="line"/>
			<point x="38" y="0" type="line"/>
			<point x="118" y="0" type="line" smooth="yes"/>
			<point x="131" y="0"/>
			<point x="138" y="10"/>
			<point x="144" y="19" type="curve" smooth="yes"/>
			<point x="262" y="191" type="line" smooth="yes"/>
			<point x="267" y="199"/>
			<point x="270" y="208"/>
			<point x="273" y="217" type="curve"/>
			<point x="400" y="19" type="line" smooth="yes"/>
			<point x="406" y="10"/>
			<point x="413" y="0"/>
			<point x="428" y="0" type="curve" smooth="yes"/>
			<point x="513" y="0" type="line"/>
			<point x="336" y="265" type="line"/>
			<point x="506" y="507" type="line"/>
			<point x="424" y="507" type="line" smooth="yes"/>
			<point x="415" y="507"/>
			<point x="408" y="500"/>
			<point x="402" y="491" type="curve" smooth="yes"/>
			<point x="293" y="331" type="line" smooth="yes"/>
			<point x="287" y="322"/>
			<point x="283" y="312"/>
			<point x="280" y="303" type="curve"/>
			<point x="156" y="493" type="line" smooth="yes"/>
			<point x="150" y="502"/>
			<point x="146" y="507"/>
			<point x="131" y="507" type="curve" smooth="yes"/>
			<point x="45" y="507" type="line"/>
			<point x="216" y="260" type="line"/>
		</contour>
		<contour>
			<point x="107" y="469" type="line"/>
			<point x="181" y="469" type="line"/>
			<point x="181" y="507" type="line"/>
			<point x="107" y="507" type="line"/>
		</contour>
		<contour>
			<point x="380" y="469" type="line"/>
			<point x="454" y="469" type="line"/>
			<point x="454" y="507" type="line"/>
			<point x="380" y="507" type="line"/>
		</contour>
		<contour>
			<point x="452" y="38" type="line"/>
			<point x="378" y="38" type="line"/>
			<point x="378" y="0" type="line"/>
			<point x="452" y="0" type="line"/>
		</contour>
		<contour>
			<point x="168" y="38" type="line"/>
			<point x="94" y="38" type="line"/>
			<point x="94" y="0" type="line"/>
			<point x="168" y="0" type="line"/>
		</contour>
		<component base="SerifSpurLeft" xOffset="106" yOffset="507"/>
		<component base="SerifSpurRight" xOffset="162" yOffset="507"/>
		<component base="SerifSpurLeft" xOffset="389" yOffset="507"/>
		<component base="SerifSpurRight" xOffset="445" yOffset="507"/>
		<component base="SerifSpurLeft" xScale="-1" yScale="-1" xOffset="452"/>
		<component base="SerifSpurLeft" xScale="-1" yScale="-1" xOffset="158"/>
		<component base="SerifSpurRight" xScale="-1" yScale="-1" xOffset="102"/>
		<component base="SerifSpurRight" xScale="-1" yScale="-1" xOffset="397"/>
	</outline>
</glyph>
<glyph name="y" format="2">
	<advance width="597"/>
	<unicode hex="0079"/>
	<anchor x="299" y="507" name="top"/>
	<anchor x="344" y="-50" name="bottom"/>
	<note>
		y
	</note>
	<outline>
		<contour>
			<point x="167" y="-172" type="line"/>
			<point x="233" y="-172" type="line" smooth="yes"/>
			<point x="252" y="-172"/>
			<point x="259" y="-164"/>
			<point x="265" y="-150" type="curve" smooth="yes"/>
			<point x="547" y="507" type="line"/>
			<point x="476" y="507" type="line" smooth="yes"/>
			<point x="465" y="507"/>
			<point x="454" y="499"/>
			<point x="450" y="488" type="curve" smooth="yes"/>
			<point x="319" y="170" type="line" smooth="yes"/>
			<point x="312" y="154"/>
			<point x="308" y="140"/>
			<point x="304" y="125" type="curve"/>
			<point x="300" y="139"/>
			<point x="294" y="159"/>
			<point x="290" y="169" type="curve" smooth="yes"/>
			<point x="155" y="488" type="line" smooth="yes"/>
			<point x="151" y="497"/>
			<point x="143" y="507"/>
			<point x="127" y="507" type="curve" smooth="yes"/>
			<point x="50" y="507" type="line"/>
			<point x="259" y="30" type="line"/>
		</contour>
		<contour>
			<point x="114" y="482" type="line"/>
			<point x="189" y="482" type="line"/>
			<point x="189" y="507" type="line"/>
			<point x="114" y="507" type="line"/>
		</contour>
		<contour>
			<point x="424" y="482" type="line"/>
			<point x="499" y="482" type="line"/>
			<point x="499" y="507" type="line"/>
			<point x="424" y="507" type="line"/>
		</contour>
		<component base="SerifSpurLeft" xOffset="90" yOffset="507"/>
		<component base="SerifSpurRight" xOffset="173" yOffset="507"/>
		<component base="SerifSpurLeft" xOffset="424" yOffset="507"/>
		<component base="SerifSpurRight" xOffset="507" yOffset="507"/>
	</outline>
</glyph>
<glyph name="z" format="1">
  <advance width="472"/>
  <unicode hex="007A"/>
  <note>
    z
  </note>
  <outline>
    <contour>
      <point x="432" y="507" type="line"/>
      <point x="106" y="506" type="line"/>
      <point x="55" y="506" type="line"/>
      <point x="55" y="363" type="line"/>
      <point x="90" y="363" type="line" smooth="yes"/>
      <point x="98" y="363"/>
      <point x="104" y="368"/>
      <point x="106" y="376" type="curve"/>
      <point x="106" y="380"/>
      <point x="108" y="399"/>
      <point x="111" y="436" type="curve"/>
      <point x="328" y="436" type="line"/>
      <point x="52" y="69" type="line" smooth="yes"/>
      <point x="44" y="58"/>
      <point x="40" y="47"/>
      <point x="40" y="37" type="curve" smooth="yes"/>
      <point x="40" y="0" type="line"/>
      <point x="426" y="0" type="line"/>
      <point x="426" y="148" type="line"/>
      <point x="391" y="148" type="line" smooth="yes"/>
      <point x="383" y="148"/>
      <point x="378" y="144"/>
      <point x="376" y="136" type="curve"/>
      <point x="376" y="132"/>
      <point x="373" y="110"/>
      <point x="370" y="70" type="curve"/>
      <point x="145" y="70" type="line"/>
      <point x="419" y="435" type="line" smooth="yes"/>
      <point x="427" y="445"/>
      <point x="432" y="457"/>
      <point x="432" y="469" type="curve" smooth="yes"/>
    </contour>
    <contour>
      <point x="237" y="0" type="move" name="bottom"/>
    </contour>
    <contour>
      <point x="237" y="506" type="move" name="top"/>
    </contour>
  </outline>
</glyph>
<glyph name="braceleft" format="1">
  <advance width="339"/>
  <unicode hex="007B"/>
  <note>
    braceleft
  </note>
  <outline>
    <contour>
      <point x="121" y="210" type="curve"/>
      <point x="122" y="212" type="line"/>
      <point x="122" y="196"/>
      <point x="120" y="179"/>
      <point x="118" y="163" type="curve" smooth="yes"/>
      <point x="116" y="147"/>
      <point x="112" y="130"/>
      <point x="109" y="114" type="curve" smooth="yes"/>
      <point x="106" y="98"/>
      <point x="103" y="80"/>
      <point x="101" y="64" type="curve" smooth="yes"/>
      <point x="99" y="48"/>
      <point x="97" y="31"/>
      <point x="97" y="13" type="curve" smooth="yes"/>
      <point x="97" y="-10"/>
      <point x="100" y="-30"/>
      <point x="107" y="-50" type="curve" smooth="yes"/>
      <point x="114" y="-70"/>
      <point x="125" y="-86"/>
      <point x="139" y="-100" type="curve" smooth="yes"/>
      <point x="153" y="-114"/>
      <point x="171" y="-126"/>
      <point x="191" y="-134" type="curve" smooth="yes"/>
      <point x="211" y="-142"/>
      <point x="235" y="-146"/>
      <point x="263" y="-146" type="curve" smooth="yes"/>
      <point x="289" y="-146" type="line"/>
      <point x="289" y="-106" type="line" smooth="yes"/>
      <point x="289" y="-100"/>
      <point x="286" y="-94"/>
      <point x="282" y="-91" type="curve" smooth="yes"/>
      <point x="278" y="-88"/>
      <point x="273" y="-86"/>
      <point x="269" y="-86" type="curve" smooth="yes"/>
      <point x="259" y="-86" type="line" smooth="yes"/>
      <point x="233" y="-86"/>
      <point x="213" y="-78"/>
      <point x="198" y="-62" type="curve" smooth="yes"/>
      <point x="183" y="-46"/>
      <point x="175" y="-22"/>
      <point x="175" y="7" type="curve" smooth="yes"/>
      <point x="175" y="25"/>
      <point x="177" y="43"/>
      <point x="179" y="61" type="curve" smooth="yes"/>
      <point x="181" y="79"/>
      <point x="184" y="96"/>
      <point x="187" y="112" type="curve" smooth="yes"/>
      <point x="190" y="128"/>
      <point x="193" y="146"/>
      <point x="195" y="162" type="curve" smooth="yes"/>
      <point x="197" y="178"/>
      <point x="199" y="195"/>
      <point x="199" y="211" type="curve" smooth="yes"/>
      <point x="199" y="223"/>
      <point x="197" y="236"/>
      <point x="193" y="246" type="curve" smooth="yes"/>
      <point x="189" y="256"/>
      <point x="184" y="266"/>
      <point x="177" y="274" type="curve" smooth="yes"/>
      <point x="170" y="282"/>
      <point x="162" y="290"/>
      <point x="153" y="296" type="curve" smooth="yes"/>
      <point x="144" y="302"/>
      <point x="134" y="307"/>
      <point x="123" y="310" type="curve"/>
      <point x="134" y="313"/>
      <point x="144" y="317"/>
      <point x="153" y="323" type="curve" smooth="yes"/>
      <point x="162" y="329"/>
      <point x="170" y="337"/>
      <point x="177" y="345" type="curve" smooth="yes"/>
      <point x="184" y="353"/>
      <point x="189" y="363"/>
      <point x="193" y="374" type="curve" smooth="yes"/>
      <point x="197" y="385"/>
      <point x="198" y="397"/>
      <point x="198" y="409" type="curve" smooth="yes"/>
      <point x="198" y="425"/>
      <point x="197" y="442"/>
      <point x="195" y="458" type="curve" smooth="yes"/>
      <point x="193" y="474"/>
      <point x="190" y="492"/>
      <point x="187" y="508" type="curve" smooth="yes"/>
      <point x="184" y="524"/>
      <point x="181" y="541"/>
      <point x="179" y="559" type="curve" smooth="yes"/>
      <point x="177" y="577"/>
      <point x="175" y="595"/>
      <point x="175" y="613" type="curve" smooth="yes"/>
      <point x="175" y="641"/>
      <point x="182" y="664"/>
      <point x="197" y="681" type="curve" smooth="yes"/>
      <point x="212" y="698"/>
      <point x="232" y="706"/>
      <point x="258" y="706" type="curve" smooth="yes"/>
      <point x="268" y="706" type="line" smooth="yes"/>
      <point x="272" y="706"/>
      <point x="277" y="708"/>
      <point x="281" y="711" type="curve" smooth="yes"/>
      <point x="285" y="714"/>
      <point x="288" y="720"/>
      <point x="288" y="726" type="curve" smooth="yes"/>
      <point x="288" y="765" type="line"/>
      <point x="261" y="765" type="line" smooth="yes"/>
      <point x="233" y="765"/>
      <point x="209" y="762"/>
      <point x="189" y="754" type="curve" smooth="yes"/>
      <point x="169" y="746"/>
      <point x="152" y="735"/>
      <point x="138" y="721" type="curve" smooth="yes"/>
      <point x="124" y="707"/>
      <point x="114" y="691"/>
      <point x="107" y="671" type="curve" smooth="yes"/>
      <point x="100" y="651"/>
      <point x="96" y="631"/>
      <point x="96" y="608" type="curve" smooth="yes"/>
      <point x="96" y="590"/>
      <point x="98" y="572"/>
      <point x="100" y="556" type="curve" smooth="yes"/>
      <point x="102" y="540"/>
      <point x="106" y="523"/>
      <point x="109" y="507" type="curve" smooth="yes"/>
      <point x="112" y="491"/>
      <point x="115" y="474"/>
      <point x="117" y="458" type="curve" smooth="yes"/>
      <point x="119" y="442"/>
      <point x="121" y="424"/>
      <point x="121" y="408" type="curve" smooth="yes"/>
      <point x="121" y="386"/>
      <point x="115" y="370"/>
      <point x="103" y="356" type="curve" smooth="yes"/>
      <point x="91" y="342"/>
      <point x="75" y="336"/>
      <point x="53" y="336" type="curve"/>
      <point x="53" y="282" type="line"/>
      <point x="75" y="282"/>
      <point x="91" y="276"/>
      <point x="103" y="262" type="curve" smooth="yes"/>
      <point x="115" y="248"/>
      <point x="121" y="231"/>
    </contour>
  </outline>
</glyph>
<glyph name="bar" format="1">
  <advance width="240"/>
  <unicode hex="007C"/>
  <note>
    bar
  </note>
  <outline>
    <contour>
      <point x="154" y="766" type="line"/>
      <point x="86" y="766" type="line"/>
      <point x="86" y="-172" type="line"/>
      <point x="154" y="-172" type="line"/>
    </contour>
  </outline>
</glyph>
<glyph name="asciitilde" format="2">
	<advance width="594"/>
	<unicode hex="007E"/>
	<note>
		asciitilde
	</note>
	<outline>
		<contour>
			<point x="388" y="307" type="curve"/>
			<point x="388" y="307" type="line"/>
			<point x="338" y="307"/>
			<point x="268" y="359"/>
			<point x="202" y="359" type="curve" smooth="yes"/>
			<point x="117" y="359"/>
			<point x="66" y="297"/>
			<point x="66" y="207" type="curve"/>
			<point x="138" y="207" type="line"/>
			<point x="139" y="255"/>
			<point x="164" y="285"/>
			<point x="208" y="285" type="curve" smooth="yes"/>
			<point x="256" y="285"/>
			<point x="330" y="233"/>
			<point x="393" y="233" type="curve" smooth="yes"/>
			<point x="480" y="233"/>
			<point x="529" y="295"/>
			<point x="529" y="384" type="curve"/>
			<point x="457" y="384" type="line"/>
			<point x="457" y="337"/>
			<point x="431" y="307"/>
		</contour>
	</outline>
</glyph>
